<svg width="140" height="121" viewBox="0 0 140 121" fill="none" xmlns="http://www.w3.org/2000/svg">
<path d="M2.40819 86.2286L2.64459 86.9303C1.94928 86.6956 1.42084 86.7747 1.09404 87.5147C1.7036 87.4141 2.29462 87.9219 2.83 87.3279C3.16144 87.5411 3.49519 87.735 3.9147 87.6153C3.72234 87.0549 3.129 86.6022 3.50679 85.8885L4.01437 86.3005C4.24846 85.8502 4.32726 85.3712 4.25078 84.8659L4.72823 85.012C4.61697 85.5029 4.63551 85.9676 5.0921 86.3436L5.34473 85.8167L5.59505 86.1208C5.84071 85.6131 6.34599 85.5868 6.75391 85.4143C6.7655 85.2826 6.77708 85.1604 6.7933 84.9688C7.33565 85.7831 7.33565 85.7831 7.87567 85.867C7.82469 85.5556 7.75517 85.2491 7.67172 84.9449C7.55353 84.5833 7.85483 84.3773 7.88495 83.9558L8.22566 84.4994C8.16309 84.9066 8.05646 85.2371 8.07964 85.558C8.10049 85.8382 8.30678 86.0777 8.61272 86.2286L8.69615 85.9604L8.93256 86.049C9.00673 85.8574 9.08322 85.6658 9.1852 85.4095C9.5004 85.7568 9.81329 86.0179 10.2745 85.9412L9.82721 84.7964L9.89209 84.7533L10.1864 85.1509C10.2398 85.0623 10.2768 85.0024 10.3093 84.9425C10.4762 84.6336 10.7126 84.3965 11.0649 84.3629C11.3592 84.3342 11.6466 84.2144 11.9456 84.4731C12.2075 84.6982 12.5598 84.6551 12.8843 84.4563L12.3326 83.9989L12.6108 83.6732L12.3466 83.3666C12.5042 83.1391 12.6293 83.2277 12.7869 83.3546C13.1415 83.6396 13.5286 83.6756 13.9551 83.484L13.4289 82.8349C13.8276 82.7295 14.1382 82.7128 14.4812 82.8685C14.852 83.0361 15.2229 82.8972 15.5914 82.5619C15.0421 82.5379 15.0397 82.047 14.801 81.7332L15.5195 81.489L14.8984 80.8926C15.4083 80.6483 15.3665 81.3333 15.7119 81.3165C15.7745 81.0938 15.8371 80.8615 15.9158 80.5693C16.2844 80.8447 16.5949 80.6675 16.9333 80.5382C16.5834 80.0663 16.8592 79.5873 16.8731 79.1036L17.0075 79.082C17.0446 79.1754 17.0701 79.2712 17.084 79.3718C17.084 80.155 17.3436 80.4807 18.1061 80.6435C18.1455 80.5022 18.222 80.3609 18.2197 80.2172C18.2197 79.6951 18.2289 79.6424 18.8779 79.3119L19.4805 80.052C19.5593 79.7143 19.6172 79.4676 19.6914 79.1419C20.0159 79.4652 20.0507 79.937 20.498 80.0711C20.5212 79.925 20.5443 79.7789 20.5652 79.6472C20.8387 79.3646 21.2953 79.7861 21.4992 79.3143C21.5734 79.5634 21.6383 79.7789 21.7148 80.028L22.5909 79.0078C22.8852 79.4341 23.1541 79.8891 23.7428 79.8508C23.6593 79.4077 23.569 78.9934 23.4902 78.5767C23.4438 78.3252 23.4809 78.1025 23.7683 77.9971C23.6709 77.7648 23.4971 77.5372 23.81 77.2858C23.9213 77.5971 23.9885 77.9061 24.1368 78.1623C24.3037 78.4617 24.6166 78.5527 24.9874 78.5312C24.9109 78.3252 24.8414 78.1408 24.7603 77.93L25.4185 77.7552L25.7198 78.2629C25.896 78.136 26.079 78.021 26.2668 77.9157C26.3062 77.8941 26.4035 78.0019 26.5125 78.0761C25.9933 78.3851 25.6248 78.7635 25.8125 79.4724C26.1324 79.2568 26.4545 79.0629 26.7442 78.8281C26.8555 78.7419 26.9065 78.5695 26.9667 78.4186C27.0873 78.1408 27.2379 78.0977 27.4697 78.2965C27.8266 78.6078 28.1789 78.9239 28.5428 79.2281C28.6494 79.2999 28.763 79.3598 28.8835 79.4077C28.8835 79.1874 28.8603 79.0078 28.8881 78.8377C28.9461 78.4952 29.0318 78.1599 29.106 77.8342C29.3354 77.7312 29.4838 77.8223 29.6252 77.9827C29.7318 78.1096 29.8616 78.1959 30.0169 78.2438C30.1721 78.2893 30.3251 78.2917 30.4804 78.2438C30.6125 78.2102 30.9463 78.2893 30.7423 77.9157C30.7168 77.8702 30.9092 77.6977 30.9857 77.6019L31.6787 77.4391C31.5952 77.1397 31.9174 77.0798 31.9823 76.8738C32.0588 76.6391 32.1167 76.3996 32.1862 76.1506C33.016 75.8895 33.169 75.7099 33.1759 74.9148C32.6591 75.1662 32.272 74.6729 31.7783 74.6872C31.8988 74.3807 32.0935 74.0837 32.1144 73.7724C32.1353 73.461 31.9846 73.1592 31.9128 72.8647L31.4608 72.8215C31.4191 73.2814 30.988 73.2407 30.7145 73.4323C31.0992 72.9868 30.9115 72.3521 31.2499 71.8827C31.4098 71.6624 31.287 71.0253 31.1224 70.6565C30.9439 70.9439 30.7122 71.0852 30.3297 70.9487C30.5314 70.6996 30.7632 70.4865 31.0227 70.3092C31.8386 69.7943 32.6475 69.2674 33.4679 68.7597C34.6129 68.0484 35.7694 67.3514 36.9213 66.6497C37.5796 66.2378 38.2865 65.9456 39.0397 65.7755C39.8973 65.5911 40.6019 65.1241 41.2624 64.5397C42.1339 63.7709 43.0169 63.0117 43.9394 62.31C44.8642 61.6083 45.9628 61.2011 47.0057 60.7102C47.2097 60.6168 47.3743 60.6982 47.5527 60.7724C48.357 61.1197 49.1913 61.3592 50.0559 61.4909C51.9494 61.752 53.7781 61.5101 55.484 60.6216C56.4922 60.1018 57.4308 59.4384 58.3996 58.8397C59.0718 58.4254 59.7207 57.9631 60.4184 57.6087C62.5553 56.5214 64.7038 55.4652 66.8593 54.4186C67.9301 53.8989 69.0241 53.4366 70.1041 52.9409C71.1865 52.4475 72.2944 52.2583 73.4602 52.4954C74.9783 52.802 76.4987 53.1037 77.9473 53.6857C78.9532 54.0881 79.8385 54.6557 80.4458 55.628C80.6845 55.9825 80.9511 56.3154 81.2431 56.6243C81.8341 57.2854 82.2327 58.0518 82.4437 58.9235C82.6059 59.5821 82.8724 60.2144 83.088 60.8587C83.2131 61.2323 83.3406 61.6035 83.4449 61.9819C83.6373 62.6549 83.8273 63.3279 83.9919 64.008C84.0475 64.2451 84.0313 64.5014 84.0359 64.7481C84.0545 65.8785 83.7694 66.9874 83.8667 68.137C83.9363 68.9345 83.832 69.7512 83.7601 70.5535C83.7393 70.7858 83.5631 71.0038 83.4635 71.2289C83.3267 71.5354 83.139 71.8324 83.0671 72.1534C82.9234 72.8647 82.6754 73.5329 82.3231 74.1603C82.1261 74.5196 81.9778 74.9028 81.8828 75.3027C81.7808 75.6955 81.5815 76.0619 81.4123 76.4332C81.3474 76.5793 81.2176 76.7014 81.1782 76.8523C80.9951 77.5875 80.5385 78.0785 79.9753 78.5431C79.5117 78.9263 79.0876 79.3191 78.5128 79.5323C78.1652 79.6616 77.8546 79.9346 77.5649 80.1909C76.6192 81.0291 75.4998 81.3501 74.2946 81.4003C74.0651 81.4003 73.8496 81.3405 73.6479 81.2255C73.0082 80.8687 72.3546 80.5214 71.7613 80.0879C70.8922 79.458 70.0833 78.7395 69.2303 78.0905C67.6775 76.9098 65.9392 76.3972 64.0201 76.7062C62.9354 76.881 61.8948 77.2283 60.8773 77.6546C59.8436 78.0881 58.9095 78.718 57.9384 79.2736C57.2385 79.6736 56.513 80.0184 55.8038 80.3969C55.5952 80.4926 55.4028 80.6124 55.2244 80.7561C54.5499 81.3764 53.8824 82.0087 53.2311 82.6553C53.0133 82.8876 52.8209 83.1439 52.6587 83.4193C52.063 84.3581 51.3167 85.1652 50.5611 85.958C50.3827 86.1472 50.1462 86.2813 49.9237 86.4202C48.9364 87.0357 47.9954 87.7159 47.1912 88.5709C46.4425 89.366 46.0717 90.3647 45.7982 91.4257C45.5479 92.4148 45.2466 93.3944 44.9036 94.3524C44.301 96.024 43.0563 97.1042 41.631 98.0023C40.3863 98.7878 39.0142 99.2357 37.612 99.6069C36.773 99.8273 35.9108 99.9997 35.095 100.294C34.2119 100.618 33.3521 101.001 32.5177 101.441C31.7922 101.82 31.3982 102.548 31.0019 103.254C30.4827 104.177 29.9404 105.084 28.9971 105.614C28.6262 105.808 28.2438 105.975 27.8521 106.114C26.4846 106.636 25.1126 107.142 23.7428 107.654C23.6269 107.69 23.5133 107.735 23.4067 107.795C22.4286 108.425 21.3092 108.622 20.2245 108.945C19.6705 109.108 19.1444 109.335 18.6415 109.625C17.5104 110.293 16.2682 110.485 15.0073 110.679C14.0663 110.823 13.1439 111.093 12.2144 111.316C11.8946 111.393 11.5817 111.524 11.2596 111.577C10.1679 111.752 9.15508 112.171 8.16541 112.662C7.82933 112.83 7.44226 112.901 7.08302 113.028C6.39697 113.275 5.70166 113.505 5.02953 113.79C4.64015 113.958 4.58916 114.113 4.61234 114.487C5.68312 114.834 6.76086 114.786 7.83165 114.463C8.62431 114.223 9.43088 114.154 10.249 114.108C10.7659 114.08 11.2804 113.989 11.7973 113.926C12.2098 113.874 12.6247 113.831 13.0372 113.768C13.6538 113.673 14.2795 113.61 14.8821 113.455C15.851 113.206 16.8105 113.076 17.8164 113.186C18.8779 113.301 19.9394 113.143 20.9638 112.837C22.2455 112.449 23.5133 112.013 24.7858 111.596C25.0198 111.52 25.2493 111.44 25.5089 111.63C25.1265 112.334 24.9665 113.088 24.8901 113.879C24.8344 114.429 24.7209 115.016 24.3014 115.404C23.4832 116.171 22.7439 117.052 21.6684 117.478C21.184 117.67 20.7112 117.9 20.243 118.13C20.0182 118.24 19.8467 118.41 19.8467 118.709C19.8467 118.977 19.9325 119.193 20.1828 119.243C20.5374 119.327 20.8943 119.363 21.2582 119.353C22.2386 119.296 23.0799 118.87 23.8378 118.235C24.0232 118.079 24.2573 117.986 24.4706 117.864C25.2864 117.39 26.0976 116.908 26.9157 116.441C27.7015 115.974 28.5405 115.816 29.4328 115.965C30.5059 116.139 31.4817 115.893 32.4505 115.421C32.9094 115.198 33.4517 115.122 33.9616 115.074C34.6268 115.002 35.2572 114.889 35.8459 114.53C36.8518 113.922 37.9643 113.646 39.1046 113.479C39.6076 113.407 40.1036 113.335 40.5972 113.232C40.7989 113.179 40.9866 113.095 41.1604 112.976C41.9647 112.473 42.755 111.948 43.557 111.448C44.4284 110.902 45.3972 110.624 46.4819 110.303C46.0045 110.753 45.6197 111.124 45.2234 111.484C44.9128 111.773 44.6648 112.116 44.4817 112.509C44.0808 113.292 43.5639 113.989 42.9358 114.592C42.2706 115.253 41.5846 115.89 40.88 116.503C40.4396 116.901 39.9321 117.169 39.3642 117.306C39.0119 117.402 38.6689 117.521 38.3352 117.67C38.1219 117.758 37.9666 117.948 38.0732 118.175C38.1289 118.3 38.3491 118.417 38.4881 118.407C39.0583 118.379 39.6238 118.312 40.1847 118.209C40.8638 118.07 41.5266 117.859 42.2034 117.687C42.704 117.567 43.1421 117.323 43.5153 116.954C44.5211 115.945 45.6823 115.205 47.0567 114.892C47.5666 114.777 48.0835 114.743 48.6026 114.791C49.3976 114.863 50.1787 115.064 50.9714 115.15C51.6087 115.217 52.2531 115.196 52.8951 115.222C53.3146 115.237 53.7341 115.222 54.1374 115.296C54.8721 115.423 55.5975 115.608 56.3276 115.763C56.6869 115.842 57.0345 115.876 57.4007 115.735C57.9662 115.519 58.5294 115.66 59.0857 115.838C59.3337 115.921 59.5886 115.972 59.8482 115.984C60.233 115.993 60.4207 115.771 60.4045 115.375C60.3975 115.203 60.3651 115.021 60.3442 114.846C60.5528 114.585 60.8309 114.628 61.0789 114.671C61.9017 114.805 62.7129 114.968 63.4754 115.356C64.8174 116.036 66.2567 116.477 67.7377 116.417C69.0959 116.365 70.2664 116.815 71.4044 117.414C73.3119 118.417 75.3375 118.92 77.4443 119.131C77.9705 119.183 78.5082 119.119 79.0227 119.109C79.1061 118.863 78.9671 118.791 78.8396 118.743C78.1072 118.467 77.4049 118.113 76.603 118.075C75.5044 118.024 74.7025 117.655 73.8333 116.858C74.1601 116.628 74.5356 116.676 74.8833 116.645C75.859 116.559 76.7629 116.798 77.6413 117.258C78.5684 117.746 79.5442 118.134 80.4852 118.597C81.0808 118.891 81.651 119.267 82.3185 119.339C83.526 119.473 84.6664 119.995 85.904 119.967C86.1543 119.962 86.4093 120.077 86.6573 120.168C87.0861 120.328 87.5264 120.412 87.9807 120.417C88.3214 120.424 88.6598 120.537 88.9982 120.599C89.4061 120.678 89.8117 120.762 90.2196 120.819C90.3448 120.831 90.4583 120.802 90.5626 120.733C90.7967 120.577 90.7666 120.299 90.5024 120.199C90.259 120.098 90.0064 120.026 89.7468 119.986C88.7409 119.864 87.7698 119.638 86.8589 119.138C86.3861 118.877 85.8646 118.714 85.3547 118.537C84.5018 118.237 83.8459 117.682 83.2572 116.99C82.8817 116.542 82.4668 116.13 82.0636 115.708C81.8758 115.531 81.7762 115.313 81.7623 115.05C81.7275 114.516 81.556 114.032 81.2431 113.603C81.0948 113.388 81.009 113.127 80.8838 112.892C80.7587 112.66 80.6196 112.434 80.4643 112.176C81.4911 111.929 82.4738 112.058 83.4078 112.564C83.73 112.743 84.0614 112.899 84.4021 113.033C85.2226 113.342 86.0663 113.182 86.8728 113.002C87.8787 112.777 88.8452 112.854 89.8071 113.136C91.2116 113.55 92.6393 113.68 94.0902 113.522C94.6233 113.467 95.1795 113.644 95.7265 113.749C96.0139 113.819 96.2944 113.91 96.5655 114.027C98.0303 114.592 99.4696 114.377 100.895 113.874C101.094 113.802 101.273 113.694 101.43 113.548C101.808 113.201 101.736 112.837 101.287 112.566C100.58 112.137 99.7964 111.958 99.0061 111.872C98.0396 111.764 97.0638 111.766 96.0927 111.709C94.6186 111.623 93.1446 111.546 91.6728 111.426C90.8523 111.359 90.0643 111.12 89.3736 110.631C89.165 110.475 88.9704 110.3 88.7942 110.109C88.1499 109.457 87.5751 108.746 86.7453 108.298C85.5587 107.664 84.3998 106.967 83.2618 106.243C82.3857 105.688 81.5398 105.089 80.7239 104.445C79.1664 103.209 77.4096 102.431 75.5531 101.837C74.8694 101.628 74.2088 101.358 73.5714 101.025C73.1218 100.778 72.7347 100.452 72.4126 100.045C71.9676 99.4872 71.5921 98.8836 71.2815 98.237C70.862 97.3461 70.2988 96.5845 69.6591 95.8684C69.3092 95.4732 68.9267 95.1068 68.5628 94.7236C67.8444 93.9668 67.3599 93.0591 66.9474 92.1035C66.864 91.9047 66.7967 91.7011 66.711 91.4688C67.309 90.3695 68.1619 89.5648 69.2721 89.0523C69.8353 88.784 70.4402 88.6044 71.0335 88.4176C71.6686 88.2164 72.306 88.2859 72.9341 88.4751C73.1519 88.5398 73.3675 88.6044 73.583 88.6763C73.9678 88.808 74.3595 88.8319 74.7558 88.7481C76.4431 88.4008 78.1373 88.1063 79.8223 87.7542C80.221 87.668 80.6034 87.474 80.9765 87.292C81.6672 86.9567 82.3301 86.5567 83.03 86.2502C83.9224 85.8526 84.7243 85.3281 85.3779 84.5857C86.2169 83.6301 87.0281 82.6433 87.8532 81.6734C88.4581 80.9645 88.7316 80.0927 88.9889 79.2137C89.325 78.0641 89.325 76.8667 89.4177 75.6859C89.5011 74.6441 89.7028 73.6143 89.7398 72.5749C89.7769 71.5067 89.96 70.4697 90.0875 69.4183C90.1594 68.8052 90.0666 68.1633 90.011 67.5406C89.9206 66.5731 89.7885 65.6103 89.6935 64.6451C89.6634 64.3433 89.6332 64.0248 89.6935 63.7374C89.9368 62.6118 89.8071 61.558 89.2485 60.5593C89.2137 60.497 89.1836 60.4324 89.1535 60.3677C89.1511 60.3318 89.1535 60.2958 89.1581 60.2599C89.3458 60.327 89.5243 60.3773 89.6912 60.4539C91.0911 61.0982 92.3218 61.9939 93.381 63.1411C93.6081 63.3901 93.8353 63.6392 94.0462 63.9027C95.3649 65.56 96.9804 66.8629 98.6723 68.0747C99.9123 68.9609 101.317 69.4159 102.752 69.7991C103.588 70.0218 104.457 70.12 105.308 70.2733C106.868 70.5559 108.469 70.3595 110.004 70.7738C110.676 70.9559 111.353 71.1211 112.018 71.3295C114.113 71.9785 116.194 72.6731 118.194 73.6095C119.485 74.213 120.827 74.3855 122.22 74.1244C122.605 74.0574 122.61 74.0789 122.923 74.304C123.14 73.8418 123.298 73.8011 123.678 74.11C123.762 74.1771 123.845 74.237 123.929 74.2969C124.012 74.3591 124.095 74.4142 124.193 74.4765L124.051 74.8693L124.533 74.9195C124.299 75.4345 124.077 75.9302 124.434 76.4763L124.93 75.8871L125.44 76.0595C125.414 75.844 125.393 75.662 125.375 75.5039C125.53 75.3411 125.787 75.7506 125.843 75.3698L126.42 76.0667C126.522 75.5758 126.541 75.1566 126.877 74.8333C127.039 75.1064 126.914 75.2884 126.805 75.4872C126.524 76.0021 126.58 76.3637 126.99 76.8547C127.208 76.4547 127.424 76.0572 127.651 75.638L128.501 75.7243C128.369 76.0811 128.23 76.4308 128.409 76.9002C128.786 76.3541 129.563 76.3446 129.644 75.5877L130.214 75.3842C130.597 75.7554 130.951 76.1146 131.329 76.4475C131.405 76.5146 131.565 76.4835 131.688 76.4978C131.723 76.3685 131.758 76.2368 131.804 76.0643L132.189 76.2607C132.156 76.4978 132.075 76.632 131.853 76.6224C131.952 76.8451 132.052 77.0702 132.168 77.3313C132.81 77.202 133.413 77.7504 134.154 77.6163C134.015 77.4103 133.913 77.257 133.814 77.1086C134.071 76.8164 134.071 76.8164 135.139 76.8786C135.176 76.6583 135.262 76.4595 135.394 76.2847C135.526 76.1098 135.693 75.9757 135.89 75.8871C136.349 75.6452 136.727 76.014 137.184 75.9374C137.184 76.3901 137.184 76.8307 137.554 77.1277C137.812 77.3361 138.099 77.4055 138.419 77.3361C138.257 76.9888 138.118 76.6559 137.944 76.3398C137.872 76.2056 137.747 76.0572 137.617 76.014C137.228 75.8871 137.197 75.5183 136.975 75.1734C137.337 75.2117 137.622 75.2884 137.897 75.262C138.199 75.2285 138.472 75.0872 138.804 75.1447C138.957 75.1638 139.105 75.1399 139.244 75.0728C139.383 75.0034 139.497 74.9028 139.58 74.7687C139.3 74.6178 139.042 74.4453 138.762 74.34C138.495 74.2394 138.206 74.2106 137.886 74.1412C138.002 73.8658 137.816 73.5089 138.164 73.279C138.243 73.3365 138.319 73.3987 138.424 73.4778C138.743 73.1305 139.302 73.0802 139.529 72.5222L139.075 72.4791L138.516 71.6289L138.407 71.6528C138.379 71.8157 138.352 71.9761 138.303 72.2468C138.129 72.0623 137.992 71.9402 137.884 71.7965C137.812 71.7007 137.948 71.4875 137.726 71.4636C137.559 71.4444 137.385 71.4277 137.216 71.4253C137.095 71.4372 136.977 71.4564 136.861 71.4875C136.945 71.3151 137.005 71.2145 137.051 71.1044C137.098 70.9966 137.128 70.8912 137.177 70.7523C137.445 71.0852 137.763 71.3367 138.189 71.3055C138.553 71.2936 138.838 71.1331 139.04 70.817L138.718 70.6972L138.852 70.3499L138.379 70.2781C138.391 70.0673 138.389 69.8542 138.373 69.6434C138.345 69.4614 138.261 69.2866 138.182 69.0567C137.999 69.3321 137.863 69.5332 137.728 69.7344C137.552 70.0027 137.334 70.1392 136.998 70.1009C136.887 70.0865 136.757 70.2565 136.609 70.3619C136.224 70.2134 136.032 69.768 136.129 69.0567L133.888 68.1346C133.797 67.828 133.686 67.4568 133.573 67.0832C133.376 67.1622 133.141 67.1838 133.107 67.282C132.993 67.5885 132.808 67.3107 132.662 67.3945C132.639 67.0616 132.729 66.7072 132.476 66.4102L132.027 66.9682C131.779 66.209 131.25 66.0366 130.58 66.0893C130.497 65.7803 130.413 65.4881 130.307 65.1265L129.973 64.9876L130.643 64.523C129.911 64.42 129.47 63.6153 128.682 64.1254L129.053 64.8199C128.773 64.7936 128.666 64.5589 128.501 64.4224C128.353 64.2835 128.214 64.1374 128.082 63.9817C128.04 63.9865 127.922 64.0009 127.804 64.0248C127.322 64.1158 127.273 64.0703 127.268 63.5602C127.268 63.3327 127.241 63.1027 127.231 62.8752C127.22 62.5495 127.162 62.243 126.805 62.0274C127.245 61.8238 127.658 61.6945 127.818 61.1916L127.407 61.1173C127.523 60.7605 127.644 60.406 127.463 60.0276L126.858 60.5305L126.151 59.3953V58.6768C125.917 58.8636 125.706 58.9451 125.495 58.6241C125.433 58.9906 125.384 59.2828 125.034 59.3714L124.944 59.163C124.436 59.2349 123.912 59.3139 123.388 59.3857C123.208 59.4121 123.083 59.3378 123.073 59.1247C123.069 58.9834 123.073 58.8421 123.073 58.6433C122.946 58.6888 122.855 58.7535 122.777 58.7415C122.721 58.7319 122.631 58.5667 122.638 58.5667C122.83 58.3751 122.672 58.2889 122.538 58.1978C122.42 58.126 122.304 58.0494 122.195 57.9631C122.005 57.8003 121.815 57.647 121.544 57.6925C121.509 57.7021 121.474 57.7021 121.437 57.6925C121.402 57.6853 121.372 57.6686 121.344 57.6446C121.316 57.6207 121.296 57.5919 121.282 57.556C121.27 57.5225 121.263 57.4865 121.268 57.4482C121.284 57.3309 121.337 57.2351 121.43 57.1632C121.618 57.0291 121.81 56.9046 122.009 56.792C121.683 56.6435 121.435 56.5214 121.175 56.416C121.017 56.3513 120.841 56.2675 120.681 56.2795C120.447 56.2938 120.232 56.3058 120.056 56.0998L120.243 55.4149L119.583 55.5825L119.553 55.4819C119.819 55.343 120.081 55.1945 120.355 55.0652C121.059 54.7299 121.217 54.0857 120.735 53.3696C120.582 53.6067 120.417 53.827 120.283 54.0665C120.151 54.3036 120.042 54.5671 119.9 54.864C119.62 54.888 119.465 54.6892 119.409 54.3348C119.198 54.4737 119.017 54.5958 118.836 54.7108C118.688 54.809 118.519 54.8257 118.417 54.6772C118.343 54.5575 118.322 54.4305 118.352 54.294C118.433 54.045 118.424 53.8007 118.329 53.5588C118.276 53.3648 118.239 53.166 118.218 52.9648L117.729 53.2307C117.226 53.1804 117.191 52.6439 116.848 52.3733C116.783 52.5529 116.73 52.711 116.665 52.8642C116.602 53.0175 116.519 53.1516 116.459 53.3001C116.417 53.3983 116.361 53.5109 116.375 53.6091C116.452 54.1288 116.183 54.4856 115.844 54.9048C115.566 54.6245 115.309 54.3467 115.033 54.0905C114.862 53.942 114.683 53.8055 114.495 53.6761C114.368 53.5803 114.238 53.4917 114.087 53.3839L113.48 53.8605C113.448 53.53 113.425 53.2834 113.401 53.0415C112.989 53.2834 112.62 53.5061 112.245 53.7145C111.955 53.8797 111.849 54.1216 111.927 54.4832C111.665 54.5144 111.39 54.4832 111.176 54.591C110.977 54.6916 110.84 54.9335 110.657 55.1347C110.421 54.967 110.312 54.7467 110.298 54.4329C110.277 53.9683 110.076 53.736 109.605 53.53C109.591 53.7049 109.58 53.8797 109.566 54.0617C109.243 54.0474 108.965 53.8007 108.643 53.9659L109.009 54.6748L108.738 55.0772L109.508 55.3071L108.291 55.7741C107.827 54.8449 107.378 54.6772 106.571 55.149L107.229 55.6472C107.093 56.0184 106.893 56.1956 106.518 56.1885C106.115 56.1813 105.795 56.3825 105.563 56.7656L106.159 56.9165C106.198 57.283 105.992 57.35 105.734 57.3883C105.739 57.9631 105.266 58.581 105.938 59.0792C105.79 59.3953 105.561 59.5127 105.229 59.5271C104.932 59.072 104.538 58.7607 103.938 58.8732C104.091 59.2061 104.246 59.5199 104.381 59.8408C104.541 60.2312 104.891 60.3629 105.218 60.5186C105.417 60.6144 105.598 60.6862 105.616 60.9712C105.134 61.1556 104.634 61.2227 104.121 61.17C103.361 61.0982 102.603 60.9832 101.845 60.8826C101.595 60.8491 101.4 60.7557 101.275 60.4922C100.881 59.6707 100.452 58.8684 100.058 58.047C99.9564 57.817 99.8915 57.5751 99.8636 57.3237C99.7709 56.6148 99.9239 56.3537 100.564 56.0615C100.642 56.0256 100.726 55.9945 100.807 55.9633C101.614 55.652 102.367 55.2688 102.888 54.5096C103.004 54.3348 103.139 54.1216 103.405 54.3539C103.435 54.1911 103.454 54.0737 103.472 53.9755L104.297 53.6977L103.785 53.3337L103.801 53.2522H104.576C104.731 53.6737 104.594 54.2294 105.136 54.488C105.211 54.1623 105.403 54.033 105.704 54.1671C105.76 53.5947 106.293 53.645 106.527 53.2977L106.724 53.6043L107.997 52.7828C108.212 52.8523 108.263 53.0295 108.309 53.2307C108.365 53.4175 108.435 53.5995 108.513 53.7767C108.785 53.5875 108.731 53.0463 109.216 53.1995C109.403 52.9385 109.596 52.6702 109.804 52.402C110.011 52.1362 109.844 51.6811 110.333 51.5207C110.416 51.5901 110.592 51.6691 110.667 51.8081C110.959 52.3565 111.417 52.517 111.985 52.4763C112.175 52.2655 112.175 52.2655 112.78 52.0619C112.759 51.9757 112.739 51.8895 112.706 51.7362C113.193 52.0092 113.633 52.0284 114.078 51.6859C114.203 52.2799 114.528 52.6295 115.112 52.7181C115.059 52.3445 115.008 51.9901 114.947 51.5662C115.124 51.6284 115.23 51.6691 115.337 51.7027C115.443 51.7386 115.606 51.8464 115.68 51.8033C116 51.6189 116.317 51.7985 116.63 51.8033C116.535 51.3818 116.447 50.9914 116.343 50.5267L116.989 50.4405C117.107 50.886 117.291 51.2213 117.743 51.4033C117.615 50.7854 118.104 50.134 117.45 49.6765C117.52 49.3915 117.856 49.1736 117.404 48.8934C117.821 48.8934 118.106 48.6659 118.426 49.0203C118.679 49.3029 119.339 49.0586 119.541 48.6587C119.641 48.4599 119.669 48.2228 119.752 47.9234C119.332 48.048 119.064 48.3785 118.639 48.2348C118.723 48.0815 118.79 47.9498 118.881 47.7821L118.639 47.7174C118.651 47.2193 118.213 46.9223 118.111 46.4625L118.614 45.8086C118.422 45.6793 118.236 45.6003 118.116 45.4614C117.919 45.2339 117.838 44.9848 118.081 44.6974C118.29 44.4483 118.264 44.1322 118.174 43.7801C117.882 43.9957 117.634 44.2567 117.337 44.3836C117.038 44.5106 116.769 44.6638 116.593 44.98C116.547 44.6495 116.676 44.4196 116.825 44.1801C117.161 43.6388 117.07 43.1885 116.54 42.7575C116.401 43.246 116.268 43.7154 116.127 44.2112C115.902 44.125 115.673 44.0316 115.603 43.6915C115.55 43.4304 115.351 43.27 115.066 43.2269L114.864 43.4951L114.389 43.2341C114.743 43.0544 114.845 42.7886 114.808 42.4605C114.774 42.1635 114.729 41.8641 114.699 41.6198H113.916C113.916 41.809 113.972 42.0438 113.9 42.2282C113.823 42.4245 113.629 42.5754 113.441 42.7958L113.089 42.1491C113.353 41.7444 113.448 41.3133 113.195 40.8127L112.813 41.2462L112.579 40.6211C112.168 40.9085 112.05 41.6055 111.339 41.4378C111.492 40.8391 111.471 40.3146 110.908 39.9434L110.463 41.4354C110.333 41.3923 110.159 41.3851 110.064 41.2917C109.911 41.1408 109.77 41.1169 109.568 41.1169C109.248 41.1169 109.183 40.9924 109.211 40.6283C109.253 40.0799 109.086 39.7901 108.527 39.5123C108.527 39.9266 108.497 40.3218 108.353 40.6882L108.24 40.681C108.224 40.5948 108.17 40.499 108.196 40.4319C108.404 39.8835 108.323 39.4213 107.867 39.0405C107.8 38.983 107.813 38.8177 107.783 38.686H107.501C107.487 38.4106 107.47 38.1471 107.452 37.8262L106.448 38.6094L106.214 38.3339C106.694 37.9483 106.993 37.5005 106.759 36.8586C106.703 36.8586 106.65 36.8514 106.643 36.8658C106.411 37.3328 106.02 37.2011 105.674 37.1101C105.435 37.0454 105.22 36.8802 105.032 36.7796L103.959 37.0143C103.839 36.667 103.894 36.2934 103.602 36.0276C103.479 36.2288 103.366 36.4132 103.224 36.6455C102.981 36.2383 102.784 35.8575 102.36 35.7641C102.075 35.7019 101.773 35.6851 101.516 35.8887C101.906 36.4084 102.552 36.7413 102.578 37.4694L101.006 37.0909C101.067 37.2897 101.101 37.4023 101.148 37.558L100.761 37.6945C100.67 37.0933 100.341 36.7652 99.7779 36.6143C99.8057 36.8562 99.8312 37.067 99.8613 37.2945C99.4047 37.3664 98.9991 37.3879 98.6399 37.0622C98.5935 37.1197 98.5634 37.1556 98.5356 37.1939C98.5078 37.2299 98.4776 37.273 98.4359 37.328L98.2366 37.1724L96.8877 37.1939L97.2863 37.6586L96.985 37.9891C96.6513 37.8406 96.3523 37.5987 96.0603 37.6035C95.6639 37.6131 95.2259 37.4095 94.8852 37.6945L95.6987 38.6022C95.5202 38.8968 95.4044 39.1818 95.2073 39.3829C95.0683 39.529 94.8272 39.5913 94.621 39.644C94.1273 39.7685 93.6243 39.8643 93.0611 39.9841L93.3648 40.3457L92.7112 40.1637C92.7737 40.3673 92.8155 40.5134 92.8502 40.6259C92.6625 40.8487 92.4655 41.0307 92.3357 41.251C92.1387 41.5839 92.1665 41.6606 92.4678 41.948L91.9649 42.5036C91.4086 42.2521 90.8941 42.2353 90.4699 42.8125L92.1109 43.3801L91.7539 43.6651C91.2695 43.2053 90.9543 43.1478 90.3842 43.428L91.3901 44.3573C91.4225 44.5944 91.4573 44.8554 91.5013 45.162C91.0169 45.1428 90.5696 45.2506 90.3355 45.8589L90.8755 45.9044C90.8222 46.2996 90.7735 46.6708 90.7202 47.0756L90.069 47.8372C90.3587 48.4743 90.5812 49.0562 90.5464 49.7627L90.952 49.722C90.908 49.9711 90.8686 50.1962 90.8361 50.4214C90.8292 50.4669 90.8732 50.5172 90.9057 50.589L91.2023 50.5315C91.098 51.1399 91.2603 51.6045 91.7957 51.923C91.8791 51.4943 91.9556 51.0991 92.0367 50.692L92.9453 50.6178L92.4423 50.0286C92.8688 50.0885 93.0588 50.3447 93.235 50.6034C93.1585 50.8525 93.0727 51.0824 93.0194 51.3219C92.9661 51.5614 93.031 51.6189 93.2929 51.5781C93.4042 51.5614 93.5154 51.5494 93.6522 51.535C93.972 51.8392 93.979 51.844 93.7935 52.2344C93.6475 52.5457 93.6406 52.8594 93.7773 53.1756C93.87 53.4199 94.0044 53.6498 94.1342 53.9132L94.5028 53.3001L95.0335 54.4665C95.1378 54.2246 95.1958 54.0905 95.2676 53.9252L95.5527 54.1L95.9722 53.1588C96.0672 53.2283 96.1298 53.2714 96.1901 53.3169C96.5076 53.554 96.839 53.6354 97.2168 53.4582C97.3512 53.3935 97.5135 53.3935 97.6641 53.3648C97.8588 53.1468 98.0465 52.9241 98.2528 52.7158C98.2876 52.6798 98.3826 52.7014 98.4939 52.6942C98.3038 53.1061 98.0558 53.336 97.6572 53.3528C97.5251 53.748 97.1797 54.0833 97.393 54.5695C96.9248 54.8305 96.788 55.2592 96.7208 55.7382C96.6791 56.0184 96.6188 56.3034 96.3847 56.4806C96.3291 56.4806 96.2828 56.495 96.2642 56.4806C95.7242 55.9897 95.0752 55.7574 94.3915 55.5849C94.1227 55.5107 93.87 55.3957 93.6382 55.2377C93.038 54.8401 92.4539 54.4138 91.8652 53.9995C91.1861 53.5109 90.4352 53.2738 89.6077 53.2929C88.6181 53.3049 87.6261 53.269 86.6712 53.7145C86.3282 52.984 85.707 52.6104 85.0998 52.2272C83.825 51.4225 82.5433 50.6201 81.2408 49.8538C80.7703 49.5831 80.2743 49.3676 79.7574 49.2071C79.4167 49.0993 79.1479 48.891 78.9555 48.582C78.6658 48.1557 78.339 47.7582 78.033 47.3462C77.5556 46.7044 76.8696 46.484 76.1464 46.4577C73.8032 46.3619 72.2248 45.0854 71.1332 43.0472C70.7786 42.3886 70.4726 41.7013 70.1505 41.0211C69.8283 40.3433 69.8932 39.7182 70.3359 39.1027C70.7647 38.5064 71.2189 37.9507 71.8378 37.5508C72.4288 37.1652 73.0708 37.0359 73.7337 37.2131C74.4105 37.3807 75.0687 37.6035 75.7061 37.8837C76.9878 38.4728 78.3367 38.7914 79.6948 39.0931C81.2987 39.4524 82.9165 39.3542 84.5273 39.2895C85.5332 39.2512 86.4348 38.7746 87.2367 38.1352C87.4291 37.9795 87.6099 37.8142 87.7837 37.6346C88.129 37.3017 88.326 36.8898 88.3701 36.4036C88.3793 36.315 88.384 36.2216 88.384 36.133C88.3886 35.5198 88.3214 34.8972 88.4141 34.3008C88.5068 33.7021 88.7316 33.1249 88.9518 32.5621C89.0886 32.1717 89.2856 31.8172 89.5382 31.4963C89.8766 31.1083 90.2521 30.7634 90.6646 30.4617C91.2139 30.0545 91.8142 29.7144 92.3728 29.3193C93.0797 28.8163 93.8538 28.5936 94.6928 28.7253C95.5318 28.857 96.3546 28.7684 97.1867 28.7133C97.6919 28.6726 98.1949 28.675 98.6978 28.7205C99.4835 28.8067 100.258 28.7421 101.02 28.5241C101.692 28.323 102.381 28.2391 103.081 28.2774C103.973 28.3397 104.865 28.378 105.783 28.4259L106.036 29.0438L106.891 27.9517C107.014 28.002 107.141 28.0403 107.271 28.0691C107.44 28.093 107.554 28.0523 107.691 27.8823C107.867 27.6691 108.203 27.42 108.416 27.4632C108.629 27.5087 108.708 27.3458 108.9 27.3698C108.905 27.4847 108.914 27.6021 108.914 27.717C108.914 27.9541 108.919 28.1912 109.111 28.3637C109.304 28.5361 109.281 28.7229 109.211 28.948C109.165 29.1588 109.155 29.3719 109.188 29.5851C109.631 29.1612 110.337 29.1804 110.613 28.5457L111.074 28.6774C111.021 28.1769 110.97 27.705 110.915 27.1997L111.26 27.1638C111.584 27.7027 111.267 28.3062 111.457 28.8594L111.923 28.5888C112.205 28.9672 112.458 29.3312 112.741 29.6713C113.086 30.0856 113.601 29.8102 114.013 29.9707C114.44 29.4725 115.026 29.1037 115.163 28.3661L115.283 28.3948C115.323 28.5481 115.351 28.7014 115.367 28.8594C115.39 29.6114 115.803 30.0569 116.535 30.0904C116.512 29.9755 116.489 29.8629 116.459 29.7025L116.802 30.0234C116.985 29.6977 116.961 29.2163 117.525 29.1899C117.318 29.6522 117.251 30.0593 117.58 30.4832L118.055 29.7599C118.774 29.7719 118.653 29.8941 118.779 30.4114L119.991 29.6617C120.116 30.0952 120.292 30.4784 120.751 30.6748C120.786 30.373 120.816 30.1024 120.848 29.8294C120.883 29.5588 120.922 29.3217 120.86 29.0414C120.823 28.8738 121.031 28.6391 121.154 28.4523C121.173 28.4259 121.34 28.4738 121.414 28.5241C121.453 28.5505 121.453 28.6559 121.458 28.7253C121.509 29.3169 121.859 29.6091 122.429 29.7695C122.399 29.5851 122.373 29.439 122.346 29.2666L122.661 29.1396C122.661 29.1013 122.672 29.063 122.661 29.0414C122.587 28.9193 122.461 28.8115 122.438 28.6822C122.325 28.0667 121.875 27.7266 121.446 27.3865C121.289 27.262 121.036 27.2668 120.742 27.1901L121.129 26.9123L120.915 26.6177C121.14 26.6393 121.465 26.7902 121.263 26.2417C121.504 26.3495 121.673 26.3806 121.782 26.4836C122.454 27.1039 123.05 27.044 123.597 26.2417L123.287 26.1627L123.384 25.8657C123.064 25.7627 122.751 25.6693 122.445 25.5639C122.186 25.4753 121.931 25.4298 121.704 25.6286C121.611 25.71 121.555 25.837 121.46 25.9759C121.435 25.9136 121.377 25.8274 121.377 25.746C121.386 25.5831 121.513 25.3628 121.451 25.2718C121.303 25.061 121.523 24.9844 121.527 24.8478C121.544 24.5149 121.534 24.182 121.534 23.7486L121.968 23.0349C121.632 23.0588 121.393 23.0684 121.161 23.0947C120.929 23.1235 120.688 23.1714 120.445 23.2121C120.308 22.8049 120.494 22.4888 120.739 22.1511L120.306 22.096V21.835L119.182 21.6601C119.446 21.2961 119.926 21.2698 120.049 20.8363C119.789 20.6998 119.279 20.9488 119.386 20.3046L118.73 20.5393L118.514 20.2112L118.192 20.4195C118.037 20.0052 118.227 19.5358 117.882 19.2268C117.754 19.1119 117.631 18.9945 117.457 18.8389C117.393 19.2628 117.339 19.6196 117.279 20.0004L116.38 19.7106C116.389 18.9418 115.942 18.5251 115.07 18.4006C115.422 18.1994 115.68 18.1012 115.877 17.9264C116.074 17.7515 116.217 17.4785 116.213 17.0929C115.677 17.421 115.005 17.1911 114.607 17.7276C114.055 17.7156 114.074 17.1408 113.744 16.9253L114.227 16.1421C113.659 16.1014 113.16 16.2738 112.586 16.2164L113.221 15.3805C112.912 15.2201 112.65 15.1266 112.632 14.7602C112.627 14.6572 112.412 14.5662 112.27 14.4513C112.21 14.5447 112.159 14.6237 112.101 14.7195C111.612 14.6548 111.735 13.9387 111.218 13.8861C111.315 13.0957 111.455 12.3676 112.148 11.8144L110.954 11.6755L111.624 10.7199L111.109 10.7534C111.012 10.3247 110.833 9.94872 110.414 9.72838C110.351 10.0613 110.298 10.3607 110.228 10.7367C109.909 10.3726 109.851 9.74754 109.213 10.0733C109.297 9.56313 109.213 9.13443 108.877 8.75363C108.727 8.58119 108.592 8.57161 108.435 8.63627C108.251 8.7177 108.078 8.8159 107.911 8.93085C107.744 9.03863 107.596 9.16796 107.387 9.32842L107.686 8.45904L107.134 8.58358V7.34538L106.353 7.08672C106.462 6.58618 106.483 6.16466 106.101 5.82218C105.996 6.04012 105.901 6.2389 105.792 6.46643C105.449 6.06407 105.572 5.59705 105.477 5.13961C105.262 5.27852 105.079 5.45575 104.868 5.51562C104.654 5.5755 104.395 5.52999 104.124 5.52999C104.022 4.80911 104.008 4.01158 103.032 3.87746L103.229 4.93604L102.84 4.75642C102.552 5.37671 102.244 5.40066 101.801 4.82587C102.019 4.59356 102.337 4.42591 102.353 4.05469C102.072 4.04271 101.792 4.04511 101.514 4.06187C101.315 4.08582 101.087 4.12893 100.941 4.25347C100.724 4.43309 100.573 4.3852 100.431 4.27503C100.39 3.91578 100.448 3.53259 100.292 3.30506C99.9865 2.8572 99.7478 2.37821 99.4812 1.91358C99.4719 1.89921 99.4534 1.89442 99.4024 1.8585L99.2355 2.12674C98.9899 1.93753 98.7256 1.76989 98.5078 1.55434C98.3015 1.35316 98.1462 1.0969 97.8889 0.763997L97.7661 1.56392C97.4045 1.38908 97.4694 1.00349 97.3026 0.720887L96.54 1.45375C96.0788 1.29808 95.6315 1.25736 95.2259 1.68846L95.6315 1.904L95.1981 2.26804C95.0451 2.02136 94.9223 1.8106 94.7878 1.61182C94.672 1.45375 94.6534 1.2861 94.7368 1.10887C94.8991 0.696937 94.7693 0.337691 94.5792 0.0646644L93.979 0C93.9558 0.340086 93.9326 0.692147 93.9071 1.05618C93.235 1.26694 92.4701 1.05618 91.9811 1.73157C91.6473 1.45614 91.3321 1.15198 90.8616 1.24778C91.0633 1.74594 91.0633 1.74594 91.0239 2.13871C90.8547 2.03812 90.6878 1.98304 90.5881 1.86329C90.2312 1.4274 89.7862 1.41543 89.3018 1.50165C89.0214 1.55194 88.7409 1.59745 88.4234 1.65014C88.4303 1.69804 88.4419 1.80581 88.4581 1.94472C88.3793 1.92556 88.3098 1.93035 88.2959 1.904C88.1847 1.70283 88.085 1.49686 87.9598 1.24778C87.8254 1.37711 87.6655 1.51602 87.4917 1.37232C87.3572 1.24539 87.2321 1.11127 87.1185 0.965174L86.4464 2.03812C86.2679 1.63816 86.2401 1.20707 85.86 1.0011C85.7487 1.26215 85.7024 1.60942 85.517 1.73636C85.3176 1.87047 84.9862 1.79862 84.7173 1.82257C84.6061 2.30157 84.2329 2.58418 83.7323 2.57939C83.7184 2.65602 83.7045 2.73506 83.6906 2.81649C82.9814 2.56502 82.3092 2.59855 81.7414 3.0967C81.4772 2.84523 81.155 2.70871 80.8189 2.78775C80.7077 2.97695 80.6219 3.12544 80.52 3.29788L80.9673 3.60922L80.513 4.31335H80.9024L80.6451 4.8139C80.2465 4.52171 80.2024 3.91339 79.6392 3.85112C79.5558 3.9565 79.4654 4.07624 79.375 4.1936L78.9787 3.5254C78.8118 3.87507 78.6681 4.17204 78.5198 4.46423C78.3529 4.78755 78.2996 5.10848 78.5568 5.45575L78.9764 5.32881C79.1108 5.81978 78.5962 5.78147 78.4734 6.0497L78.5823 6.37542L78.0354 6.82807C77.7294 6.77298 77.493 6.64845 77.3261 6.31554C77.0967 5.85571 76.7212 5.75752 76.2345 5.93474C76.4802 6.31075 76.7931 6.65323 76.8 7.21605C76.2971 6.97895 75.9958 6.35865 75.3375 6.55744L75.5067 7.24719C75.4349 7.22803 75.3607 7.21605 75.2889 7.20887C75.1683 7.53219 74.8091 7.6232 74.6654 7.94173C74.524 8.26266 74.283 8.49497 73.8727 8.289C73.743 8.22434 73.5645 8.26266 73.4115 8.25308C73.2516 8.0495 73.094 7.84593 72.9271 7.63038L72.3848 9.10808C72.4427 9.23023 72.5238 9.39787 72.6443 9.65174C72.299 9.67809 72.007 9.65893 71.7451 9.73796C71.4368 9.82418 71.2189 10.0206 71.0892 10.3223L71.708 10.4349C71.8216 10.6169 71.6964 10.8396 71.9305 10.969C72.0371 11.0289 72.0603 11.2803 71.8053 11.4288C71.5851 11.5581 71.4229 11.8264 71.2885 12.0659C71.1842 12.2503 71.1541 12.4658 70.9223 12.5521C70.7114 12.6311 70.9756 12.9376 70.6951 13.0646C70.5399 13.1364 70.4564 13.4454 70.4031 13.6633C70.3544 13.8621 70.3915 14.0824 70.3915 14.3291L70.0462 14.9542C70.3104 14.9255 70.4889 14.8919 70.672 14.8895C70.8527 14.8848 71.0498 14.9087 71.2584 14.9231C71.3534 15.1506 71.4461 15.3733 71.5597 15.644L71.8424 15.3829C72.5146 16.693 73.1403 17.033 73.926 16.5133C74.1764 16.6067 74.1462 16.7624 74.0512 16.978C73.8519 17.4282 73.9608 17.8354 74.2621 18.2281C74.4684 17.8928 74.6515 17.5983 74.8253 17.3133L75.5739 17.809C75.4812 17.148 75.5369 16.6115 76.0468 16.1517C76.1093 16.3744 76.1603 16.5588 76.2229 16.7864L77.449 17.2558C77.5904 16.9301 77.785 16.7121 78.1512 16.7265C78.1906 16.875 78.2347 17.0283 78.2741 17.1887L78.4943 17.1001C78.9833 17.4138 79.1641 17.9 79.3495 18.4126C79.6207 19.1765 80.0657 19.8112 80.6822 20.3166C81.1828 20.7165 81.5931 21.2003 81.9106 21.7679C82.2073 22.2948 82.6152 22.7043 83.132 22.9941C83.3453 23.1187 83.5515 23.2552 83.7694 23.363C84.4184 23.6791 84.9259 24.1533 85.2968 24.788C85.4637 25.0754 85.7232 25.3101 85.9411 25.5615C86.1937 25.8561 86.4672 26.1363 86.6967 26.4501C87.1533 27.068 87.4314 27.7529 87.3456 28.5553C87.3364 28.7732 87.3364 28.9888 87.3456 29.2043C87.3526 29.8126 87.1533 30.3323 86.743 30.7682C86.6017 30.9239 86.4695 31.0915 86.3374 31.2568C86.05 31.6184 85.9851 32.0328 85.9249 32.495C85.8067 33.3117 85.6213 34.114 85.3709 34.9019C85.2342 35.3642 84.8101 35.618 84.423 35.8647C84.3164 35.9246 84.2075 35.9797 84.0939 36.0252C83.5353 36.2934 83.139 36.2 82.738 35.7067C82.6801 35.6372 82.6291 35.5653 82.585 35.4887C82.1122 34.5882 81.3891 33.908 80.7332 33.1656C79.3286 31.5777 77.551 30.7682 75.5716 30.3323C75.3213 30.2749 75.0617 30.2222 74.8045 30.1743C73.6317 29.9467 72.7765 29.1971 71.9908 28.3301C71.8772 28.2056 71.7451 28.093 71.6292 27.9661C71.5087 27.8463 71.4299 27.7027 71.3951 27.535C71.4855 27.5613 71.5736 27.5853 71.6639 27.6116C71.7961 27.65 71.9398 27.7482 72.058 27.7218C72.5331 27.6236 73.0082 27.626 73.4834 27.7266C73.6062 27.7482 73.7453 27.6763 73.8913 27.6404C73.8449 27.5278 73.8078 27.4536 73.78 27.3793C74.4939 27.3027 74.7094 27.1638 74.9041 26.6465L74.2273 26.5555C74.327 26.3231 74.4336 26.1411 74.48 25.9471C74.5171 25.7507 74.5171 25.5544 74.48 25.358C74.0373 25.8106 73.2215 25.746 73.0963 26.5483L72.452 26.407C72.3361 26.1028 72.452 25.813 72.5145 25.5184C72.5818 25.1879 72.598 24.8694 72.2781 24.6275L71.9653 24.7976C71.7312 24.6179 71.7149 24.2084 71.3789 24.2012C71.5759 23.7677 71.7636 23.3654 71.9421 22.9582C72.0556 22.702 72.2132 22.654 72.4821 22.7163C73.2307 22.8912 73.7267 22.4816 73.78 21.6697L73.4695 21.7344C73.4463 21.5476 73.4231 21.3632 73.3953 21.138L73.036 21.356L72.6814 20.6351C72.9642 20.3381 73.1033 19.9932 72.9851 19.5286L72.6768 19.6651C72.6281 19.5765 72.5748 19.4903 72.5354 19.4232L71.7798 20.2711C71.5643 19.9669 71.3905 19.7202 71.2166 19.4735C71.1911 19.4352 71.1796 19.3562 71.1564 19.3538C70.5468 19.2771 70.5677 18.7263 70.4217 18.3096C70.3915 18.2281 70.373 18.1419 70.3428 18.0389L70.7114 17.8521C70.7369 18.2473 70.7206 18.6281 71.1077 18.8077C71.7636 18.2042 71.6385 17.4234 70.7994 17.0402L70.7369 17.4594C70.5468 17.3971 70.373 17.3444 70.2015 17.2869C69.9002 17.1839 69.6128 17.0857 69.3045 17.3061C69.228 17.3588 69.0774 17.2941 68.9499 17.2318C69.3995 16.9756 69.7148 16.6594 69.7866 16.1134L68.2778 16.3792L67.7516 15.7134H67.258C67.4434 15.0811 67.4434 15.0811 67.3205 14.6572L66.4305 15.2775L66.113 14.983L65.8812 15.3302C65.77 15.1123 65.6842 14.9422 65.6286 14.8393C65.9647 14.571 66.3008 14.389 66.5093 14.1112C66.6577 13.91 66.6484 13.5795 66.7342 13.1939L65.7932 13.7136C65.3992 13.3208 65.9577 13.1388 65.9044 12.8059H65.179C65.1743 12.3365 65.1187 11.915 64.7386 11.5797C64.5671 11.9509 64.5115 12.4107 64.0526 12.5065C63.9575 12.5257 63.844 12.4634 63.6887 12.4275L64.333 11.8048L63.8208 11.6707C63.8648 11.3115 63.9042 10.9522 63.9506 10.6025H62.8775L62.757 10.3032L62.0779 10.4852C62.0871 10.3559 62.1196 10.2505 62.0895 10.1738C62.0663 10.114 61.962 10.0876 61.8762 10.0397C62.1057 9.5775 61.8554 9.22783 61.612 8.83266C61.4498 9.08653 61.3037 9.31644 61.1554 9.54636L61.0581 9.49367C61.0882 9.32603 61.1183 9.15838 61.1577 8.94283C61.0187 8.97396 60.9097 9.00031 60.8008 9.02186C60.481 9.08653 60.1727 9.05779 59.8691 8.93564C59.7022 8.86859 59.679 8.76081 59.7184 8.59795C59.7671 8.39678 59.8019 8.18841 59.8552 7.89144L59.3731 8.15249C59.329 8.12375 59.2595 8.10219 59.2503 8.06627C59.2108 7.91539 59.183 7.75971 59.1668 7.60404C59.1066 6.94303 58.7357 6.60055 58.052 6.58857C58.1169 6.77298 58.1864 6.95021 58.2397 7.13223C58.2768 7.24958 58.2907 7.37412 58.3185 7.51303L57.6858 7.84354L58.1354 8.14051C57.9546 8.56921 57.6696 8.82787 57.1736 8.92606L57.651 8.23152L57.3544 8.13812C57.4494 7.85791 57.5838 7.58488 57.6209 7.29748C57.658 7.01009 57.556 6.74424 57.2848 6.49038C57.1249 7.09152 56.5547 7.42921 56.6474 8.10219L56.0379 8.23392C55.6972 7.79324 55.2383 7.48189 55.1038 6.84483C54.6612 7.719 54.6612 7.71421 53.7294 7.63517C53.5487 7.6208 53.3656 7.66391 53.1292 7.68307C53.4212 8.10938 53.8337 8.36325 53.8894 8.86858L52.9762 9.14161C52.6818 8.92367 52.3944 8.60753 51.9054 8.64825C51.917 8.74165 51.9263 8.83266 51.9425 8.96438C51.7269 9.053 51.5392 9.18951 51.3839 9.37153C51.2286 9.55115 51.122 9.75951 51.0617 9.99183C50.6816 9.63258 50.2482 9.7667 49.8079 9.83615C49.7291 9.9559 49.6363 10.102 49.5066 10.3008C49.3559 9.74514 49.1172 9.35237 48.5563 9.338L48.3662 9.70443L49.0361 11.0552C49.0129 11.1869 48.9642 11.412 48.6652 11.4528L48.0649 10.7486C48.0186 11.0312 47.9908 11.2013 47.963 11.3689C47.5643 11.5845 47.1819 11.5342 46.8087 11.4168L46.4356 10.6672L45.6638 12.0347C45.7379 12.1808 45.8121 12.3317 45.9048 12.5161L45.3996 12.6383C45.3926 12.4922 45.3857 12.3581 45.3764 12.2096C44.8734 12.006 44.5443 12.3676 44.1619 12.6526C43.7887 12.1521 43.3623 11.7785 42.6693 12.0898L43.0471 12.5113C42.7342 12.8826 43.2603 13.1412 43.1606 13.5436C42.7249 13.522 42.266 13.5148 41.9693 13.9387C41.8025 14.1854 41.6842 14.4656 41.7677 14.7818C42.0736 14.6524 42.3773 14.5614 42.6438 14.401C42.8825 14.2597 43.0795 14.0441 43.3136 13.8429L43.6242 14.207C43.499 14.468 43.2047 14.6117 43.2 14.9662C43.2 15.1051 42.8987 15.2344 42.7319 15.3638C42.6646 15.4188 42.5789 15.4524 42.514 15.5074C42.215 15.7685 42.1733 15.9577 42.3355 16.3529L41.7492 16.4343L42.3216 17.3612L41.7746 17.8569C41.7677 17.7635 41.7607 17.6821 41.7538 17.5959C41.1071 17.3707 40.6042 17.6126 40.4304 18.2856C40.3469 18.5898 40.2009 18.7502 39.939 18.8939C39.5751 19.0903 39.253 19.3658 38.8984 19.5885C38.7593 19.6747 38.5831 19.6987 38.407 19.7561L38.6596 20.3022C38.5831 20.3237 38.5067 20.3357 38.4302 20.3429C38.2285 20.3333 38.0941 20.3477 37.9458 20.5728C37.809 20.7812 37.4915 20.8698 37.2458 20.9919C37.1832 21.0255 37.0882 20.9848 37.0071 20.98C36.875 20.9704 36.7359 20.9321 36.6154 20.9656C36.2538 21.059 35.8992 21.1883 35.4867 20.9728C35.5284 21.2195 35.5608 21.4015 35.6002 21.6218C35.1576 21.5164 35.1344 21.0327 34.7937 20.8195L34.6361 21.0734H34.096C34.3997 21.6913 34.3881 21.8062 33.95 22.6373C33.7206 22.7139 33.5583 22.587 33.3984 22.4385C33.0276 22.0912 32.6266 22.096 32.1584 22.3355L32.4505 22.6541L31.6555 23.7677C31.4029 23.7198 31.1734 23.636 30.9416 23.6408C30.7075 23.648 30.4711 23.7462 30.244 23.8012C29.9612 23.5785 29.741 23.272 29.3354 23.3007C29.3123 23.6815 29.7225 24.1078 29.1639 24.4048L29.4444 24.7353L29.0759 25.3508L28.4037 25.2334C28.5219 25.5424 28.617 25.7963 28.7097 26.0405L28.1233 26.7495C28.0885 26.7279 27.9842 26.6968 27.9842 26.6632C27.9842 26.3255 27.7478 26.2417 27.5091 26.1363C27.3445 26.0525 27.1869 25.9591 27.0316 25.8585C26.8323 26.2848 26.2459 26.4621 26.1764 27.0895C26.3572 27.2093 26.4174 27.5398 26.7999 27.4153C26.6492 27.7194 26.5565 27.8368 26.2529 27.6715C25.9099 27.4991 25.546 27.3913 25.1636 27.3554C24.7973 27.3123 24.5146 27.5398 24.3153 27.844C24.7348 28.0164 25.1149 28.1816 25.5066 28.3349C25.7963 28.4475 25.8426 28.7373 25.9261 28.9744C25.9956 29.166 25.9748 29.3935 25.991 29.5707C25.7268 29.6929 25.4695 29.8294 25.2192 29.9803C25.0987 30.0593 25.0245 30.2102 24.8993 30.3683C25.5923 30.4976 26.2969 30.4377 26.6979 31.1921C26.1996 31.4795 25.8589 31.8867 26.0906 32.6004L26.4754 32.2771L26.6562 32.4878C26.8393 32.3896 27.0293 32.1501 27.2379 32.471C27.2565 32.4998 27.4233 32.4255 27.5392 32.3944L27.6713 32.689C27.968 32.5597 28.2368 32.301 28.5984 32.5142L28.8116 32.1597L29.1964 32.3369C29.2172 32.3034 29.2358 32.2675 29.2474 32.2315C29.2821 32.0567 29.3146 31.8891 29.3424 31.719C29.3888 31.4268 29.4977 31.2472 29.8291 31.355C29.8755 31.3717 29.9566 31.276 30.0539 31.2113C29.9844 31.1179 29.9288 31.0556 29.8847 30.9838C29.6414 30.5862 29.6785 30.4521 30.0586 30.2126C30.2509 30.0928 30.4201 29.9396 30.6148 29.7911C30.6658 29.8653 30.7168 29.997 30.8118 30.0521C31.0158 30.1743 30.9578 30.3132 30.8628 30.4497C30.5731 30.8832 30.6079 31.3143 30.8999 31.8507C31.1502 31.3789 31.3495 30.9742 31.5813 30.5934C31.674 30.4617 31.7969 30.3826 31.9498 30.3563C32.221 30.3204 32.5014 30.3443 32.8236 30.3443C32.8236 30.8305 32.9905 31.2352 33.4934 31.5059C33.4564 30.8975 33.6974 30.4473 33.9964 29.9707C34.249 30.2677 34.4275 30.591 34.8308 30.6748V29.9946C35.3777 29.6569 35.7671 30.0928 36.2353 30.2222C36.2469 30.7155 36.4207 31.0915 36.9074 31.2855C36.9237 30.9957 36.9399 30.7371 36.9561 30.4784L37.0743 30.3898L37.1415 30.6772L37.5888 30.2964L38.1266 30.8856C38.1868 30.7467 38.203 30.6054 38.2633 30.5766C38.5762 30.4377 38.903 30.3299 39.2228 30.2054C39.5241 30.0904 39.7513 30.2413 40.0132 30.4904C40.0526 30.2725 40.0804 30.1096 40.1128 29.9204C40.4929 30.0162 40.8985 29.9372 41.1419 30.3491C41.1859 30.4281 41.3459 30.4377 41.4525 30.476C41.5823 30.5143 41.7144 30.5455 41.8813 30.591C41.58 30.9383 41.1141 31.1658 41.3018 31.7621L41.5846 31.8603C41.5591 31.9465 41.5336 32.0328 41.4942 32.1813L40.7989 31.731L40.384 32.3345L40.3006 32.3178C40.3214 32.016 40.3794 31.7094 40.3516 31.4125C40.3261 31.1155 40.1476 30.852 39.8695 30.6628L39.5635 31.6232C39.2645 31.3646 39.2275 30.9407 38.859 30.8496L38.5762 32.0639L38.5159 32.0567L38.4626 31.64C37.9597 31.9537 37.3038 31.9322 37.0998 32.5405C36.7197 32.5573 36.3975 32.5788 36.0754 32.586C35.9919 32.5812 35.9131 32.5573 35.8366 32.5213C35.7115 32.4734 35.591 32.4136 35.4473 32.3513V33.2781C34.4321 32.7105 33.8295 32.8686 33.5514 33.75C33.8411 33.7643 34.1308 33.7787 34.4182 33.8003C34.6291 33.8146 34.8053 33.9248 34.8377 34.1379C34.8539 34.2457 34.7543 34.4086 34.6708 34.4852C34.5295 34.6074 34.3626 34.7127 34.154 34.5619C33.9871 34.4445 33.7924 34.375 33.5305 34.2457C33.5769 34.4685 33.6024 34.5954 33.6279 34.7247C33.169 35.1438 32.622 34.8373 32.0217 34.8732C32.5895 35.4815 32.4899 36.1018 32.2743 36.758L31.7088 36.7844C31.8664 37.0718 32.0055 37.3257 32.1631 37.6178L31.776 37.7544C31.7389 37.9651 31.8038 38.1304 31.973 38.2549C32.2187 38.4633 32.2187 38.7411 32.0356 38.9087C31.9243 39.0021 31.7969 39.0405 31.6555 39.0237C31.5118 39.0069 31.3982 38.9399 31.3101 38.8225C31.178 38.6477 31.0413 38.4728 30.8536 38.2262C30.6867 38.8848 30.6403 39.4835 30.2556 39.941C30.4711 40.2403 30.2649 40.5589 30.339 40.8966L29.7526 40.9971C29.704 41.4115 29.6228 41.8186 29.1014 41.8234L28.457 40.99C28.4014 41.2247 28.3736 41.3468 28.3319 41.5073C28.0074 41.2893 27.6806 41.0977 27.2286 41.2031L27.5439 41.7348L27.3468 41.9096C27.3445 41.9408 27.3468 41.9743 27.3561 42.0054C27.4396 42.221 27.5508 42.4293 27.6064 42.6521C27.6899 42.9993 27.5833 43.179 27.2866 43.3275C26.9042 42.9802 26.5519 42.6209 26.1579 42.3192C25.8218 42.0653 25.4463 42.106 25.1126 42.2809L25.6387 42.803C25.5506 42.9946 25.5066 43.088 25.4533 43.2029L25.7986 43.3442C25.7569 43.8735 25.7152 44.3597 25.6781 44.8578L26.4893 45.0255L25.6086 45.7344C25.6595 45.9643 25.7685 46.1799 25.7291 46.3643C25.6897 46.5463 25.5066 46.6996 25.386 46.8648C25.2841 47.0037 25.1821 47.1403 25.0592 47.3007C25.5715 47.3606 25.5807 47.3678 25.6619 47.8324C25.6827 47.9545 25.7036 48.0791 25.736 48.2012C25.7615 48.3018 25.8032 48.3976 25.8542 48.5485C25.7615 48.5557 25.6734 48.5701 25.5854 48.5916C25.488 48.6323 25.3953 48.6802 25.3049 48.7329C25.2702 49.2095 25.0199 49.667 25.3235 50.1699C25.5877 50.6058 26.0953 50.6872 26.3966 51.0393L25.641 51.9398C25.4718 51.9254 25.3096 51.9565 25.1543 52.0332C25.0013 52.1122 24.8762 52.2248 24.7834 52.3757C25.3212 52.4331 25.736 53.0271 26.3456 52.5625C26.2853 52.4284 26.2251 52.2918 26.13 52.0811C26.7859 52.0763 26.9111 52.8714 27.4535 52.8451C27.6018 53.1852 27.5601 53.4702 27.37 53.7647C27.2912 53.8893 27.2518 54.0258 27.2472 54.1743C27.2425 54.3252 27.2773 54.4641 27.3492 54.5934C27.5693 55.0269 27.8614 55.4077 28.3435 55.549C28.4918 55.5921 28.6633 55.5562 28.8812 55.5562C28.7004 55.276 28.5636 55.0652 28.4269 54.8545L28.4848 54.785C28.6355 54.8736 28.8255 54.9359 28.9322 55.0652C29.1106 55.2784 29.303 55.3598 29.551 55.264C29.8361 55.1514 30.0748 54.9742 30.1374 54.6365C30.1606 54.5168 30.1861 54.3994 30.2208 54.2413L30.7446 54.6796C30.6403 55.0341 30.645 55.3766 30.8906 55.7358C31.1943 55.2281 31.6763 54.888 31.7297 54.2581L30.8559 53.9108C31.0853 53.7552 31.331 53.7695 31.6694 53.9204C31.7181 53.8486 31.7667 53.7743 31.82 53.7025C31.8479 53.6761 31.878 53.6522 31.9128 53.6306L33.1319 54.3946C33.1527 54.2222 33.1666 54.0953 33.1875 53.9084L33.9037 53.8605L34.1192 53.5205C33.9292 53.4031 33.6279 53.4007 33.7298 53.0127L34.0404 53.2163L34.2073 52.687L35.285 52.5673C35.285 52.517 35.2897 52.4667 35.3013 52.4164C35.3198 52.3733 35.3453 52.3326 35.3754 52.2942C35.4959 52.5888 35.6026 52.8571 35.7555 53.2355C35.8598 53.0055 35.8923 52.8666 35.9711 52.7732C36.087 52.6223 36.226 52.5026 36.3906 52.414C36.671 52.2918 36.9167 52.1529 37.0905 51.8344L36.4485 51.6907C36.4485 51.6691 36.4485 51.6452 36.4485 51.6236L37.2435 51.4943C37.5077 51.6644 37.8531 51.8703 38.1822 52.1026C38.7477 52.505 39.3781 52.6535 40.0549 52.6607C40.9936 52.6726 41.8813 52.4571 42.718 52.0164C43.1212 51.8081 43.5292 51.6045 43.9394 51.4081C44.4493 51.1566 44.987 51.0321 45.5525 51.0369C45.8469 51.0369 46.1412 51.0033 46.4379 50.9818C47.3905 50.9075 48.3037 51.1279 49.2122 51.3794C50.1486 51.6572 51.1058 51.8296 52.0769 51.9015C52.5451 51.9374 53.0017 52.0332 53.4467 52.1912C54.1698 52.4523 54.9092 52.6343 55.6694 52.7397C56.2558 52.8092 56.8236 52.9864 57.4007 53.1133C57.8897 53.2187 58.3811 53.3193 58.9119 53.4318C58.84 53.5229 58.7589 53.6043 58.6708 53.6785C57.9732 54.1503 57.2756 54.6269 56.5594 55.07C56.2836 55.2257 55.9939 55.3406 55.6879 55.4173C54.2324 55.8316 52.7745 56.234 51.3167 56.6387C50.4545 56.8734 49.5969 56.8519 48.7463 56.5764C47.7312 56.2651 46.7276 55.9178 45.7264 55.5634C44.7854 55.2305 43.8699 55.3406 42.9822 55.7286C42.2799 56.0352 41.6124 56.428 40.9148 56.7513C40.3933 56.9908 39.8533 57.1848 39.3155 57.3836C38.2679 57.7667 37.1879 58.0661 36.175 58.5307C35.4056 58.8828 34.7218 59.436 33.9964 59.9007C33.4355 60.2623 32.8839 60.6383 32.3114 60.9736C32.0843 61.1053 31.8061 61.1413 31.5002 61.2419C31.3588 61.558 30.9092 61.7256 30.5407 61.5053L31.3866 60.8179L31.1108 60.1474C30.9555 60.0707 30.74 60.0276 30.6496 59.8959C30.5708 59.7809 30.6334 59.563 30.6334 59.4289C30.0331 59.1462 29.3911 59.0457 28.7491 58.8349L28.6818 59.1822C28.3968 59.072 28.5127 58.8349 28.4292 58.6936C28.953 58.2505 29.4258 57.8099 29.7248 57.2159C29.4119 57.1656 29.1547 57.0938 28.8997 57.0938C28.7073 57.1105 28.5266 57.168 28.362 57.2686C28.2137 57.362 28.0769 57.4698 27.9494 57.5919C27.6644 57.4913 27.8961 57.3069 27.8892 57.1417C27.5925 56.8974 27.1823 56.7249 27.2333 56.1621L26.5565 56.4759C26.1416 56.4759 25.8913 56.7369 25.6897 57.1009C25.546 56.8207 25.4278 56.5932 25.3096 56.3657L24.6792 56.5549C24.5957 56.4304 24.5308 56.325 24.4613 56.222C24.9295 56.5142 24.897 55.9873 25.0708 55.8172C25.4695 56.1477 25.8241 56.519 26.3804 56.3753C26.4267 56.3609 26.4962 56.4399 26.5565 56.4783C26.5055 56.3825 26.4638 56.2843 26.429 56.1837C26.2876 55.6688 25.9608 55.4005 25.451 55.367C25.4023 55.3598 25.3536 55.3478 25.3072 55.3287V54.5982L24.8901 54.8856L24.6792 54.694C24.6513 54.7108 24.6235 54.7299 24.6003 54.7539C24.3269 55.1203 24.2643 55.1275 23.9908 54.7994C23.8077 54.579 23.613 54.3827 23.2816 54.3276C23.3094 54.7682 23.3372 55.185 23.365 55.6017C22.9919 55.9059 22.7091 55.3742 22.3429 55.5514C22.329 55.5825 22.3243 55.6161 22.3243 55.6496C22.3313 55.6855 22.3452 55.7214 22.3614 55.755L21.7635 56.3872C21.388 56.1454 21.534 55.7526 21.5525 55.4364L20.7529 55.4915L20.7483 55.4173L20.1619 55.8532L19.9301 55.5634C20.4447 55.2664 20.7251 54.8592 20.5698 54.203L19.5825 54.8114C19.5245 54.5431 19.4805 54.3276 19.4156 54.0306L19.0726 54.4234L18.2614 54.2078C18.3634 54.4976 18.4398 54.7156 18.5488 55.0269C18.324 54.9407 18.1988 54.9024 18.076 54.8521C17.8233 54.7491 17.6031 54.6605 17.3876 54.955C17.3181 55.0508 17.1072 55.0317 16.9264 55.0748C16.829 54.6365 16.6969 54.2509 16.289 54.0114C16.2311 54.2605 16.1777 54.4904 16.1221 54.706C15.8394 54.7491 15.6145 54.7179 15.4106 54.5479C15.3179 54.4617 15.209 54.4114 15.0838 54.4018C14.8497 54.4186 14.75 54.3012 14.6434 54.1096C14.4325 53.7121 14.0733 53.6258 13.6167 53.6618C13.7465 53.9228 13.8554 54.1503 13.962 54.3659L12.9075 54.9742C12.3605 54.4473 11.6142 54.4234 11.1692 55.1275L11.8598 55.3718C11.6976 55.8651 11.6188 55.9154 10.854 56.0975C10.8099 56.2723 10.7635 56.4375 10.7195 56.6196C10.453 56.4447 10.2282 56.2459 9.96394 56.143C9.69972 56.04 9.41696 56.1094 9.1342 56.2867L9.81097 56.9022C9.33817 56.9022 9.1991 57.2375 9.03223 57.4985C8.93256 57.6398 8.87462 57.7979 8.86072 57.9703C8.8445 58.1452 8.87462 58.3104 8.94879 58.4685L9.32193 58.3128L9.09712 58.6984L9.34048 58.8589C9.28255 59.0337 9.22691 59.1965 9.15506 59.4049L8.80276 59.4576C8.78423 59.5055 8.77264 59.5534 8.76801 59.6037C8.77032 59.9174 8.89084 60.1641 9.13652 60.3485C9.41232 60.5593 9.37524 60.8563 9.26401 61.0862C9.1713 61.2826 9.25705 61.3712 9.31963 61.5005L9.02527 61.6753C8.91634 61.4622 8.81435 61.261 8.71005 61.0574C8.13295 61.4047 8.01012 61.7807 8.20712 62.3914C8.27898 62.6166 8.26506 62.8728 8.29056 63.1554L8.56868 63.256C8.61967 63.4883 8.66603 63.7111 8.72861 64.0104L8.18626 64.3865C8.21408 64.4487 8.26506 64.5613 8.31606 64.6738C8.07501 64.9133 7.86411 65.1888 7.59525 65.3684C7.35188 65.5336 7.04825 65.6007 6.72145 65.73C6.86516 65.857 6.96481 65.9456 7.08534 66.0534L6.87907 66.4557C7.03667 66.5874 7.31017 66.4006 7.35884 66.7407C7.20355 66.7503 7.05522 66.7551 6.90688 66.7742C6.49664 66.8197 6.18607 67.0305 6.01688 67.4257C5.93344 67.6149 5.85463 67.7729 6.01688 68.0148C6.14899 68.2112 6.12117 68.5202 6.17447 68.8459L6.87674 68.1729L6.99031 68.216C6.97641 68.4627 6.96483 68.707 6.94859 68.9992C6.41785 68.8722 6.23242 69.2698 6.00992 69.55C5.78741 69.8326 5.78973 70.1823 5.95198 70.5679C6.20229 70.3883 6.35062 70.0362 6.75623 70.1009L7.06448 70.4793L6.15361 71.296L7.00885 71.6384L6.97641 71.7462C6.8837 71.7294 6.7933 71.7055 6.70525 71.6791C5.97516 71.3846 5.42122 71.6959 5.22653 72.5557L5.91721 72.424C5.90794 72.5653 5.90099 72.6755 5.89403 72.788C6.21387 72.9844 6.27414 73.1185 6.14667 73.5089C6.09103 73.6837 6.04237 73.8059 6.16057 73.9855C6.27878 74.1675 6.25328 74.3879 6.12813 74.5938C6.04237 74.7519 5.98442 74.9195 5.95892 75.0992C5.88708 75.5183 5.99138 75.6309 6.41783 75.6332C6.48969 75.6452 6.55922 75.6668 6.62643 75.6931L5.88477 76.3733C5.98212 76.5577 6.21388 76.6343 6.05859 76.8355C5.97516 76.9529 5.88013 77.063 5.77582 77.1948C5.81985 77.3145 5.88477 77.4774 5.94502 77.6426C5.96124 77.7025 5.97052 77.7624 5.97746 77.8223C5.75034 77.9851 5.3795 77.5564 5.24971 78.0689L4.35043 78.1791L4.95071 78.8281L4.37823 79.6975C4.12097 79.3287 3.81735 78.9814 3.31673 79.003C3.01079 79.0149 2.76048 79.1682 2.52406 79.4556C2.91808 79.5562 3.24255 79.6975 3.47433 79.9777C3.44884 80.0184 3.42104 80.0639 3.39554 80.1023L2.85086 79.7263L2.41515 80.725L2.77206 80.9333L1.94696 81.2135C1.91682 81.3069 1.87511 81.4315 1.82179 81.5943C1.3768 81.3021 0.957291 81.2566 0.505325 81.58L0.941071 81.9129C0.968887 82.1404 0.57254 82.0638 0.713928 82.3344L0.695389 82.3176C1.1404 82.5763 1.46024 82.9331 1.58771 83.4456C1.23543 83.6684 1.23541 83.6684 1.00133 83.5103L1.02219 83.5247C0.667572 83.5462 0.294418 83.4049 7.62939e-05 83.6372L1.19139 85.1293L0.565598 85.5652L1.2076 86.8369L1.4417 86.2406C1.80789 86.6669 2.00259 86.231 2.26218 86.1089L2.35719 85.8095C2.44063 85.8574 2.57042 85.8957 2.58665 85.9604C2.64227 86.0969 2.60287 86.243 2.40819 86.2286ZM96.4079 2.43329C96.5122 2.25846 96.6606 2.2393 96.8529 2.27043C96.7788 2.70153 96.5702 2.4764 96.401 2.42132C96.4404 2.76859 96.204 2.64884 96.0185 2.67279V2.16027C96.1646 2.25846 96.2851 2.34707 96.4079 2.43329ZM69.1817 17.9934C69.4969 17.9383 69.4807 18.185 69.5386 18.3838C69.1724 18.4245 69.1724 18.4245 69.0681 18.1156C68.9963 18.0749 68.885 18.0533 68.8618 17.9934C68.8317 17.9192 68.8502 17.7515 68.892 17.7324C68.9847 17.6941 69.1029 17.7228 69.2118 17.7252C69.2025 17.8114 69.1909 17.9048 69.1817 17.9934ZM80.8213 18.3814C81.0414 18.3359 81.2686 18.2305 81.4795 18.2569C81.8295 18.3024 82.1516 18.2856 82.4668 18.1252C82.8539 19.0807 83.1691 19.2939 83.8088 19.064C83.7764 18.9778 83.7439 18.8915 83.7091 18.8029L84.1935 18.8796C84.0985 18.506 84.0985 18.506 84.2422 18.2425C84.525 18.47 84.7243 18.7335 84.7452 19.1023L85.0557 19.0281C85.0395 19.2412 85.0256 19.3993 85.0117 19.5621L85.2481 19.6268C85.2921 19.8687 85.1531 20.1369 85.3547 20.3213L86.0871 19.7585L86.648 20.2495L86.75 19.7777L87.246 20.0387C86.9957 20.4267 86.7129 20.7333 86.743 21.2506C87.4152 20.8147 87.9575 20.9967 88.4211 21.5021C88.2611 21.8278 88.1035 22.1439 87.9552 22.4625C87.837 22.7163 87.7327 22.975 87.6191 23.2288C87.5357 23.4228 87.487 23.6504 87.3549 23.7965C87.1625 24.0096 86.9076 24.1605 86.6573 24.3569C86.546 24.2204 86.444 24.0791 86.349 23.9306C85.9156 23.1857 85.3246 22.6205 84.5713 22.2349C84.3396 22.1128 84.1147 21.9739 83.8876 21.8445C83.5052 21.641 83.2085 21.344 82.9976 20.956C82.6523 20.2926 82.1424 19.7873 81.607 19.2939C81.3173 19.0233 81.0901 18.676 80.8375 18.3599C80.7726 18.2449 80.71 18.1299 80.6289 17.9862L81.009 17.8282L80.8213 18.3814ZM23.0382 67.3442L23.2236 67.3802C23.2074 67.2484 23.1958 67.1503 23.1842 67.0545C23.7729 66.9611 23.8679 66.9012 23.8123 66.6832C23.6825 66.5946 23.5597 66.5084 23.4299 66.4222C23.8494 66.0366 24.2249 66.3791 24.6027 66.4054C24.948 66.8748 25.4301 66.9275 25.9377 66.8676C26.2575 67.737 26.5356 67.9741 27.0896 67.8879C27.071 67.6915 26.8624 67.5263 26.9853 67.2796C27.3329 67.4999 27.676 67.6197 28.0746 67.5047L27.2843 66.106C27.7038 65.7995 28.2809 66.1923 28.6262 65.7085C28.5613 65.6678 28.5057 65.627 28.4454 65.5935C28.1557 65.4331 27.9031 65.2247 27.9494 64.8487C27.9912 64.5014 28.2902 64.2356 28.5242 64.147C28.9044 64.0057 29.3748 63.9578 29.7457 64.3601L29.5023 64.887L29.1663 64.6547C28.7815 65.002 28.7282 65.4163 28.8464 65.8881C28.8812 66.0605 28.9067 66.2354 28.9206 66.4102C28.9716 66.8006 29.0805 67.155 29.4537 67.3251C29.6113 66.8221 29.7596 66.3527 29.9056 65.8905L30.6125 66.1204C30.5499 65.8258 30.5059 65.6079 30.4619 65.4091C30.7608 65.2367 31.039 65.1337 31.2313 64.9397C31.4214 64.7457 31.535 64.4559 31.674 64.2236L31.1873 64.1446C31.4376 64.044 31.6949 63.9841 31.9591 63.9578C32.6312 63.8667 33.3103 63.8165 33.9732 63.6775C35.9224 63.2704 37.6931 62.4154 39.3642 61.3161C39.4986 61.2299 39.6377 61.1484 39.8486 61.0215C39.691 61.625 39.5867 62.1352 39.4198 62.6238C39.297 62.959 39.1394 63.2776 38.9517 63.5793C38.648 64.1014 38.152 64.3721 37.6422 64.6068C37.1902 64.8032 36.7823 65.0714 36.4138 65.4043C35.9201 65.8665 35.3128 66.0773 34.6801 66.2234C34.4599 66.2761 34.2351 66.3048 34.0103 66.3479C33.4309 66.4629 32.9186 66.712 32.5223 67.1718C32.3485 67.373 32.1631 67.567 32.0055 67.7801C31.5071 68.4675 30.8605 68.9273 30.0655 69.1596C29.2914 69.3848 28.5613 69.7129 27.873 70.144C27.3723 70.4505 26.8323 70.6349 26.2529 70.6948C26.2042 70.6996 26.1579 70.6996 26.1092 70.6948L25.8658 70.3787C25.6711 70.623 25.5205 70.8936 25.298 71.066C24.9503 71.3438 24.5517 71.5546 24.1646 71.8037C24.0256 71.5762 23.9722 71.272 23.6825 71.1499C23.5991 71.3941 23.5272 71.6049 23.4438 71.8516L22.8713 71.3247C22.818 71.751 22.8041 72.1055 22.5468 72.4671C22.519 71.9186 22.3452 71.4564 22.6233 70.9966C22.6905 70.8888 22.6326 70.6996 22.6326 70.4912C22.4843 70.5966 22.3892 70.6733 22.2873 70.7331C21.877 70.9678 21.7635 70.9487 21.4228 70.611C21.2883 70.4769 21.1446 70.3499 21.082 70.2949L21.1423 69.4255L21.0056 69.55C21.2257 69.6985 21.439 69.8542 21.6615 69.9955C21.986 70.1967 22.5422 70.144 22.7276 69.8877C22.8945 69.6578 23.0382 69.4111 23.1842 69.1836L22.2919 68.7405L22.6488 68.4292C22.6117 68.0819 22.5839 67.8208 22.5631 67.5909L23.0382 67.349C22.8203 67.4185 22.5909 67.5478 22.4518 67.2029L23.0382 67.3442ZM52.7259 31.7597C53.4467 31.8579 54.1327 31.9489 54.8234 32.0495C55.0459 32.0807 55.2823 32.095 55.484 32.1884C56.5014 32.6483 57.5815 32.8135 58.6639 32.9884C60.1889 33.2374 61.707 33.259 63.2089 32.8399C63.9459 32.6339 64.676 32.4136 65.4455 32.1884C65.6726 32.3082 65.8488 32.6363 66.2266 32.586C66.2034 32.2938 66.0388 32.0136 66.2567 31.7094C66.7666 31.9705 67.2881 32.1381 67.8003 31.6735C67.5824 31.4316 67.5477 31.173 67.6659 30.9047C67.951 30.9478 68.2453 31.0796 68.4585 30.9933C68.6579 30.9143 68.7691 30.6006 68.936 30.3659L69.228 30.4904L69.3416 30.2293C69.928 30.1838 70.4611 30.4114 71.0057 30.591C71.4809 30.7467 71.8934 30.9814 72.2225 31.3789C72.554 31.7765 72.9735 32.0591 73.4231 32.3082C73.838 32.5357 74.2227 32.8111 74.5727 33.1321C75.3283 33.8362 75.4349 34.8445 74.9458 35.6899L72.9526 36.03C72.8831 36.042 72.8135 36.0491 72.744 36.0491C71.4878 36.0659 70.322 36.4563 69.177 36.9353C68.7112 37.1317 68.3797 37.4861 68.1457 37.9555C67.5477 39.141 67.5454 40.3218 68.0738 41.5384C68.2639 41.9671 68.3844 42.415 68.4354 42.8844C68.5698 44.2567 68.3844 45.6147 68.1155 46.9558C68.0622 47.2169 67.9185 47.454 67.8212 47.7031C67.6056 48.2539 67.1444 48.5581 66.7133 48.8886C65.7144 49.6526 64.8174 50.5914 63.545 50.8884C63.5264 50.8932 63.5125 50.9004 63.4963 50.9099C63.0583 51.171 62.5924 51.1973 62.0918 51.1614C61.2435 51.1015 60.4022 51.0704 59.5747 50.8357C58.5387 50.5411 57.4911 50.2801 56.4365 50.0525C55.5697 49.8657 54.6913 49.7436 53.8152 49.5999C53.5487 49.5568 53.3238 49.4586 53.1848 49.2167C53.6761 48.9149 54.1721 48.6491 54.6264 48.3258C55.681 47.5737 55.9011 46.6684 55.3588 45.4614C55.2823 45.2889 55.2012 45.1141 55.1015 44.9033L55.7273 44.9465C55.7806 45.2147 55.8293 45.4566 55.8756 45.6937C56.3091 45.7823 56.3879 45.8494 56.4643 46.2373C56.5246 46.5487 56.5826 46.8576 56.8653 47.0756C57.1226 46.417 57.1226 46.417 57.5143 46.4409C57.5398 46.223 57.5653 46.0074 57.5908 45.7871L58.2953 45.8805L58.0334 45.2722C58.402 45.3033 58.7288 45.3823 59.044 45.3464C59.38 45.3057 59.6234 45.0494 59.7996 44.7692C59.6999 43.9406 59.6999 43.9406 60.5482 43.5358C60.9677 43.8352 61.16 43.8927 61.5935 43.8448C61.5749 43.6651 61.3663 43.4424 61.6653 43.3346C61.8623 43.5214 62.0269 43.7418 62.2424 43.8567C62.4302 43.9573 62.7315 44.0412 62.8844 43.9525C63.2066 43.7657 63.4731 43.4712 63.7374 43.1981C63.8208 43.1095 63.8254 42.9491 63.8764 42.7886C63.4662 42.8509 63.1093 42.8916 62.7546 42.9586C62.597 42.9874 62.4603 42.9658 62.4139 42.8077C62.3838 42.7096 62.4325 42.5826 62.4603 42.4725C62.4719 42.4293 62.5321 42.4006 62.5669 42.3671L62.0987 41.3492L62.9238 40.4415C62.6411 40.384 62.4209 40.3457 62.2007 40.2858C62.1497 40.2715 62.1173 40.1709 62.0732 40.0966C63.0258 39.9362 63.2298 39.7877 63.3016 39.256C62.4997 39.1482 61.7256 39.2416 60.9909 39.7877C61.1855 39.3326 61.3478 38.983 61.4822 38.6189C61.5355 38.4752 61.5865 38.2812 61.5378 38.1543C61.4521 37.9483 61.2852 37.7807 61.1322 37.5628C60.9329 37.8981 60.6641 38.1519 60.321 38.322C60.3674 37.752 60.2445 37.2275 59.9502 36.7437L59.7045 36.8802L59.0602 36.0324C59.1089 35.642 59.0277 35.2444 58.6523 34.9403L58.2073 36.0204C57.95 35.7665 57.8086 35.4169 57.4239 35.4001C57.4146 35.5558 57.4053 35.6923 57.3961 35.8527C57.0507 35.8839 56.7262 35.8527 56.4945 35.6348C56.3253 35.4743 56.2187 35.5558 56.0912 35.6348C56.0031 35.7019 55.9243 35.7761 55.8525 35.8575C55.7992 35.642 55.7621 35.4887 55.725 35.3354C55.7041 35.2253 55.6508 35.1343 55.5628 35.0672C55.4724 35.0001 55.375 34.9738 55.2661 34.9882C54.8535 35.0073 54.441 35.0432 54.0586 35.0696C53.5394 34.8948 53.8662 34.3056 53.5718 34.0134L53.3262 34.2146C53.2427 34.0014 53.1593 33.8314 53.1037 33.6494C53.0411 33.4266 53.0666 33.1464 52.9414 32.9812C52.6378 32.5908 52.6749 32.1813 52.7212 31.7597H52.7259ZM110.699 66.4797C110.769 66.8174 110.583 66.8365 110.379 66.8772C109.204 67.1119 108.029 67.3682 106.856 67.5957C105.387 67.8807 103.915 68.125 102.411 68.0196C101.676 67.9669 100.958 67.8592 100.32 67.4448C98.6376 66.3575 96.9897 65.2175 95.6593 63.668C94.4796 62.2932 93.2257 60.9976 91.8397 59.8432C91.7771 59.7737 91.7215 59.6995 91.6728 59.6205C91.8652 59.6205 91.9857 59.6109 92.1062 59.6205C92.9012 59.6803 93.6939 59.7642 94.4912 59.8073C95.7451 59.8767 96.9062 60.2599 97.9701 60.9521C99.166 61.7089 100.35 62.5016 101.75 62.8369C102.68 63.0596 103.586 63.1842 104.511 62.8177C104.84 62.686 105.197 62.6309 105.586 62.5303C105.528 63.0357 104.953 62.7651 104.893 63.1387C105.143 63.3063 105.38 63.4859 105.637 63.6344C105.894 63.7805 106.159 63.8739 106.411 63.9865C106.124 65.2103 106.128 65.2534 106.532 65.6534C106.736 65.3923 106.736 64.8702 107.28 65.0379C106.726 65.7252 106.687 65.9073 106.981 66.4892C107.225 65.9887 107.888 65.833 107.883 65.1576L107.853 65.8043L108.525 66.0629C108.56 65.9001 108.553 65.7013 108.643 65.5863C108.752 65.4498 108.944 65.3899 109.1 65.2965C109.362 65.5744 109.357 65.572 109.225 65.8785C109.158 66.0318 109.111 66.1947 109.049 66.3743C109.385 66.3096 109.661 66.2809 109.92 66.2018C110.254 66.1084 110.354 66.6186 110.699 66.4797ZM48.6884 31.0963C48.795 31.561 48.897 31.9992 49.0222 32.5429C48.6768 32.2771 48.401 32.119 48.255 31.7837C48.16 31.5681 48.0024 31.367 47.7567 31.3502C47.7011 31.6975 47.6524 32.0112 47.606 32.2866C47.3094 32.4615 47.1216 32.3992 46.8922 32.2268C46.665 32.0543 46.373 31.9633 46.0972 31.8747C45.8955 31.81 45.6777 31.8124 45.4459 31.7813C45.3903 31.8579 45.3138 31.9609 45.1863 32.1334L44.79 31.5466C43.951 31.9465 43.499 32.0136 43.2626 31.7909L43.0726 32.4447C43.0193 32.2962 42.9938 32.2603 42.9984 32.2315C43.0934 31.6807 43.0332 31.1969 42.5488 30.8377C42.4792 30.785 42.4653 30.567 42.5047 30.4617C42.5951 30.1982 42.7713 30.0401 43.0355 29.9899C43.3785 29.9372 43.6474 29.7504 43.9139 29.5468C44.0112 29.4797 44.1132 29.4198 44.2152 29.3672C44.4516 29.7551 44.7205 30.0162 45.1701 29.9994C45.133 29.815 45.0983 29.6522 45.0519 29.4198C45.2953 29.4749 45.4691 29.518 45.6545 29.554C45.8399 29.5899 46.03 29.6713 46.2061 29.6474C46.4286 29.6186 46.5978 29.6402 46.7809 29.7887C46.8875 29.8773 47.1355 29.9635 47.1888 29.9132C47.4044 29.7001 47.5852 29.8797 47.7683 29.9204C48.5123 30.0857 49.2516 30.2844 49.9956 30.4425C50.7651 30.6125 51.472 30.9311 52.1186 31.3933C52.0143 31.6831 51.9147 31.9609 51.8196 32.2291L51.0826 32.0399C51.166 32.301 51.2333 32.4926 51.3121 32.7297C51.0061 32.6243 51.0061 32.6243 50.7349 32.8231C50.3038 33.1392 50.1694 33.1201 49.7986 32.6986C50.1486 31.9777 50.0489 31.4077 49.4903 31.0484C49.4069 30.9957 49.2284 30.9478 49.2192 30.967C49.0847 31.2304 48.8669 31.0101 48.6884 31.0963ZM48.3292 47.5187C48.2898 47.1403 48.211 46.8433 48.2434 46.5631C48.2782 46.2852 48.4242 45.9979 48.5262 45.6937C48.7232 45.7607 48.8205 45.8685 48.8182 46.0841C48.8182 46.3331 48.8298 46.587 49.0639 46.7906C49.2725 46.4649 49.4162 46.0697 49.8867 46.0481C50.0466 46.3834 50.1856 46.7427 50.6121 46.8241C50.6121 46.611 50.6052 46.4313 50.6121 46.2541C50.6214 46.0769 50.6538 45.8781 50.677 45.6721C50.8346 45.7105 50.9829 45.8015 51.0502 45.7584C51.4812 45.4805 51.9517 45.447 52.4338 45.4614C52.4524 45.4614 52.4732 45.4135 52.4871 45.3919C52.4083 45.253 52.3295 45.1141 52.2507 44.9776L52.3365 44.9129L52.6424 45.253L52.8163 45.0782C53.099 45.1836 53.3563 45.2674 53.6066 45.3776C53.7155 45.4255 53.8059 45.4997 53.8778 45.5979C53.9774 45.7464 54.0609 45.9021 54.1304 46.0673C54.3714 46.6086 54.3367 46.8481 53.8592 47.1666C53.3748 47.4827 52.8719 47.7629 52.3504 48.0048C51.8683 48.23 51.3978 48.4455 51.2101 49.0395C50.1277 48.6443 49.1798 48.0599 48.3315 47.5211L48.3292 47.5187ZM97.4115 26.0142C97.6062 25.8897 97.8032 25.7029 97.8542 25.7388C98.1068 25.9112 98.3015 25.7603 98.5217 25.7052C98.7187 25.6573 98.8438 25.8178 98.7511 26.0381C98.5704 26.4645 98.6098 26.8692 98.823 27.2763C98.7604 27.2883 98.6955 27.2979 98.6329 27.3051L94.2061 27.3698C94.067 27.3698 93.928 27.3745 93.7866 27.3841C92.987 27.4488 92.2777 27.7649 91.6126 28.2152C90.8987 28.6966 90.1779 29.166 89.4154 29.6689C89.7213 28.9576 89.9809 28.2966 90.2915 27.6595C90.5047 27.2261 90.8686 26.9171 91.251 26.6273C91.3808 26.8309 91.4874 26.9937 91.6381 27.2261C91.9347 26.213 92.5698 25.8346 93.4644 25.8561C93.6382 25.8609 93.8121 25.8681 93.9859 25.8633C94.1713 25.8609 94.3591 25.8489 94.5445 25.825C94.9941 25.7627 95.4438 25.6909 95.898 25.6214C95.8586 25.9208 95.8262 26.1579 95.7845 26.4764L97.3327 25.6549L97.4115 26.0142ZM115.937 69.5979C115.295 69.732 114.653 69.732 114.009 69.6027C113.077 69.3991 112.155 69.1453 111.234 68.8842C110.24 68.604 109.236 68.422 108.2 68.5561C108.082 68.5633 107.964 68.5633 107.846 68.5561C108.951 68.307 110.059 68.1034 111.172 67.9286C111.411 67.8927 111.665 67.9574 111.981 67.9789C112.289 67.5957 112.817 67.8759 113.262 67.7586C113.306 67.7466 113.381 67.8711 113.443 67.931C113.638 68.1059 113.837 68.2783 114.03 68.4579C114.187 68.5992 114.34 68.7453 114.509 68.901L115.163 68.5465V69.4327L115.766 69.0183C115.835 69.2458 115.879 69.3967 115.937 69.5979ZM44.3612 49.7077C43.608 50.0645 42.8408 50.4118 42.0922 50.783C41.4363 51.1063 40.7618 51.2979 40.0294 51.2716C39.7907 51.2644 39.5844 51.2428 39.4801 50.9746C39.3758 50.704 39.4059 50.4669 39.6261 50.2968L40.2519 50.6609C40.3353 50.11 40.4118 49.6095 40.4906 49.0778L40.9495 49.3532C40.9681 49.1425 40.982 48.9724 41.0028 48.7233C41.1697 48.7856 41.3296 48.8024 41.4339 48.8886C41.8025 49.1903 42.1895 49.2526 42.5928 49.0035C42.7342 48.9006 42.8802 48.8958 43.0262 48.994C43.4666 49.243 43.9209 49.473 44.3612 49.7077ZM122.241 72.6802C122.042 72.7234 121.926 72.7545 121.81 72.7665C120.753 72.9245 119.74 72.7521 118.758 72.3282C117.777 71.9043 116.767 71.4947 115.775 71.0756C115.712 71.0397 115.657 70.9942 115.606 70.9415L118.524 70.3811C118.188 70.8601 118.079 71.3295 118.452 71.8181L119.138 70.9032C119.27 71.1618 119.339 71.4899 119.465 71.5139C119.849 71.5905 119.773 71.8612 119.801 72.1078C119.826 72.2204 119.863 72.3306 119.912 72.436C120.331 72.0552 120.672 71.6145 121.328 71.8612C121.282 71.7486 121.242 71.6312 121.212 71.5115C121.182 71.3103 121.034 71.0756 121.286 70.9319C121.585 70.7643 121.613 71.1714 121.808 71.2385C121.831 71.2457 121.843 71.2983 121.852 71.3319C121.977 71.7606 122.1 72.1845 122.241 72.6802ZM59.7601 30.7491C60.0128 30.6389 60.1263 30.3251 60.4022 30.5072C60.423 30.5191 60.5111 30.4569 60.5482 30.4138C60.729 30.2054 60.9445 30.2389 61.174 30.294C61.568 30.3922 61.9643 30.4784 62.3792 30.5742L62.5229 31.2927C60.773 31.6472 59.0741 31.64 57.4471 30.8473C57.4077 30.4066 57.3729 30.0018 57.3358 29.5707C57.7043 29.621 57.4517 29.942 57.5467 30.1096C57.6649 30.318 57.6788 30.5886 57.9315 30.7275C58.1238 30.3611 58.3092 30.009 58.5248 29.5971L58.8725 30.0425L59.0787 29.7623L59.7601 30.1814V30.7491ZM50.7094 29.1133C50.8416 28.766 51.2124 28.6223 51.4812 28.3732C51.5716 28.287 51.7455 28.2966 51.8892 28.2607C51.9031 28.5744 51.9123 28.8091 51.9239 29.0869L52.3249 28.79L53.3841 29.1372C53.2937 29.4989 53.2265 29.8964 53.5093 30.2677L54.2162 29.3983C54.6936 29.7575 55.0969 30.1934 55.426 30.7012C55.0899 30.6772 54.8141 30.6509 54.543 30.6365C53.8222 30.5982 53.15 30.3898 52.5242 30.0162C51.9517 29.6833 51.3422 29.427 50.7071 29.1133H50.7094ZM44.1318 48.0168L44.7622 47.4732L44.1549 47.284C44.3566 46.6421 44.4841 46.6062 44.9105 47.0277L45.1145 46.7618L47.5597 48.7281C46.3243 48.5653 45.1585 48.7377 44.1294 48.0168H44.1318ZM88.7386 27.5973C88.6297 27.0752 88.5254 26.5986 88.6157 26.0956L89.1187 26.2226C89.0909 25.8801 89.0654 25.5831 89.0422 25.2933C90.0133 25.0778 90.0365 25.0562 90.0991 24.4144C90.3077 24.5006 90.565 24.5389 90.704 24.6898C90.8709 24.8694 91.2185 24.6107 91.2742 24.9772C91.2185 25.0131 91.1768 25.0418 91.1328 25.0706C91.1027 25.0873 91.0725 25.1185 91.0424 25.1185C90.3401 25.1185 89.9276 25.425 89.6889 26.1603C89.5104 26.6752 89.0816 27.0919 88.734 27.5997L88.7386 27.5973ZM100.995 54.2485C100.026 54.6605 99.0548 54.5814 98.072 54.5048C98.3641 53.6043 98.4081 53.3815 98.9899 53.3504C99.2564 53.9444 99.7617 53.9587 100.306 53.8725C100.343 53.736 100.383 53.5995 100.448 53.36L100.995 54.2485ZM74.1509 15.8188C73.9145 15.8547 73.7823 15.9218 73.7151 15.8787C73.342 15.632 72.9804 15.359 72.6189 15.0907C72.5771 15.0548 72.5516 15.0093 72.5424 14.9542C72.4844 14.5734 72.4334 14.1926 72.3732 13.7471L73.9747 13.3711C73.9909 13.4047 74.0049 13.4406 74.0188 13.4765C73.6224 13.6011 73.3003 13.8118 73.1473 14.2573L73.4301 14.3818C73.3791 14.4417 73.291 14.4992 73.284 14.5662C73.233 15.1506 73.7198 15.3997 74.1509 15.8188ZM99.3676 27.3386C99.4024 26.9913 99.4349 26.6848 99.4696 26.3471L100.413 26.7255C100.547 26.5363 100.207 26.2369 100.61 26.122C100.652 26.2896 100.693 26.4477 100.744 26.6489L101.148 26.3543L101.903 26.7518C101.512 27.044 100.033 27.3817 99.3676 27.3386ZM64.3747 30.7395L64.836 30.4976C64.8267 30.979 64.5207 30.9814 64.3006 31.046C64.0317 31.1131 63.7582 31.161 63.4847 31.1897C63.239 31.2257 62.9934 31.2448 62.6689 31.2783C62.7361 31.1418 62.8103 31.0125 62.896 30.8904C63.0559 30.7036 63.2692 30.5527 63.3897 30.3443C63.5079 30.1336 63.5357 29.8725 63.6168 29.5851C63.8857 29.9946 64.1291 30.3659 64.3747 30.7395ZM48.3152 27.9589C48.4914 27.8966 48.6026 27.832 48.7718 28.026C49.0013 28.287 49.2655 28.5624 49.6503 28.5984C49.9029 28.6223 49.8867 28.7995 49.8681 29.0343C49.3884 28.984 48.9202 28.8738 48.4682 28.699C48.3639 28.6343 48.3037 28.5409 48.2851 28.4164C48.2619 28.2703 48.3013 28.1122 48.3152 27.9613V27.9589ZM93.9511 23.7773C94.3382 23.9449 94.3034 24.1725 94.1366 24.4479H93.4389C93.3277 24.2683 93.2095 24.0791 93.0519 23.8228L93.724 23.7366C93.7588 23.8923 93.7819 23.9833 93.819 24.1413C93.877 23.9809 93.9094 23.8875 93.9511 23.7773ZM70.6604 14.0537C71.3766 13.4382 71.7219 13.3352 72.4056 13.534C72.2434 13.9435 71.9444 13.6657 71.7173 13.6561C71.6918 13.8046 71.6709 13.9172 71.6477 14.0513L70.6604 14.0537ZM33.2338 36.3533C33.2733 36.5497 33.2732 36.6575 33.3127 36.7509C33.4911 37.1724 33.4958 37.17 33.1226 37.4837L32.7379 37.1748L33.2338 36.3533ZM26.0721 50.5603C25.9284 50.3543 26.0466 50.2681 26.1138 50.1436C26.2251 49.9376 26.3386 49.7604 26.5889 49.8538C26.8184 49.94 26.7859 50.1579 26.7628 50.3543C26.7442 50.4118 26.7187 50.4621 26.6863 50.51L26.0721 50.5603ZM33.0901 24.1174C32.5548 23.7869 32.7541 23.3151 32.6451 22.8744L33.512 23.4133L33.0392 23.4348C33.0554 23.6432 33.067 23.8515 33.0901 24.1174ZM91.6914 48.4359L91.3275 48.6826C91.1467 48.4264 90.9868 48.2036 90.8245 47.9785C91.4318 47.8372 91.4318 47.8372 91.6914 48.4359ZM26.7442 30.0306L26.8045 29.9899L27.7223 30.3611L27.5323 31.1059C27.2286 31.0197 27.37 30.6988 27.2263 30.5455C27.0687 30.373 26.9088 30.203 26.7489 30.0306H26.7442ZM31.6647 76.1051L31.1386 76.7134L30.7377 76.3374C31.0088 76.0524 31.2522 75.8392 31.6671 76.1051H31.6647ZM111.589 55.2257C111.652 55.379 111.716 55.4748 111.723 55.573C111.735 55.7119 111.684 55.858 111.696 55.9969C111.744 56.519 111.661 56.5884 111.183 56.4208L111.589 55.2257ZM105.35 39.8979C105.371 39.7374 105.387 39.6152 105.403 39.4931C105.461 39.0141 105.535 38.983 105.989 39.2464C105.92 39.3829 105.792 39.4668 105.806 39.6799C105.832 39.9122 105.639 40.0439 105.354 39.8979H105.35ZM31.3495 24.7089C31.1595 24.8407 30.9231 24.9341 30.9231 25.0251C30.9231 25.2239 30.8767 25.3029 30.7099 25.2478C30.5105 25.1807 30.5105 24.9868 30.6264 24.867C30.733 24.7616 30.682 24.7089 30.6565 24.6107C30.6334 24.5149 30.6519 24.4144 30.6519 24.2371L31.3495 24.7089ZM5.66226 83.472C5.44672 83.5271 5.24275 83.3259 5.25203 83.2517C5.30765 82.9379 4.99939 82.9164 4.87656 82.72C5.157 82.6146 5.31923 82.8182 5.49074 82.8541C5.55795 83.0744 5.61128 83.2612 5.66922 83.472H5.66226ZM92.9012 42.0342C93.3648 42.0006 93.3856 42.0414 93.2466 42.6305H92.9012V42.0342ZM36.2654 32.8662C36.671 33.1105 36.5181 33.4985 36.5181 33.8338C36.5181 34.1236 36.3581 34.0182 36.2654 33.9775V32.8662ZM109.957 28.0427L110.21 27.7146C110.242 27.8775 110.263 27.9733 110.282 28.0619L109.491 28.3397C109.577 28.129 109.626 27.9924 109.691 27.8248L109.957 28.0427ZM103.544 38.1998C103.349 38.4058 103.18 38.492 102.969 38.3291C102.84 38.2333 102.701 38.1543 102.84 37.946L103.544 38.1998ZM122.969 72.0863C123.022 72.2947 123.092 72.4216 123.059 72.4695C122.92 72.6611 122.723 72.7042 122.399 72.6323L122.969 72.0863ZM121.282 23.8683L121.351 23.9952L120.758 24.4215C120.786 24.1868 120.8 24.0743 120.816 23.9521L121.282 23.8683ZM103.954 6.45685C103.934 6.28201 103.913 6.11676 103.892 5.93474C104.133 5.93474 104.27 5.99701 104.277 6.22214C104.281 6.39697 104.202 6.48798 103.954 6.45685ZM133.427 76.3757C133.294 76.0452 133.482 75.9326 133.64 75.8009C133.742 75.7123 133.832 75.6404 133.925 75.8177L133.427 76.3757ZM37.5379 32.95L37.612 32.8159C37.7325 32.8638 37.8994 32.8782 37.9597 32.9692C38.0547 33.1105 38.0084 33.271 37.7719 33.3165L37.5379 32.95ZM47.3418 46.2709C47.3719 46.3811 47.3974 46.4625 47.4137 46.5487C47.4276 46.6325 47.4322 46.7283 47.4461 46.8912L46.8759 46.4122L47.3418 46.2709ZM72.3013 26.3854V26.8309L71.7659 26.9674L71.7312 26.8908L72.3013 26.3854ZM30.8999 74.3926C30.6774 74.7112 30.4178 74.8405 30.339 74.6633C30.3691 74.5771 30.4039 74.4765 30.441 74.3687L30.8999 74.3926ZM38.6156 50.5842C38.5831 50.6178 38.553 50.6513 38.5206 50.6872C38.4325 50.5818 38.2911 50.4908 38.2702 50.3735C38.2424 50.2346 38.3398 50.1004 38.5553 50.134L38.6156 50.5842ZM114.308 50.8357C114.192 51.092 114.122 51.2404 114.055 51.3913H113.941C113.911 51.2404 113.858 51.0872 113.867 50.9411C113.874 50.9052 114.092 50.886 114.312 50.8357H114.308ZM102.499 52.7469C102.543 52.4499 102.555 52.22 102.842 52.0739C102.837 52.3685 102.972 52.6607 102.501 52.7493L102.499 52.7469ZM101.783 38.7938C101.614 39.0333 101.474 39.1961 101.206 38.9926C101.298 38.5782 101.542 38.7674 101.785 38.7938H101.783ZM116.477 54.3132C116.797 54.0593 116.975 54.0617 117.179 54.2868L116.813 54.5695L116.477 54.3132ZM117.17 69.4063C116.964 69.3895 116.771 69.6003 116.542 69.4327C116.887 69.1141 116.955 69.1069 117.17 69.4063ZM24.7371 65.4091C24.8877 65.9384 24.8831 65.9432 24.3848 65.9743C24.5053 65.7755 24.6027 65.6199 24.7371 65.4091ZM29.9357 28.5912L30.0702 28.8953C29.894 28.9528 29.7596 29.1301 29.5139 28.9888L29.9357 28.5912ZM107.431 10.1954C107.466 9.98464 107.498 9.79304 107.538 9.54636C107.767 9.9583 107.767 9.9583 107.433 10.1954H107.431ZM110.393 12.4084L110.979 12.6095L110.47 12.8658C110.442 12.6934 110.421 12.5784 110.393 12.4084ZM119.587 28.1697L119.662 28.0499L120.165 28.196L119.729 28.5193C119.673 28.3852 119.629 28.2774 119.587 28.1697ZM131.035 67.3874C131.049 67.2508 131.058 67.1526 131.072 67.0066L131.602 67.3945L131.572 67.4712L131.035 67.3874ZM119.974 57.5201L119.363 57.6039C119.363 57.5368 119.326 57.4362 119.353 57.4123C119.513 57.2734 119.685 57.2614 119.974 57.5201ZM92.1526 24.6515C92.0692 24.479 92.0645 24.3545 92.2383 24.2946C92.3867 24.2467 92.5049 24.2898 92.5396 24.4694C92.5466 24.4958 92.5281 24.5317 92.5142 24.5844L92.1526 24.6515ZM107.491 55.8963L107.897 56.0328L107.572 56.4328C107.538 56.198 107.517 56.0735 107.491 55.8963ZM57.556 43.634L57.4679 43.5574C57.512 43.4616 57.5328 43.3131 57.6023 43.2819C57.7368 43.2269 57.8619 43.282 57.8689 43.4927L57.556 43.634ZM120.415 28.1194C120.663 27.8775 120.663 27.8775 121.027 28.2846L120.415 28.1194ZM20.6394 71.6528C20.7112 71.9186 20.6394 72.0432 20.4354 72.0168C20.3682 72.0073 20.3149 71.8803 20.2314 71.7797L20.6394 71.6528ZM6.67511 77.5372C6.98105 77.5708 6.97873 77.7241 6.86284 78.0306C6.77708 77.7959 6.72609 77.6642 6.67511 77.5325V77.5372ZM82.6105 4.10019L82.4923 3.94213L82.8238 3.73616C82.8585 3.78645 82.8863 3.84154 82.9072 3.89902C82.8122 3.97326 82.7125 4.04032 82.6105 4.10019ZM110.215 12.0084L109.872 11.5893L110.374 11.6851C110.372 11.7306 110.363 11.7785 110.349 11.8216C110.307 11.8863 110.263 11.9485 110.215 12.0084ZM29.5765 60.5258C29.296 60.7006 29.296 60.7006 29.1106 60.3773L29.5765 60.5258ZM114.016 28.6487C113.911 28.3469 114.032 28.2918 114.287 28.3804L114.016 28.6487ZM104.81 37.5628L105.113 37.0933C105.139 37.4071 105.134 37.5628 104.81 37.5628ZM123.986 60.1378L124.482 60.042L124.302 60.43L123.986 60.1378ZM58.847 36.4826C58.8748 36.8993 58.7403 36.9281 58.446 36.794L58.847 36.4826ZM47.467 45.6626C47.3464 45.9523 47.3464 45.9523 47.1031 45.7512L47.467 45.6626ZM104.439 7.50345L104.381 7.59685L104.107 7.4795L104.263 7.18252L104.439 7.50345ZM12.6293 56.4974L12.7128 56.4016L13.0094 56.7058L12.8982 56.8159C12.8101 56.7058 12.7197 56.6004 12.6293 56.4974ZM5.75729 84.5761L5.60664 84.5282C5.60664 84.3869 5.53709 84.212 5.86621 84.1641C5.82217 84.3318 5.78973 84.4563 5.75729 84.5761ZM53.6136 11.9916C53.4629 11.7186 53.4165 11.5797 53.7364 11.4168C53.6924 11.6348 53.6669 11.7569 53.6136 11.9916ZM72.5586 10.7391L72.9202 10.4205C72.9619 10.6864 72.9619 10.6864 72.5632 10.7343L72.5586 10.7391ZM101.027 52.2942C101.145 52.002 101.145 51.9973 101.287 52.0212C101.349 52.0428 101.41 52.0715 101.468 52.1074L101.027 52.2942ZM6.87674 72.1055C6.89297 72.0623 6.90919 72.0192 6.92542 71.9785C7.05057 71.9713 7.19427 71.9282 7.22208 72.2324L6.87674 72.1055ZM100.937 38.4106L100.552 38.3651L100.749 38.0585C100.807 38.1735 100.846 38.2453 100.937 38.4106ZM101.389 5.10369L101.282 5.1444C101.25 5.051 101.22 4.9552 101.187 4.86419L101.291 4.82587C101.324 4.91688 101.356 5.01028 101.389 5.10369ZM34.3371 36.3844C34.5897 36.4084 34.6732 36.4922 34.4646 36.6766C34.4159 36.5569 34.3765 36.4683 34.3371 36.3796V36.3844ZM55.1803 35.3809C55.2058 35.4145 55.2313 35.4456 55.2591 35.4791L54.981 35.733L54.93 35.6755L55.1803 35.3809ZM27.9773 30.1264C27.8498 30.0186 27.7756 29.9851 27.7571 29.9324C27.7501 29.8629 27.7571 29.7959 27.7779 29.7288L27.8614 29.724C27.8938 29.8198 27.9216 29.9204 27.9773 30.1216V30.1264ZM57.1991 29.2211L57.2756 29.3336C57.2107 29.3815 57.1411 29.427 57.0693 29.4654C57.0577 29.4701 57.0113 29.3935 56.9835 29.3528L57.1991 29.2211ZM117.495 54.8545C117.506 55.1945 117.506 55.1945 117.263 55.1658L117.495 54.8545ZM92.6324 43.6101L92.542 43.555L92.6277 43.3083L92.8966 43.452L92.6324 43.6101ZM58.6708 43.7059C58.6615 43.6604 58.6546 43.6125 58.6453 43.5693L58.9072 43.4927L58.9327 43.6891L58.6708 43.7059ZM26.7558 51.729C26.9551 51.6093 26.9551 51.6093 27.0896 51.8057L26.7558 51.729ZM115.861 49.0802V48.9628C115.923 48.9413 115.986 48.9341 116.048 48.9413C116.111 48.9604 116.16 49.0275 116.308 49.1448L115.861 49.0802ZM15.7536 56.7058C15.8162 56.6507 15.8695 56.586 15.8811 56.5956C15.9321 56.622 15.9668 56.6627 15.9877 56.7178C15.9947 56.7489 15.9367 56.7944 15.9066 56.8327L15.7536 56.7058ZM108.884 56.3034L108.854 56.3801L108.604 56.2867L108.636 56.198L108.884 56.3034ZM19.0656 55.7981L18.7945 55.9274C18.8408 55.6616 18.8408 55.6616 19.0703 55.8005L19.0656 55.7981ZM14.02 55.4005L13.9852 55.2975L14.2378 55.2065C14.2471 55.2401 14.2587 55.2712 14.2703 55.3047L14.02 55.4005ZM28.3713 48.3569L28.5011 48.3114C28.5196 48.4 28.5405 48.4814 28.5521 48.5653C28.5242 48.5796 28.4964 48.5916 28.4686 48.5964C28.4315 48.5174 28.4014 48.4383 28.3713 48.3569ZM105.021 27.0129C105.118 26.8045 105.234 26.7135 105.375 26.9602L105.021 27.0129ZM7.62537 69.7368L7.50948 69.7033L7.60451 69.4518L7.6949 69.4854C7.67172 69.5692 7.64854 69.653 7.62537 69.7368ZM58.9235 44.5561C59.1761 44.4435 59.1761 44.4435 59.3754 44.7141L58.9235 44.5561ZM28.464 54.6868L28.3527 54.5431C28.4385 54.4952 28.5219 54.4425 28.6054 54.3994C28.6123 54.3994 28.6656 54.4641 28.661 54.4689C28.5984 54.5455 28.5312 54.615 28.464 54.6868ZM89.0167 21.9044L89.0955 21.9356L88.975 22.1822L88.9356 22.1679L89.0167 21.9044ZM73.9886 14.3363C74.0234 14.3818 74.0721 14.4177 74.0721 14.4513C74.0721 14.4872 74.0025 14.5471 73.9886 14.5399C73.9399 14.5087 73.8982 14.4728 73.8612 14.4321L73.9886 14.3363ZM101.481 39.4955L101.461 39.4308L101.713 39.3135L101.755 39.4476L101.481 39.4955ZM20.644 70.017C20.644 70.0577 20.644 70.0985 20.644 70.1392C20.5606 70.132 20.4771 70.1296 20.3937 70.1128C20.3821 70.1128 20.3798 70.0506 20.3728 70.017H20.644Z" fill="black"/>
</svg>
