<svg width="128" height="111" viewBox="0 0 128 111" fill="none" xmlns="http://www.w3.org/2000/svg">
<path d="M125.379 78.8154L125.163 79.4568C125.798 79.2422 126.281 79.3145 126.58 79.9909C126.023 79.8989 125.483 80.363 124.993 79.8201C124.69 80.015 124.385 80.1923 124.002 80.0828C124.178 79.5706 124.72 79.1569 124.375 78.5045L123.911 78.881C123.697 78.4695 123.625 78.0317 123.695 77.5698L123.258 77.7033C123.36 78.1521 123.343 78.5768 122.926 78.9204L122.695 78.4388L122.466 78.7169C122.241 78.2528 121.78 78.2287 121.407 78.0711C121.396 77.9507 121.386 77.839 121.371 77.6639C120.875 78.4082 120.875 78.4082 120.381 78.4848C120.428 78.2002 120.492 77.92 120.568 77.642C120.676 77.3115 120.401 77.1232 120.373 76.7379L120.062 77.2348C120.119 77.607 120.216 77.9091 120.195 78.2024C120.176 78.4585 119.987 78.6774 119.708 78.8154L119.632 78.5702L119.415 78.6512C119.348 78.4761 119.278 78.3009 119.185 78.0667C118.896 78.3841 118.61 78.6227 118.189 78.5527L118.598 77.5063L118.538 77.4669L118.269 77.8303C118.221 77.7493 118.187 77.6946 118.157 77.6398C118.005 77.3574 117.788 77.1407 117.466 77.1101C117.197 77.0838 116.935 76.9743 116.661 77.2108C116.422 77.4165 116.1 77.3771 115.803 77.1954L116.308 76.7773L116.053 76.4796L116.295 76.1994C116.151 75.9915 116.037 76.0724 115.892 76.1885C115.568 76.449 115.215 76.4818 114.825 76.3067L115.306 75.7134C114.941 75.6171 114.657 75.6018 114.344 75.7441C114.005 75.8973 113.666 75.7704 113.329 75.4639C113.831 75.442 113.833 74.9932 114.052 74.7065L113.395 74.4832L113.963 73.9381C113.496 73.7148 113.535 74.3409 113.219 74.3256C113.162 74.122 113.105 73.9096 113.033 73.6426C112.696 73.8943 112.412 73.7323 112.103 73.6141C112.422 73.1829 112.17 72.7451 112.158 72.3029L112.035 72.2832C112.001 72.3685 111.978 72.4561 111.965 72.548C111.965 73.2639 111.728 73.5616 111.031 73.7104C110.995 73.5813 110.925 73.4521 110.927 73.3208C110.927 72.8436 110.918 72.7954 110.325 72.4933L109.774 73.1697C109.702 72.8611 109.649 72.6356 109.582 72.3379C109.285 72.6334 109.253 73.0647 108.844 73.1873C108.823 73.0537 108.802 72.9202 108.783 72.7998C108.533 72.5415 108.116 72.9268 107.929 72.4955C107.861 72.7232 107.802 72.9202 107.732 73.1479L106.931 72.2153C106.662 72.605 106.417 73.0209 105.879 72.9859C105.955 72.5809 106.037 72.2022 106.109 71.8213C106.152 71.5914 106.118 71.3878 105.855 71.2915C105.944 71.0792 106.103 70.8712 105.817 70.6414C105.715 70.9259 105.654 71.2083 105.518 71.4426C105.366 71.7162 105.08 71.7994 104.741 71.7797C104.811 71.5914 104.874 71.4229 104.949 71.2302L104.347 71.0704L104.071 71.5345C103.91 71.4185 103.743 71.3134 103.572 71.2171C103.535 71.1974 103.447 71.2959 103.347 71.3638C103.821 71.6461 104.158 71.992 103.987 72.64C103.694 72.443 103.4 72.2657 103.135 72.0511C103.033 71.9723 102.987 71.8147 102.932 71.6768C102.822 71.4229 102.684 71.3835 102.472 71.5652C102.146 71.8497 101.824 72.1387 101.491 72.4167C101.394 72.4824 101.29 72.5371 101.18 72.5809C101.18 72.3795 101.201 72.2153 101.176 72.0599C101.123 71.7468 101.044 71.4404 100.976 71.1427C100.767 71.0485 100.631 71.1317 100.502 71.2784C100.404 71.3944 100.286 71.4732 100.144 71.517C100.002 71.5586 99.8621 71.5608 99.7201 71.517C99.5994 71.4863 99.2943 71.5586 99.4808 71.2171C99.5041 71.1755 99.3282 71.0179 99.2583 70.9303L98.6249 70.7815C98.7012 70.5078 98.4067 70.4531 98.3474 70.2648C98.2775 70.0503 98.2245 69.8314 98.161 69.6037C97.4025 69.3651 97.2627 69.201 97.2564 68.4742C97.7288 68.704 98.0826 68.2531 98.5338 68.2662C98.4236 67.986 98.2457 67.7146 98.2266 67.43C98.2076 67.1454 98.3453 66.8696 98.4109 66.6003L98.824 66.5609C98.8622 66.9812 99.2562 66.944 99.5062 67.1191C99.1545 66.712 99.3261 66.1319 99.0168 65.7028C98.8706 65.5014 98.9829 64.9191 99.1333 64.582C99.2964 64.8447 99.5083 64.9739 99.8578 64.8491C99.6735 64.6214 99.4617 64.4266 99.2244 64.2646C98.4787 63.7939 97.7394 63.3123 96.9894 62.8483C95.9429 62.1981 94.8858 61.5611 93.8329 60.9197C93.2313 60.5432 92.5852 60.2761 91.8967 60.1207C91.1128 59.9521 90.4688 59.5253 89.8651 58.9911C89.0685 58.2884 88.2614 57.5945 87.4182 56.9531C86.573 56.3117 85.5688 55.9396 84.6155 55.4908C84.4291 55.4054 84.2787 55.4798 84.1156 55.5477C83.3805 55.8651 82.6178 56.084 81.8276 56.2044C80.0968 56.443 78.4254 56.2219 76.8662 55.4098C75.9447 54.9348 75.0867 54.3284 74.2012 53.7811C73.5868 53.4024 72.9937 52.9799 72.356 52.6559C70.4028 51.6621 68.439 50.6967 66.4688 49.7401C65.4901 49.2651 64.4902 48.8426 63.5029 48.3894C62.5136 47.9385 61.501 47.7656 60.4354 47.9823C59.0478 48.2625 57.6581 48.5383 56.3341 49.0702C55.4147 49.438 54.6054 49.9568 54.0504 50.8456C53.8322 51.1696 53.5886 51.4738 53.3216 51.7562C52.7814 52.3604 52.4171 53.0609 52.2243 53.8577C52.076 54.4597 51.8324 55.0377 51.6353 55.6265C51.5209 55.968 51.4044 56.3073 51.3091 56.6532C51.1333 57.2683 50.9596 57.8834 50.8091 58.5051C50.7583 58.7219 50.7731 58.9561 50.7689 59.1816C50.7519 60.2148 51.0125 61.2283 50.9235 62.2791C50.86 63.0081 50.9553 63.7545 51.021 64.4879C51.0401 64.7002 51.2011 64.8994 51.2921 65.1052C51.4171 65.3854 51.5887 65.6568 51.6544 65.9502C51.7858 66.6003 52.0124 67.2111 52.3344 67.7846C52.5145 68.113 52.6501 68.4632 52.7369 68.8288C52.8302 69.1878 53.0123 69.5227 53.167 69.8621C53.2263 69.9956 53.3449 70.1072 53.381 70.2451C53.5483 70.9172 53.9656 71.3659 54.4804 71.7906C54.9041 72.1409 55.2918 72.4999 55.8172 72.6947C56.1349 72.8129 56.4188 73.0625 56.6836 73.2967C57.548 74.0629 58.5712 74.3562 59.6728 74.4022C59.8825 74.4022 60.0795 74.3475 60.2638 74.2424C60.8485 73.9162 61.4459 73.5988 61.9883 73.2026C62.7827 72.6269 63.522 71.9701 64.3016 71.3769C65.721 70.2977 67.3098 69.8292 69.0639 70.1116C70.0553 70.2714 71.0065 70.5888 71.9365 70.9785C72.8814 71.3747 73.7351 71.9504 74.6227 72.4583C75.2625 72.8239 75.9256 73.1391 76.5738 73.485C76.7645 73.5725 76.9403 73.682 77.1035 73.8133C77.7199 74.3803 78.33 74.9582 78.9253 75.5493C79.1245 75.7616 79.3003 75.9958 79.4486 76.2476C79.993 77.1057 80.6752 77.8434 81.3658 78.568C81.5289 78.7409 81.745 78.8635 81.9484 78.9905C82.8508 79.5531 83.7109 80.1748 84.446 80.9563C85.1303 81.683 85.4693 82.5959 85.7192 83.5656C85.948 84.4697 86.2234 85.3651 86.537 86.2407C87.0878 87.7687 88.2254 88.7559 89.5282 89.5768C90.6658 90.2949 91.92 90.7042 93.2016 91.0435C93.9685 91.2449 94.7566 91.4025 95.5023 91.6718C96.3094 91.9673 97.0954 92.3176 97.858 92.7203C98.5211 93.0662 98.8812 93.7317 99.2435 94.3775C99.718 95.2203 100.214 96.0499 101.076 96.5337C101.415 96.711 101.764 96.8643 102.122 96.9912C103.372 97.4684 104.626 97.9303 105.879 98.3988C105.984 98.4316 106.088 98.4732 106.186 98.528C107.08 99.1037 108.103 99.2832 109.094 99.5787C109.601 99.7276 110.082 99.9355 110.541 100.2C111.575 100.811 112.711 100.986 113.863 101.164C114.723 101.295 115.566 101.542 116.416 101.746C116.708 101.816 116.994 101.936 117.289 101.984C118.286 102.144 119.212 102.527 120.117 102.976C120.424 103.129 120.778 103.195 121.106 103.311C121.733 103.537 122.369 103.747 122.983 104.007C123.339 104.16 123.385 104.303 123.364 104.644C122.386 104.962 121.4 104.918 120.422 104.622C119.697 104.403 118.96 104.34 118.212 104.298C117.74 104.272 117.269 104.189 116.797 104.132C116.42 104.084 116.041 104.044 115.664 103.987C115.1 103.9 114.528 103.843 113.977 103.701C113.092 103.473 112.215 103.355 111.295 103.456C110.325 103.561 109.355 103.416 108.419 103.136C107.247 102.781 106.088 102.383 104.925 102.002C104.711 101.932 104.502 101.86 104.264 102.033C104.614 102.676 104.76 103.366 104.83 104.088C104.881 104.592 104.985 105.128 105.368 105.483C106.116 106.183 106.792 106.989 107.775 107.378C108.217 107.553 108.649 107.764 109.077 107.974C109.283 108.075 109.44 108.23 109.44 108.504C109.44 108.749 109.361 108.946 109.132 108.992C108.808 109.068 108.482 109.101 108.149 109.092C107.253 109.04 106.484 108.65 105.792 108.07C105.622 107.928 105.408 107.842 105.213 107.731C104.468 107.297 103.726 106.857 102.978 106.431C102.26 106.004 101.493 105.859 100.678 105.995C99.6968 106.155 98.805 105.929 97.9194 105.498C97.5 105.294 97.0043 105.224 96.5382 105.181C95.9302 105.115 95.354 105.012 94.8159 104.684C93.8965 104.128 92.8796 103.876 91.8373 103.723C91.3776 103.657 90.9243 103.591 90.4731 103.497C90.2888 103.449 90.1172 103.372 89.9583 103.263C89.2232 102.803 88.5008 102.324 87.7678 101.866C86.9712 101.367 86.0857 101.113 85.0943 100.82C85.5307 101.231 85.8824 101.571 86.2446 101.899C86.5285 102.164 86.7552 102.477 86.9225 102.836C87.289 103.552 87.7614 104.189 88.3355 104.741C88.9435 105.345 89.5706 105.927 90.2146 106.487C90.6171 106.851 91.0811 107.096 91.6001 107.221C91.9221 107.308 92.2356 107.418 92.5407 107.553C92.7356 107.634 92.8775 107.807 92.7801 108.015C92.7292 108.129 92.528 108.236 92.4009 108.228C91.8797 108.201 91.3628 108.14 90.8501 108.046C90.2294 107.919 89.6236 107.726 89.005 107.569C88.5474 107.459 88.147 107.236 87.8059 106.899C86.8865 105.977 85.8252 105.301 84.5689 105.014C84.1029 104.909 83.6304 104.878 83.1559 104.922C82.4293 104.988 81.7153 105.172 80.9908 105.251C80.4083 105.312 79.8193 105.292 79.2325 105.316C78.8491 105.329 78.4656 105.316 78.097 105.384C77.4255 105.5 76.7624 105.669 76.0951 105.811C75.7667 105.883 75.4489 105.914 75.1142 105.785C74.5973 105.588 74.0825 105.717 73.5741 105.879C73.3474 105.955 73.1144 106.001 72.8771 106.012C72.5255 106.021 72.3539 105.818 72.3687 105.456C72.3751 105.299 72.4047 105.132 72.4238 104.973C72.2331 104.734 71.9789 104.773 71.7522 104.813C71.0002 104.935 70.2587 105.084 69.5617 105.439C68.3352 106.061 67.0196 106.463 65.6659 106.409C64.4245 106.36 63.3547 106.772 62.3145 107.319C60.571 108.236 58.7195 108.696 56.7938 108.889C56.3129 108.937 55.8214 108.878 55.3511 108.869C55.2749 108.644 55.402 108.578 55.5185 108.534C56.1879 108.282 56.8298 107.958 57.5628 107.923C58.5669 107.877 59.2999 107.54 60.0943 106.811C59.7956 106.601 59.4525 106.645 59.1347 106.617C58.2428 106.538 57.4166 106.757 56.6137 107.177C55.7663 107.624 54.8745 107.978 54.0144 108.401C53.4699 108.67 52.9488 109.014 52.3387 109.079C51.235 109.202 50.1927 109.679 49.0614 109.653C48.8326 109.648 48.5996 109.754 48.3729 109.837C47.981 109.983 47.5785 110.06 47.1633 110.064C46.8519 110.071 46.5426 110.174 46.2333 110.231C45.8604 110.303 45.4897 110.38 45.1168 110.432C45.0024 110.443 44.8986 110.417 44.8033 110.353C44.5893 110.211 44.6169 109.957 44.8584 109.865C45.0808 109.773 45.3117 109.708 45.549 109.67C46.4684 109.559 47.356 109.353 48.1886 108.895C48.6208 108.657 49.0974 108.508 49.5635 108.346C50.3431 108.072 50.9426 107.564 51.4807 106.932C51.8239 106.522 52.2031 106.146 52.5717 105.761C52.7433 105.599 52.8344 105.399 52.8471 105.159C52.8789 104.67 53.0356 104.228 53.3216 103.836C53.4572 103.639 53.5356 103.401 53.65 103.186C53.7644 102.974 53.8915 102.768 54.0334 102.532C53.095 102.306 52.1967 102.425 51.343 102.886C51.0485 103.051 50.7456 103.193 50.4342 103.315C49.6842 103.598 48.9131 103.451 48.1759 103.287C47.2565 103.081 46.3731 103.151 45.4939 103.41C44.2101 103.788 42.9052 103.907 41.579 103.762C41.0918 103.712 40.5833 103.874 40.0834 103.97C39.8207 104.033 39.5644 104.117 39.3165 104.224C37.9776 104.741 36.6621 104.544 35.3592 104.084C35.177 104.018 35.0139 103.92 34.8699 103.786C34.5245 103.469 34.5902 103.136 35.0012 102.889C35.6473 102.497 36.3634 102.333 37.0858 102.254C37.9692 102.155 38.861 102.157 39.7487 102.105C41.096 102.026 42.4433 101.956 43.7886 101.847C44.5385 101.785 45.2588 101.566 45.8901 101.12C46.0807 100.978 46.2587 100.818 46.4197 100.643C47.0086 100.047 47.534 99.397 48.2924 98.9877C49.3771 98.4076 50.4363 97.7705 51.4765 97.1094C52.2772 96.6016 53.0505 96.0543 53.7962 95.4654C55.2198 94.3359 56.8256 93.6244 58.5225 93.0815C59.1474 92.8911 59.7512 92.6437 60.3337 92.3394C60.7447 92.114 61.0985 91.8163 61.393 91.4441C61.7997 90.9341 62.1429 90.3824 62.4268 89.7914C62.8102 88.977 63.325 88.2809 63.9097 87.6264C64.2296 87.2652 64.5791 86.9302 64.9117 86.58C65.5685 85.8883 66.0112 85.0586 66.3883 84.1852C66.4646 84.0035 66.526 83.8174 66.6044 83.605C66.0578 82.6003 65.2782 81.8647 64.2635 81.3963C63.7487 81.1511 63.1958 80.9869 62.6535 80.8162C62.073 80.6323 61.4904 80.6958 60.9163 80.8687C60.7172 80.9278 60.5202 80.9869 60.3231 81.0526C59.9715 81.173 59.6135 81.1949 59.2512 81.1183C57.709 80.8008 56.1604 80.5316 54.6203 80.2098C54.2559 80.131 53.9063 79.9537 53.5653 79.7873C52.934 79.4808 52.3281 79.1153 51.6883 78.8351C50.8727 78.4717 50.1397 77.9923 49.5423 77.3137C48.7754 76.4402 48.034 75.5383 47.2798 74.6517C46.7269 74.0038 46.4769 73.207 46.2417 72.4036C45.9346 71.3528 45.9346 70.2583 45.8498 69.1791C45.7736 68.2268 45.5893 67.2855 45.5554 66.3355C45.5215 65.3591 45.3541 64.4113 45.2376 63.4503C45.1719 62.8899 45.2567 62.3032 45.3075 61.734C45.3901 60.8496 45.5109 59.9696 45.5977 59.0874C45.6253 58.8116 45.6528 58.5205 45.5977 58.2578C45.3753 57.2289 45.4939 56.2657 46.0045 55.3529C46.0363 55.296 46.0638 55.2369 46.0913 55.1778C46.0934 55.1449 46.0913 55.1121 46.0871 55.0792C45.9155 55.1405 45.7524 55.1865 45.5998 55.2566C44.3203 55.8454 43.1954 56.6641 42.2273 57.7127C42.0196 57.9404 41.812 58.168 41.6193 58.4088C40.4139 59.9237 38.9373 61.1145 37.3908 62.2222C36.2574 63.0321 34.9737 63.4481 33.6623 63.7983C32.8976 64.0019 32.1031 64.0917 31.3257 64.2318C29.8999 64.4901 28.4361 64.3106 27.0337 64.6893C26.4193 64.8556 25.8007 65.0067 25.1927 65.1971C23.2776 65.7904 21.3753 66.4252 19.547 67.2811C18.367 67.8328 17.1405 67.9904 15.8673 67.7518C15.5156 67.6905 15.5114 67.7102 15.2254 67.916C15.0262 67.4935 14.8822 67.4563 14.5348 67.7387C14.4585 67.7999 14.3822 67.8547 14.306 67.9094C14.2297 67.9663 14.1534 68.0167 14.0645 68.0736L14.1937 68.4326L13.753 68.4786C13.967 68.9492 14.1704 69.4023 13.8441 69.9015L13.3908 69.3629L12.9247 69.5206C12.948 69.3235 12.9671 69.1572 12.984 69.0127C12.8421 68.8638 12.607 69.2382 12.5561 68.8901L12.0286 69.5271C11.9354 69.0784 11.9185 68.6953 11.6113 68.3998C11.463 68.6493 11.5774 68.8157 11.677 68.9974C11.9333 69.468 11.8824 69.7986 11.5075 70.2473C11.3083 69.8818 11.1113 69.5184 10.9037 69.1353L10.1262 69.2141C10.247 69.5403 10.3741 69.8599 10.211 70.2889C9.86567 69.7898 9.15598 69.7811 9.08184 69.0893L8.5607 68.9032C8.21115 69.2425 7.88703 69.5709 7.54172 69.8752C7.47181 69.9365 7.32563 69.908 7.21336 69.9212C7.18158 69.8029 7.1498 69.6825 7.10743 69.5249L6.75577 69.7044C6.78543 69.9212 6.85957 70.0437 7.06294 70.035C6.97185 70.2386 6.88076 70.4443 6.77483 70.683C6.18802 70.5647 5.63722 71.066 4.95931 70.9435C5.08642 70.7552 5.17963 70.6151 5.27073 70.4794C5.03558 70.2123 5.03558 70.2123 4.05897 70.2692C4.02507 70.0678 3.94669 69.8861 3.82594 69.7263C3.70519 69.5665 3.55266 69.4439 3.37259 69.3629C2.95313 69.1418 2.60782 69.479 2.19049 69.4089C2.19049 69.8226 2.19049 70.2254 1.85153 70.4969C1.61639 70.6873 1.3537 70.7508 1.06135 70.6873C1.20964 70.3699 1.33675 70.0656 1.49563 69.7767C1.56131 69.6541 1.6757 69.5184 1.79434 69.479C2.15024 69.3629 2.17778 69.0258 2.38115 68.7106C2.05067 68.7456 1.7901 68.8157 1.538 68.7916C1.2626 68.7609 1.01262 68.6318 0.709684 68.6843C0.569866 68.7018 0.434284 68.68 0.307177 68.6187C0.180069 68.5552 0.0762646 68.4632 0 68.3407C0.256334 68.2027 0.491483 68.0451 0.747816 67.9488C0.991439 67.8569 1.25625 67.8306 1.54859 67.7671C1.44267 67.5154 1.61215 67.1892 1.29438 66.979C1.22235 67.0316 1.15244 67.0885 1.05711 67.1607C0.764764 66.8433 0.254215 66.7973 0.0466061 66.2873L0.461824 66.2479L0.972373 65.4708L1.07194 65.4927C1.09736 65.6415 1.12278 65.7882 1.16727 66.0356C1.32616 65.867 1.45114 65.7554 1.55071 65.624C1.61638 65.5364 1.4914 65.3416 1.69477 65.3197C1.8473 65.3022 2.00618 65.2869 2.16083 65.2847C2.27099 65.2956 2.37903 65.3132 2.48495 65.3416C2.40869 65.184 2.35361 65.0921 2.31124 64.9914C2.26887 64.8929 2.24133 64.7965 2.19684 64.6696C1.9511 64.9739 1.66087 65.2037 1.27108 65.1753C0.938478 65.1643 0.677907 65.0176 0.493601 64.7287L0.788067 64.6192L0.665196 64.3018L1.09736 64.2361C1.08677 64.0435 1.08889 63.8487 1.10372 63.656C1.12914 63.4897 1.2054 63.3299 1.27743 63.1197C1.44479 63.3715 1.56978 63.5553 1.69265 63.7392C1.85365 63.9844 2.05279 64.1092 2.35996 64.0741C2.46165 64.061 2.58028 64.2164 2.71587 64.3128C3.06753 64.177 3.24336 63.7699 3.15439 63.1197L5.20294 62.2769C5.28556 61.9967 5.38724 61.6574 5.49105 61.3159C5.67112 61.3882 5.88508 61.4079 5.91686 61.4976C6.02066 61.7778 6.19014 61.5239 6.3236 61.6005C6.34479 61.2962 6.26217 60.9722 6.49308 60.7008L6.90406 61.2108C7.13074 60.5169 7.61374 60.3593 8.22598 60.4074C8.30224 60.1251 8.37851 59.858 8.47596 59.5274L8.78102 59.4005L8.16878 58.9758C8.83821 58.8817 9.24072 58.1461 9.961 58.6124L9.62204 59.2472C9.87838 59.2232 9.97583 59.0086 10.1262 58.8839C10.2618 58.7569 10.3889 58.6234 10.5097 58.4811C10.5478 58.4854 10.6559 58.4986 10.7639 58.5205C11.2045 58.6037 11.249 58.5621 11.2533 58.0958C11.2533 57.8878 11.2787 57.6777 11.2872 57.4697C11.2977 57.172 11.3507 56.8918 11.677 56.6948C11.2744 56.5087 10.8974 56.3905 10.7512 55.9308L11.1262 55.8629C11.0202 55.5368 10.9101 55.2128 11.0753 54.8669L11.6282 55.3266L12.2744 54.289V53.6323C12.4883 53.803 12.6811 53.8774 12.8739 53.5841C12.9311 53.919 12.9756 54.1861 13.2955 54.2671L13.3781 54.0766C13.842 54.1423 14.3208 54.2146 14.7996 54.2802C14.9648 54.3043 15.0792 54.2365 15.0877 54.0416C15.0919 53.9125 15.0877 53.7833 15.0877 53.6016C15.2042 53.6432 15.2868 53.7023 15.3588 53.6914C15.4097 53.6826 15.4923 53.5316 15.4859 53.5316C15.3101 53.3564 15.4542 53.2776 15.577 53.1945C15.6851 53.1288 15.791 53.0587 15.8906 52.9799C16.0643 52.8311 16.238 52.691 16.4859 52.7326C16.5176 52.7413 16.5494 52.7413 16.5833 52.7326C16.6151 52.726 16.6426 52.7107 16.668 52.6888C16.6935 52.6669 16.7125 52.6406 16.7252 52.6078C16.7358 52.5771 16.7422 52.5443 16.738 52.5093C16.7231 52.402 16.6744 52.3144 16.5897 52.2488C16.4181 52.1262 16.2422 52.0124 16.06 51.9095C16.3587 51.7738 16.5854 51.6621 16.8227 51.5658C16.9667 51.5067 17.1277 51.4301 17.2739 51.441C17.4879 51.4541 17.6849 51.4651 17.8459 51.2768L17.6743 50.6508L18.2781 50.804L18.3056 50.712C18.062 50.5851 17.8226 50.4494 17.5726 50.3312C16.9286 50.0247 16.7846 49.4358 17.2252 48.7813C17.365 48.998 17.5154 49.1994 17.6383 49.4183C17.759 49.635 17.8586 49.8758 17.9878 50.1473C18.2442 50.1692 18.3861 49.9875 18.437 49.6635C18.6297 49.7905 18.795 49.9021 18.9602 50.0072C19.0958 50.0969 19.2504 50.1122 19.3437 49.9765C19.4114 49.8671 19.4305 49.751 19.403 49.6263C19.3288 49.3986 19.3373 49.1753 19.4242 48.9542C19.4729 48.7769 19.5068 48.5952 19.5258 48.4113L19.9728 48.6543C20.4325 48.6083 20.4643 48.118 20.7779 47.8706C20.8372 48.0348 20.8859 48.1793 20.9452 48.3194C21.0024 48.4595 21.0787 48.5821 21.1338 48.7178C21.1719 48.8076 21.2227 48.9104 21.21 49.0002C21.1401 49.4752 21.3859 49.8014 21.6951 50.1845C21.9494 49.9284 22.1845 49.6744 22.4366 49.4402C22.5934 49.3045 22.7565 49.1797 22.9281 49.0615C23.0446 48.9739 23.1632 48.8929 23.3009 48.7944L23.856 49.23C23.8856 48.928 23.9068 48.7025 23.928 48.4814C24.3051 48.7025 24.6419 48.9061 24.9851 49.0965C25.2499 49.2476 25.3474 49.4687 25.2753 49.7992C25.5147 49.8277 25.7668 49.7992 25.9617 49.8977C26.1439 49.9897 26.2689 50.2108 26.4363 50.3946C26.6523 50.2414 26.7519 50.04 26.7646 49.7532C26.7837 49.3286 26.968 49.1162 27.398 48.928C27.4108 49.0878 27.4213 49.2476 27.4341 49.4139C27.7285 49.4008 27.9827 49.1753 28.2772 49.3264L27.9425 49.9743L28.1903 50.3421L27.487 50.5522L28.5992 50.9791C29.0229 50.1298 29.4339 49.9765 30.1711 50.4078L29.5695 50.8631C29.6945 51.2024 29.8766 51.3644 30.2198 51.3578C30.5884 51.3513 30.8808 51.5351 31.0926 51.8854L30.5482 52.0233C30.5122 52.3582 30.7007 52.4195 30.9359 52.4546C30.9316 52.9799 31.3638 53.5447 30.7494 54C30.885 54.289 31.0948 54.3963 31.3977 54.4094C31.6689 53.9935 32.029 53.7089 32.5777 53.8118C32.4379 54.1161 32.2959 54.4028 32.173 54.6962C32.0269 55.053 31.707 55.1734 31.4083 55.3157C31.2261 55.4032 31.0609 55.4689 31.0439 55.7294C31.4846 55.898 31.9421 55.9593 32.4103 55.9111C33.1052 55.8454 33.7979 55.7403 34.4906 55.6484C34.7194 55.6178 34.8974 55.5324 35.0118 55.2916C35.3719 54.5407 35.7638 53.8074 36.124 53.0565C36.2172 52.8464 36.2765 52.6253 36.3019 52.3954C36.3867 51.7475 36.2468 51.5089 35.6622 51.2418C35.5901 51.209 35.5139 51.1805 35.4397 51.1521C34.7025 50.8675 34.014 50.5172 33.5373 49.8233C33.4314 49.6635 33.3085 49.4687 33.0649 49.681C33.0374 49.5321 33.0204 49.4249 33.0035 49.3351L32.2493 49.0812L32.7175 48.7485L32.7027 48.674H31.9951C31.8532 49.0593 31.9782 49.5672 31.4824 49.8036C31.4146 49.5059 31.2388 49.3877 30.9634 49.5102C30.9126 48.9871 30.4253 49.033 30.2114 48.7156L30.0313 48.9958L28.8683 48.245C28.6712 48.3084 28.6246 48.4704 28.5823 48.6543C28.5314 48.8251 28.4679 48.9914 28.3958 49.1534C28.148 48.9805 28.1967 48.4858 27.7539 48.6259C27.5823 48.3873 27.4065 48.1421 27.2159 47.8969C27.0273 47.6539 27.1798 47.238 26.7328 47.0913C26.6566 47.1548 26.4956 47.227 26.4278 47.354C26.1609 47.8553 25.7414 48.002 25.2224 47.9648C25.0487 47.7721 25.0487 47.7721 24.4958 47.5861C24.5148 47.5072 24.5339 47.4284 24.5635 47.2883C24.1187 47.5379 23.7162 47.5554 23.3094 47.2424C23.195 47.7853 22.8984 48.1049 22.3646 48.1859C22.4133 47.8444 22.4599 47.5204 22.515 47.1329C22.354 47.1898 22.2565 47.227 22.1591 47.2577C22.0616 47.2905 21.9133 47.389 21.8456 47.3496C21.5532 47.1811 21.263 47.3453 20.977 47.3496C21.0638 46.9644 21.1443 46.6075 21.2397 46.1829L20.6486 46.104C20.5406 46.5112 20.3732 46.8177 19.9601 46.9841C20.0766 46.4193 19.6296 45.8238 20.2271 45.4057C20.1635 45.1452 19.8563 44.946 20.2694 44.6899C19.8881 44.6899 19.6275 44.4819 19.3352 44.8059C19.1043 45.0642 18.5005 44.841 18.3162 44.4754C18.2251 44.2937 18.1997 44.077 18.1234 43.8033C18.5069 43.9172 18.7526 44.2193 19.1403 44.0879C19.064 43.9478 19.0026 43.8274 18.92 43.6742L19.1403 43.6151C19.1297 43.1597 19.5301 42.8883 19.6233 42.468L19.1636 41.8704C19.3394 41.7522 19.5089 41.6799 19.6191 41.553C19.7991 41.345 19.8733 41.1173 19.6508 40.8547C19.4602 40.627 19.4835 40.338 19.5661 40.0162C19.833 40.2133 20.0597 40.4519 20.3309 40.5679C20.6041 40.6839 20.8499 40.824 21.0109 41.113C21.0533 40.8109 20.9346 40.6007 20.799 40.3818C20.4919 39.8871 20.5745 39.4755 21.0596 39.0815C21.1867 39.5281 21.3075 39.9571 21.4367 40.4103C21.6422 40.3315 21.8519 40.2461 21.9155 39.9352C21.9642 39.6966 22.1464 39.55 22.4069 39.5106L22.5913 39.7557L23.0255 39.5171C22.7014 39.353 22.6082 39.11 22.6421 38.8101C22.6739 38.5386 22.7141 38.265 22.7417 38.0417H23.4577C23.4577 38.2146 23.4069 38.4292 23.4725 38.5977C23.5424 38.7772 23.7204 38.9151 23.892 39.1165L24.214 38.5255C23.9725 38.1555 23.8856 37.7615 24.1165 37.304L24.4661 37.7002L24.6801 37.1289C25.055 37.3915 25.1631 38.0286 25.8134 37.8753C25.6736 37.3281 25.6927 36.8487 26.2075 36.5093L26.6142 37.8731C26.7328 37.8337 26.8917 37.8272 26.9786 37.7418C27.1184 37.6039 27.2476 37.582 27.4319 37.582C27.7243 37.582 27.7836 37.4682 27.7582 37.1354C27.72 36.6341 27.8726 36.3692 28.3831 36.1153C28.3831 36.494 28.4107 36.8552 28.542 37.1901L28.6458 37.1836C28.6606 37.1048 28.7094 37.0172 28.6861 36.9559C28.4954 36.4546 28.5695 36.0321 28.9869 35.6841C29.0483 35.6315 29.0356 35.4805 29.0631 35.3601H29.3216C29.3343 35.1083 29.3491 34.8675 29.3661 34.5742L30.2834 35.29L30.4973 35.0383C30.0588 34.6858 29.7855 34.2765 29.9995 33.6898C30.0504 33.6898 30.0991 33.6833 30.1054 33.6964C30.3173 34.1233 30.6753 34.0029 30.9909 33.9197C31.2092 33.8606 31.4062 33.7095 31.5778 33.6176L32.5586 33.8321C32.6688 33.5147 32.6179 33.1732 32.8849 32.9302C32.9971 33.1141 33.1009 33.2827 33.2302 33.495C33.4526 33.1229 33.6327 32.7748 34.0203 32.6894C34.2809 32.6325 34.5563 32.6172 34.7915 32.8032C34.4356 33.2783 33.8445 33.5826 33.8212 34.248L35.2575 33.9022C35.2024 34.0839 35.1707 34.1867 35.1283 34.329L35.4821 34.4538C35.5647 33.9044 35.8655 33.6044 36.3803 33.4665C36.3549 33.6876 36.3316 33.8803 36.304 34.0882C36.7214 34.1539 37.0921 34.1736 37.4205 33.8759C37.4628 33.9284 37.4904 33.9613 37.5158 33.9963C37.5412 34.0291 37.5688 34.0685 37.6069 34.1189L37.7891 33.9766L39.022 33.9963L38.6577 34.421L38.9331 34.7231C39.2381 34.5873 39.5114 34.3662 39.7783 34.3706C40.1406 34.3794 40.541 34.1933 40.8524 34.4538L40.1088 35.2835C40.2719 35.5527 40.3778 35.8132 40.5579 35.9971C40.685 36.1306 40.9053 36.1876 41.0939 36.2357C41.5451 36.3495 42.0048 36.4371 42.5196 36.5466L42.2421 36.8771L42.8395 36.7107C42.7823 36.8968 42.7442 37.0303 42.7124 37.1332C42.884 37.3368 43.0641 37.5032 43.1827 37.7046C43.3628 38.0089 43.3373 38.0789 43.0619 38.3416L43.5216 38.8495C44.0301 38.6196 44.5004 38.6043 44.888 39.1319L43.3882 39.6507L43.7144 39.9112C44.1572 39.4909 44.4453 39.4383 44.9664 39.6944L44.047 40.5438C44.0174 40.7605 43.9856 40.9991 43.9453 41.2793C44.3881 41.2618 44.797 41.3603 45.0109 41.9164L44.5173 41.958C44.566 42.3191 44.6105 42.6585 44.6592 43.0284L45.2545 43.7245C44.9897 44.3068 44.7864 44.8388 44.8181 45.4845L44.4474 45.4473C44.4877 45.675 44.5237 45.8808 44.5533 46.0865C44.5597 46.1281 44.5194 46.1741 44.4898 46.2398L44.2186 46.1872C44.3139 46.7433 44.1656 47.1679 43.6763 47.4591C43.6 47.0672 43.5301 46.706 43.456 46.3339L42.6255 46.266L43.0852 45.7275C42.6954 45.7823 42.5217 46.0165 42.3607 46.2529C42.4306 46.4806 42.509 46.6907 42.5577 46.9096C42.6065 47.1285 42.5471 47.1811 42.3078 47.1439C42.2061 47.1285 42.1044 47.1176 41.9794 47.1045C41.687 47.3825 41.6807 47.3868 41.8502 47.7437C41.9836 48.0282 41.99 48.315 41.865 48.604C41.7803 48.8273 41.6574 49.0374 41.5388 49.2782L41.2019 48.7178L40.7168 49.7839C40.6215 49.5628 40.5685 49.4402 40.5028 49.2892L40.2423 49.449L39.8588 48.5886C39.772 48.6521 39.7148 48.6915 39.6597 48.7331C39.3695 48.9498 39.0665 49.0243 38.7212 48.8623C38.5983 48.8032 38.45 48.8032 38.3123 48.7769C38.1344 48.5777 37.9628 48.3741 37.7743 48.1837C37.7425 48.1508 37.6556 48.1705 37.5539 48.164C37.7276 48.5405 37.9543 48.7506 38.3187 48.766C38.4395 49.1272 38.7551 49.4336 38.5602 49.878C38.9881 50.1166 39.1131 50.5085 39.1746 50.9463C39.2127 51.2024 39.2678 51.4629 39.4817 51.6249C39.5326 51.6249 39.5749 51.638 39.5919 51.6249C40.0855 51.1761 40.6787 50.9638 41.3036 50.8062C41.5494 50.7383 41.7803 50.6332 41.9921 50.4888C42.5408 50.1254 43.0746 49.7357 43.6127 49.357C44.2334 48.9104 44.9198 48.6937 45.6761 48.7112C46.5807 48.7222 47.4874 48.6893 48.3602 49.0965C48.6737 48.4288 49.2415 48.0874 49.7965 47.7371C50.9617 47.0016 52.1332 46.2682 53.3238 45.5677C53.7538 45.3204 54.2071 45.1233 54.6796 44.9767C54.991 44.8782 55.2367 44.6877 55.4126 44.4053C55.6774 44.0157 55.9761 43.6523 56.2557 43.2758C56.6921 42.6891 57.3192 42.4877 57.9801 42.4636C60.1219 42.3761 61.5646 41.2093 62.5624 39.3464C62.8865 38.7444 63.1661 38.1161 63.4606 37.4944C63.7551 36.8749 63.6957 36.3036 63.2911 35.741C62.8992 35.1959 62.484 34.688 61.9183 34.3225C61.3781 33.97 60.7913 33.8518 60.1854 34.0138C59.5669 34.167 58.9652 34.3706 58.3826 34.6267C57.2111 35.1653 55.9782 35.4564 54.7368 35.7322C53.2708 36.0606 51.7921 35.9708 50.3198 35.9117C49.4004 35.8767 48.5763 35.4411 47.8433 34.8566C47.6675 34.7143 47.5022 34.5633 47.3433 34.3991C47.0277 34.0948 46.8476 33.7183 46.8074 33.2739C46.7989 33.1929 46.7947 33.1075 46.7947 33.0265C46.7904 32.4661 46.8519 31.897 46.7671 31.3519C46.6824 30.8046 46.4769 30.2771 46.2756 29.7626C46.1506 29.4058 45.9706 29.0818 45.7397 28.7885C45.4304 28.4339 45.0872 28.1186 44.7101 27.8428C44.208 27.4707 43.6593 27.1598 43.1488 26.7986C42.5027 26.3389 41.7951 26.1353 41.0282 26.2557C40.2613 26.3761 39.5093 26.2951 38.7487 26.2448C38.2869 26.2076 37.8272 26.2098 37.3675 26.2514C36.6494 26.3302 35.9418 26.2711 35.2448 26.0719C34.6305 25.888 34.0013 25.8114 33.3615 25.8464C32.5459 25.9033 31.7303 25.9383 30.8914 25.9821L30.6605 26.5469L29.8788 25.5487C29.7665 25.5946 29.65 25.6297 29.5313 25.6559C29.3767 25.6778 29.2729 25.6406 29.1479 25.4852C28.9869 25.2904 28.6797 25.0627 28.4848 25.1021C28.2899 25.1437 28.2179 24.9948 28.0421 25.0167C28.0378 25.1218 28.0293 25.2291 28.0293 25.3341C28.0293 25.5509 28.0251 25.7676 27.8493 25.9252C27.6734 26.0828 27.6946 26.2535 27.7582 26.4593C27.8006 26.652 27.809 26.8468 27.7794 27.0416C27.3747 26.6541 26.7286 26.6717 26.4765 26.0916L26.0549 26.212C26.1037 25.7544 26.1503 25.3232 26.2011 24.8613L25.8855 24.8285C25.5889 25.321 25.8791 25.8726 25.7054 26.3783L25.2796 26.131C25.0211 26.4768 24.7902 26.8096 24.5318 27.1204C24.2161 27.4991 23.7458 27.2474 23.3687 27.3941C22.9789 26.9387 22.443 26.6016 22.318 25.9274L22.2078 25.9536C22.1718 26.0937 22.1464 26.2338 22.1315 26.3783C22.1104 27.0657 21.7333 27.4729 21.0638 27.5035C21.085 27.3984 21.1062 27.2955 21.1338 27.1489L20.8202 27.4422C20.6529 27.1445 20.674 26.7045 20.1593 26.6804C20.3478 27.1029 20.4092 27.475 20.1084 27.8625L19.6741 27.2014C19.0174 27.2124 19.1276 27.324 19.0132 27.7968L17.9052 27.1117C17.7908 27.5079 17.6298 27.8581 17.2104 28.0376C17.1786 27.7618 17.1511 27.5144 17.1214 27.2649C17.0896 27.0175 17.0536 26.8008 17.1108 26.5447C17.1447 26.3915 16.954 26.1769 16.8418 26.0062C16.8248 25.9821 16.6723 26.0259 16.6045 26.0719C16.5685 26.0959 16.5685 26.1922 16.5642 26.2557C16.5176 26.7964 16.1977 27.0635 15.6766 27.2102C15.7041 27.0416 15.7274 26.9081 15.7529 26.7505L15.4648 26.6344C15.4648 26.5994 15.4542 26.5644 15.4648 26.5447C15.5325 26.433 15.6469 26.3345 15.6681 26.2163C15.7719 25.6537 16.1829 25.3429 16.5748 25.032C16.7189 24.9182 16.9498 24.9226 17.2188 24.8525L16.8651 24.5986L17.06 24.3293C16.8545 24.3491 16.5579 24.487 16.7422 23.9857C16.5219 24.0842 16.3672 24.1126 16.2677 24.2068C15.6533 24.7737 15.1089 24.719 14.6089 23.9857L14.8928 23.9134L14.8038 23.642C15.0961 23.5478 15.3821 23.4625 15.6618 23.3662C15.899 23.2852 16.1321 23.2436 16.3397 23.4253C16.4244 23.4997 16.4753 23.6157 16.5621 23.7427C16.5854 23.6858 16.6384 23.607 16.6384 23.5325C16.6299 23.3837 16.5134 23.1823 16.5706 23.0991C16.7062 22.9065 16.5049 22.8364 16.5007 22.7116C16.4859 22.4073 16.4943 22.1031 16.4943 21.7068L16.0982 21.0545C16.4054 21.0764 16.6236 21.0851 16.8354 21.1092C17.0472 21.1355 17.2676 21.1793 17.49 21.2165C17.615 20.8443 17.4455 20.5554 17.221 20.2467L17.6171 20.1964V19.9578L18.6446 19.798C18.4031 19.4652 17.9645 19.4412 17.8523 19.0449C18.0895 18.9202 18.5556 19.1478 18.4581 18.559L19.0577 18.7735L19.2547 18.4736L19.5491 18.664C19.6911 18.2853 19.5174 17.8563 19.833 17.5739C19.9495 17.4688 20.0618 17.3615 20.2207 17.2192C20.28 17.6067 20.3287 17.9329 20.3838 18.2809L21.2058 18.0161C21.1973 17.3134 21.6062 16.9325 22.4027 16.8186C22.0807 16.6348 21.8456 16.545 21.6655 16.3852C21.4854 16.2254 21.3541 15.9758 21.3583 15.6234C21.8477 15.9233 22.462 15.7132 22.8264 16.2035C23.3306 16.1926 23.3137 15.6672 23.6145 15.4702L23.1738 14.7543C23.6929 14.7171 24.1483 14.8747 24.6737 14.8222L24.0932 14.0582C24.375 13.9116 24.6144 13.8262 24.6313 13.4913C24.6356 13.3971 24.8326 13.3139 24.9618 13.2089C25.0169 13.2942 25.0635 13.3665 25.1165 13.454C25.5635 13.3949 25.4512 12.7404 25.9236 12.6922C25.8346 11.9698 25.7075 11.3044 25.0741 10.7987L26.1651 10.6717L25.5529 9.79829L26.0232 9.82893C26.1121 9.43709 26.2753 9.09341 26.6587 8.89201C26.7159 9.19629 26.7646 9.46993 26.8282 9.81361C27.1205 9.48087 27.1735 8.90952 27.7561 9.20724C27.6798 8.74096 27.7561 8.34912 28.0632 8.00106C28.2009 7.84345 28.3238 7.83469 28.4679 7.8938C28.6352 7.96822 28.7941 8.05797 28.9466 8.16305C29.0992 8.26156 29.2347 8.37977 29.4254 8.52644L29.1521 7.7318L29.6563 7.84563V6.71388L30.3702 6.47746C30.2707 6.01995 30.2516 5.63467 30.6012 5.32163C30.6965 5.52084 30.7833 5.70253 30.8829 5.9105C31.1964 5.54273 31.0842 5.11586 31.171 4.69775C31.368 4.82471 31.5354 4.98671 31.7282 5.04143C31.9231 5.09616 32.1603 5.05457 32.4082 5.05457C32.5014 4.39566 32.5141 3.6667 33.406 3.54411L33.2259 4.51168L33.5818 4.3475C33.8445 4.91447 34.1263 4.93636 34.5309 4.41098C34.3318 4.19864 34.0415 4.04541 34.0267 3.7061C34.283 3.69515 34.5394 3.69734 34.7936 3.71267C34.9758 3.73456 35.1834 3.77396 35.3168 3.88779C35.516 4.05197 35.6537 4.00819 35.7829 3.90749C35.821 3.57913 35.7681 3.22888 35.91 3.02092C36.1896 2.61156 36.4078 2.17375 36.6515 1.74907C36.6599 1.73593 36.6769 1.73156 36.7235 1.69872L36.876 1.9439C37.1006 1.77096 37.3421 1.61772 37.5412 1.42071C37.7298 1.23683 37.8717 1.00259 38.1069 0.698314L38.2191 1.42946C38.5496 1.26966 38.4903 0.917221 38.6428 0.658911L39.3398 1.32877C39.7614 1.18648 40.1702 1.14926 40.541 1.5433L40.1702 1.74031L40.5664 2.07305C40.7062 1.84758 40.8185 1.65494 40.9414 1.47325C41.0473 1.32877 41.0642 1.17553 40.988 1.01354C40.8397 0.63702 40.9583 0.308659 41.132 0.0591051L41.6807 0C41.7019 0.310849 41.7231 0.632642 41.7464 0.965381C42.3607 1.15802 43.0598 0.965381 43.5068 1.5827C43.8119 1.33096 44.1 1.05294 44.53 1.14051C44.3457 1.59583 44.3457 1.59583 44.3817 1.95484C44.5364 1.8629 44.6889 1.81255 44.78 1.7031C45.1062 1.30469 45.513 1.29374 45.9557 1.37255C46.2121 1.41852 46.4684 1.46011 46.7586 1.50827C46.7523 1.55205 46.7417 1.65056 46.7269 1.77753C46.7989 1.76001 46.8624 1.76439 46.8752 1.74031C46.9768 1.55643 47.0679 1.36817 47.1823 1.14051C47.3052 1.25872 47.4514 1.38568 47.6103 1.25434C47.7331 1.13832 47.8475 1.01573 47.9513 0.882196L48.5657 1.8629C48.7288 1.49733 48.7542 1.10329 49.1017 0.915032C49.2033 1.15364 49.2457 1.47106 49.4152 1.58708C49.5974 1.70967 49.9003 1.64399 50.1461 1.66588C50.2477 2.1037 50.5888 2.36201 51.0464 2.35763C51.0591 2.42768 51.0718 2.49992 51.0845 2.57435C51.7328 2.3445 52.3471 2.37514 52.8662 2.83047C53.1077 2.60062 53.4021 2.47584 53.7093 2.54808C53.811 2.72102 53.8894 2.85674 53.9826 3.01435L53.5737 3.29893L53.9889 3.94252H53.633L53.8682 4.40003C54.2326 4.13297 54.2728 3.57694 54.7876 3.52003C54.8639 3.61635 54.9465 3.7258 55.0291 3.83307L55.3914 3.22231C55.5439 3.54192 55.6752 3.81336 55.8108 4.08043C55.9634 4.37596 56.0121 4.66929 55.7769 4.98671L55.3935 4.87069C55.2706 5.31945 55.7409 5.28442 55.8532 5.5296L55.7536 5.82731L56.2536 6.24104C56.5332 6.1907 56.7493 6.07686 56.9018 5.77258C57.1116 5.35228 57.4548 5.26253 57.8996 5.42452C57.6751 5.76821 57.3891 6.08124 57.3827 6.59567C57.8424 6.37896 58.1178 5.81199 58.7195 5.99368L58.5648 6.62413C58.6305 6.60662 58.6983 6.59567 58.764 6.58911C58.8741 6.88463 59.2025 6.96782 59.3338 7.25896C59.463 7.5523 59.6834 7.76464 60.0583 7.57638C60.177 7.51727 60.3401 7.5523 60.4799 7.54354C60.6261 7.35747 60.7701 7.1714 60.9227 6.97438L61.4184 8.32504C61.3654 8.43668 61.2913 8.58992 61.1811 8.82196C61.4968 8.84604 61.7637 8.82853 62.0031 8.90077C62.2848 8.97957 62.484 9.15908 62.6026 9.4349L62.037 9.53779C61.9332 9.70416 62.0476 9.90774 61.8336 10.026C61.7362 10.0807 61.715 10.3105 61.948 10.4463C62.1493 10.5645 62.2975 10.8096 62.4204 11.0285C62.5158 11.1971 62.5433 11.3941 62.7551 11.4729C62.9479 11.5452 62.7064 11.8254 62.9627 11.9414C63.1047 12.0071 63.1809 12.2895 63.2297 12.4887C63.2742 12.6704 63.2403 12.8717 63.2403 13.0972L63.5559 13.6686C63.3144 13.6423 63.1513 13.6117 62.9839 13.6095C62.8187 13.6051 62.6386 13.627 62.448 13.6401C62.3611 13.8481 62.2764 14.0517 62.1726 14.299L61.9141 14.0604C61.2998 15.2578 60.7278 15.5687 60.0096 15.0937C59.7808 15.179 59.8084 15.3213 59.8952 15.5183C60.0774 15.9299 59.9778 16.302 59.7024 16.661C59.5139 16.3546 59.3465 16.0853 59.1876 15.8248L58.5034 16.2779C58.5881 15.6738 58.5373 15.1834 58.0712 14.7631C58.014 14.9667 57.9674 15.1352 57.9102 15.3432L56.7896 15.7723C56.6603 15.4746 56.4824 15.2753 56.1477 15.2885C56.1116 15.4242 56.0714 15.5643 56.0354 15.711L55.8341 15.63C55.3871 15.9167 55.2219 16.3611 55.0524 16.8296C54.8046 17.5279 54.3978 18.108 53.8343 18.5699C53.3767 18.9355 53.0017 19.3777 52.7115 19.8965C52.4404 20.3781 52.0675 20.7524 51.5951 21.0173C51.4002 21.1311 51.2116 21.2559 51.0125 21.3544C50.4193 21.6434 49.9554 22.0768 49.6164 22.6569C49.4639 22.9196 49.2267 23.1341 49.0275 23.364C48.7966 23.6332 48.5466 23.8893 48.3369 24.1761C47.9196 24.7409 47.6653 25.367 47.7437 26.1003C47.7522 26.2995 47.7522 26.4965 47.7437 26.6935C47.7374 27.2496 47.9196 27.7246 48.2945 28.123C48.4238 28.2653 48.5445 28.4185 48.6653 28.5696C48.9279 28.9001 48.9873 29.2788 49.0423 29.7013C49.1504 30.4478 49.3199 31.1811 49.5487 31.9014C49.6736 32.3238 50.0613 32.5559 50.4151 32.7814C50.5126 32.8361 50.6121 32.8864 50.7159 32.928C51.2265 33.1732 51.5887 33.0878 51.9552 32.6369C52.0082 32.5734 52.0548 32.5077 52.095 32.4377C52.5272 31.6146 53.1882 30.9929 53.7877 30.3143C55.0715 28.8629 56.6963 28.123 58.5055 27.7246C58.7343 27.6721 58.9716 27.6239 59.2067 27.5801C60.2787 27.3722 61.0604 26.687 61.7785 25.8945C61.8823 25.7807 62.0031 25.6778 62.109 25.5618C62.2192 25.4523 62.2912 25.321 62.323 25.1678C62.2404 25.1918 62.1598 25.2137 62.0772 25.2378C61.9565 25.2728 61.8251 25.3626 61.7171 25.3385C61.2828 25.2488 60.8485 25.2509 60.4142 25.3429C60.302 25.3626 60.1749 25.2969 60.0414 25.2641C60.0838 25.1612 60.1177 25.0933 60.1431 25.0255C59.4906 24.9554 59.2936 24.8285 59.1156 24.3556L59.7342 24.2724C59.6431 24.0601 59.5457 23.8937 59.5033 23.7164C59.4694 23.5369 59.4694 23.3574 59.5033 23.1779C59.9079 23.5916 60.6536 23.5325 60.768 24.2659L61.357 24.1367C61.4629 23.8587 61.357 23.5938 61.2998 23.3246C61.2383 23.0225 61.2235 22.7313 61.5158 22.5102L61.8018 22.6657C62.0158 22.5015 62.0306 22.1271 62.3378 22.1206C62.1577 21.7244 61.9861 21.3566 61.823 20.9844C61.7192 20.7502 61.5751 20.7064 61.3294 20.7633C60.6451 20.9232 60.1918 20.5488 60.1431 19.8067L60.4269 19.8658C60.4481 19.6951 60.4693 19.5265 60.4947 19.3208L60.8231 19.52L61.1472 18.861C60.8888 18.5896 60.7617 18.2744 60.8697 17.8497L61.1515 17.9745C61.1959 17.8935 61.2447 17.8147 61.2807 17.7534L61.9713 18.5283C62.1683 18.2503 62.3272 18.0248 62.4861 17.7993C62.5094 17.7643 62.52 17.6921 62.5412 17.6899C63.0983 17.6198 63.0793 17.1164 63.2127 16.7355C63.2403 16.661 63.2572 16.5822 63.2848 16.4881L62.9479 16.3173C62.9246 16.6785 62.9394 17.0266 62.5857 17.1908C61.9861 16.6391 62.1005 15.9255 62.8674 15.5752L62.9246 15.9583C63.0983 15.9014 63.2572 15.8533 63.414 15.8007C63.6894 15.7066 63.9521 15.6168 64.2338 15.8182C64.3037 15.8664 64.4414 15.8073 64.5579 15.7504C64.147 15.5161 63.8589 15.2272 63.7932 14.7281L65.1723 14.9711L65.6532 14.3625H66.1044C65.9349 13.7846 65.9349 13.7846 66.0472 13.3971L66.8607 13.9641L67.1509 13.6948L67.3628 14.0123C67.4645 13.813 67.5429 13.6576 67.5937 13.5635C67.2865 13.3183 66.9793 13.1519 66.7887 12.898C66.6531 12.7141 66.6616 12.412 66.5832 12.0596L67.4433 12.5346C67.8034 12.1756 67.2929 12.0093 67.3416 11.705H68.0047C68.0089 11.2759 68.0598 10.8906 68.4072 10.5842C68.5639 10.9235 68.6148 11.3438 69.0342 11.4313C69.1211 11.4488 69.2249 11.3919 69.3669 11.3591L68.7779 10.7899L69.2461 10.6673C69.2058 10.339 69.1698 10.0106 69.1275 9.69102H70.1083L70.2185 9.41739L70.8392 9.58376C70.8307 9.46555 70.801 9.36923 70.8286 9.29918C70.8498 9.24445 70.9451 9.22037 71.0235 9.17659C70.8138 8.7541 71.0425 8.43449 71.265 8.0733C71.4133 8.30534 71.5467 8.51549 71.6823 8.72564L71.7713 8.67748C71.7438 8.52425 71.7162 8.37101 71.6802 8.174C71.8073 8.20245 71.9069 8.22653 72.0064 8.24624C72.2988 8.30534 72.5806 8.27907 72.8581 8.16743C73.0106 8.10614 73.0318 8.00763 72.9958 7.85877C72.9513 7.67489 72.9195 7.48444 72.8708 7.21299L73.3114 7.4516C73.3517 7.42533 73.4152 7.40563 73.4237 7.3728C73.4597 7.23488 73.4851 7.09259 73.5 6.9503C73.555 6.34612 73.894 6.03308 74.5189 6.02214C74.4596 6.1907 74.3961 6.35269 74.3474 6.51906C74.3135 6.62632 74.3007 6.74015 74.2753 6.86712L74.8537 7.16921L74.4427 7.44066C74.6079 7.8325 74.8685 8.06892 75.3218 8.15867L74.8854 7.52384L75.1566 7.43847C75.0697 7.18235 74.9469 6.93279 74.913 6.6701C74.8791 6.40741 74.9723 6.16443 75.2202 5.93239C75.3663 6.48184 75.8875 6.7905 75.8027 7.40563L76.3599 7.52603C76.6713 7.12324 77.0908 6.83866 77.2136 6.25637C77.6182 7.05538 77.6182 7.051 78.4699 6.97876C78.6351 6.96563 78.8025 7.00503 79.0186 7.02254C78.7516 7.4122 78.3745 7.64424 78.3237 8.10613L79.1584 8.35569C79.4274 8.15648 79.6901 7.86753 80.1371 7.90474C80.1265 7.99011 80.118 8.0733 80.1032 8.1937C80.3002 8.27469 80.4718 8.39947 80.6138 8.56584C80.7557 8.73002 80.8531 8.92047 80.9082 9.13281C81.2556 8.80445 81.6518 8.92704 82.0543 8.99052C82.1263 9.09997 82.2111 9.23351 82.3297 9.4152C82.4674 8.90734 82.6856 8.54833 83.1983 8.53519L83.372 8.87012L82.7598 10.1048C82.7809 10.2252 82.8254 10.4309 83.0987 10.4681L83.6474 9.82456C83.6898 10.0829 83.7152 10.2383 83.7406 10.3915C84.105 10.5885 84.4545 10.5426 84.7956 10.4353L85.1367 9.75013L85.8421 11.0001C85.7743 11.1336 85.7065 11.2715 85.6218 11.4401L86.0836 11.5517C86.09 11.4182 86.0963 11.2956 86.1048 11.1599C86.5645 10.9738 86.8653 11.3044 87.2149 11.5649C87.5559 11.1074 87.9457 10.7659 88.5792 11.0504L88.2339 11.4357C88.5198 11.775 88.0389 12.0114 88.13 12.3792C88.5283 12.3595 88.9478 12.3529 89.2189 12.7404C89.3715 12.9659 89.4795 13.222 89.4032 13.511C89.1236 13.3927 88.8461 13.3096 88.6025 13.1629C88.3843 13.0337 88.2042 12.8367 87.9902 12.6528L87.7064 12.9856C87.8208 13.2242 88.0898 13.3555 88.094 13.6795C88.094 13.8065 88.3694 13.9247 88.522 14.0429C88.5834 14.0932 88.6618 14.1239 88.7211 14.1742C88.9944 14.4129 89.0325 14.5858 88.8842 14.947L89.4202 15.0214L88.8969 15.8686L89.3969 16.3217C89.4032 16.2363 89.4096 16.1619 89.416 16.0831C90.007 15.8773 90.4667 16.0984 90.6256 16.7136C90.7019 16.9916 90.8353 17.1382 91.0747 17.2696C91.4073 17.4491 91.7018 17.7008 92.0259 17.9044C92.153 17.9832 92.314 18.0051 92.475 18.0577L92.2441 18.5568C92.314 18.5765 92.3839 18.5874 92.4538 18.594C92.6381 18.5852 92.761 18.5984 92.8966 18.8041C93.0216 18.9946 93.3118 19.0756 93.5364 19.1872C93.5936 19.2179 93.6804 19.1807 93.7546 19.1763C93.8753 19.1675 94.0024 19.1325 94.1126 19.1631C94.4431 19.2485 94.7672 19.3667 95.1443 19.1697C95.1061 19.3952 95.0765 19.5616 95.0405 19.7629C95.4451 19.6666 95.4663 19.2244 95.7777 19.0296L95.9217 19.2616H96.4153C96.1378 19.8264 96.1484 19.9315 96.5488 20.6911C96.7585 20.7612 96.9068 20.6451 97.053 20.5094C97.392 20.192 97.7584 20.1964 98.1864 20.4153L97.9194 20.7064L98.6461 21.7244C98.877 21.6806 99.0867 21.604 99.2986 21.6083C99.5125 21.6149 99.7286 21.7047 99.9362 21.755C100.195 21.5514 100.396 21.2712 100.767 21.2975C100.788 21.6455 100.413 22.0352 100.923 22.3066L100.667 22.6087L101.004 23.1713L101.618 23.0641C101.51 23.3465 101.423 23.5785 101.339 23.8018L101.875 24.4497C101.906 24.43 102.002 24.4016 102.002 24.3709C102.002 24.0623 102.218 23.9857 102.436 23.8893C102.586 23.8127 102.73 23.7274 102.872 23.6354C103.055 24.0251 103.591 24.1871 103.654 24.7606C103.489 24.87 103.434 25.1721 103.084 25.0583C103.222 25.3363 103.307 25.4436 103.584 25.2925C103.898 25.1349 104.23 25.0364 104.58 25.0036C104.915 24.9642 105.173 25.1721 105.355 25.4502C104.972 25.6078 104.624 25.7588 104.266 25.8989C104.002 26.0018 103.959 26.2667 103.883 26.4834C103.819 26.6585 103.838 26.8665 103.824 27.0285C104.065 27.1401 104.3 27.2649 104.529 27.4028C104.639 27.475 104.707 27.613 104.821 27.7574C104.188 27.8756 103.544 27.8209 103.177 28.5105C103.633 28.7732 103.944 29.1453 103.732 29.7977L103.381 29.5021L103.216 29.6948C103.048 29.605 102.875 29.3861 102.684 29.6794C102.667 29.7057 102.514 29.6378 102.408 29.6094L102.288 29.8786C102.017 29.7604 101.771 29.524 101.44 29.7188L101.245 29.3949L100.894 29.5569C100.875 29.5262 100.858 29.4934 100.847 29.4605C100.815 29.3007 100.786 29.1475 100.76 28.9921C100.718 28.725 100.618 28.5608 100.315 28.6593C100.273 28.6747 100.199 28.5871 100.11 28.528C100.173 28.4426 100.224 28.3857 100.265 28.32C100.487 27.9566 100.453 27.8341 100.106 27.6151C99.9299 27.5057 99.7752 27.3656 99.5973 27.2299C99.5507 27.2977 99.5041 27.4181 99.4172 27.4685C99.2308 27.5801 99.2837 27.7071 99.3706 27.8319C99.6354 28.2281 99.6036 28.6221 99.3367 29.1125C99.1079 28.6812 98.9257 28.3113 98.7139 27.9632C98.6291 27.8428 98.5169 27.7706 98.377 27.7465C98.1292 27.7137 97.8728 27.7355 97.5784 27.7355C97.5784 28.1799 97.4258 28.5499 96.9661 28.7972C97 28.2412 96.7797 27.8297 96.5064 27.3941C96.2755 27.6655 96.1124 27.961 95.7438 28.0376V27.4159C95.2438 27.1073 94.8879 27.5057 94.46 27.6239C94.4494 28.0749 94.2905 28.4185 93.8456 28.5959C93.8308 28.331 93.816 28.0946 93.8012 27.8581L93.6931 27.7771L93.6317 28.0398L93.2228 27.6918L92.7313 28.2303C92.6763 28.1033 92.6614 27.9742 92.6064 27.9479C92.3204 27.8209 92.0217 27.7224 91.7293 27.6086C91.4539 27.5035 91.2463 27.6414 91.0069 27.8691C90.9709 27.6699 90.9455 27.521 90.9158 27.3481C90.5684 27.4356 90.1977 27.3634 89.9752 27.7399C89.935 27.8122 89.7888 27.8209 89.6914 27.8559C89.5727 27.891 89.452 27.9194 89.2994 27.961C89.5748 28.2784 90.0006 28.4864 89.8291 29.0315L89.5706 29.1212C89.5939 29.2 89.6172 29.2788 89.6532 29.4146L90.2888 29.003L90.668 29.5547L90.7442 29.5393C90.7252 29.2635 90.6722 28.9833 90.6976 28.7119C90.7209 28.4404 90.884 28.1996 91.1383 28.0267L91.4179 28.9045C91.6912 28.6681 91.7251 28.2806 92.0619 28.1974L92.3204 29.3073L92.3754 29.3007L92.4242 28.9198C92.8839 29.2066 93.4834 29.1869 93.6698 29.7429C94.0172 29.7582 94.3117 29.778 94.6062 29.7845C94.6824 29.7801 94.7545 29.7582 94.8244 29.7254C94.9388 29.6816 95.0489 29.6269 95.1803 29.57V30.4172C96.1082 29.8983 96.659 30.0428 96.9132 30.8484C96.6484 30.8615 96.3836 30.8747 96.1209 30.8944C95.9281 30.9075 95.7671 31.0082 95.7374 31.203C95.7226 31.3015 95.8137 31.4504 95.89 31.5205C96.0192 31.6321 96.1717 31.7284 96.3624 31.5905C96.5149 31.4832 96.6929 31.4198 96.9322 31.3015C96.8899 31.5051 96.8666 31.6211 96.8433 31.7394C97.2627 32.1224 97.7627 31.8422 98.3114 31.8751C97.7923 32.4311 97.8834 32.9981 98.0805 33.5979L98.5974 33.622C98.4533 33.8847 98.3262 34.1167 98.1821 34.3838L98.5359 34.5085C98.5698 34.7012 98.5105 34.8522 98.3559 34.9661C98.1313 35.1565 98.1313 35.4104 98.2987 35.5637C98.4003 35.649 98.5169 35.6841 98.6461 35.6687C98.7774 35.6534 98.8812 35.5921 98.9617 35.4849C99.0825 35.3251 99.2075 35.1653 99.3791 34.9398C99.5316 35.5418 99.574 36.089 99.9256 36.5072C99.7286 36.7808 99.9172 37.0719 99.8494 37.3806L100.385 37.4725C100.43 37.8512 100.504 38.2234 100.981 38.2278L101.57 37.466C101.62 37.6805 101.646 37.7921 101.684 37.9388C101.981 37.7396 102.279 37.5645 102.692 37.6608L102.404 38.1468L102.584 38.3066C102.586 38.335 102.584 38.3657 102.576 38.3941C102.5 38.5912 102.398 38.7816 102.347 38.9852C102.271 39.3026 102.368 39.4668 102.639 39.6025C102.989 39.2851 103.311 38.9567 103.671 38.6809C103.978 38.4489 104.321 38.4861 104.626 38.6459L104.146 39.1231C104.226 39.2982 104.266 39.3836 104.315 39.4887L103.999 39.6178C104.038 40.1016 104.076 40.546 104.11 41.0013L103.368 41.1546L104.173 41.8025C104.127 42.0127 104.027 42.2097 104.063 42.3783C104.099 42.5446 104.266 42.6847 104.377 42.8358C104.47 42.9627 104.563 43.0875 104.675 43.2342C104.207 43.2889 104.199 43.2955 104.124 43.7201C104.105 43.8318 104.086 43.9456 104.057 44.0573C104.033 44.1492 103.995 44.2368 103.949 44.3747C104.033 44.3813 104.114 44.3944 104.194 44.4141C104.283 44.4513 104.368 44.4951 104.451 44.5432C104.482 44.9789 104.711 45.397 104.434 45.8567C104.192 46.2551 103.728 46.3295 103.453 46.6513L104.143 47.4744C104.298 47.4613 104.446 47.4897 104.588 47.5598C104.728 47.632 104.843 47.7349 104.927 47.8728C104.436 47.9254 104.057 48.4683 103.499 48.0436C103.555 47.921 103.61 47.7962 103.696 47.6036C103.097 47.5992 102.983 48.326 102.487 48.3019C102.351 48.6127 102.389 48.8732 102.563 49.1425C102.635 49.2563 102.671 49.3811 102.675 49.5168C102.68 49.6547 102.648 49.7817 102.582 49.8999C102.381 50.2961 102.114 50.6442 101.673 50.7733C101.538 50.8127 101.381 50.7799 101.182 50.7799C101.347 50.5238 101.472 50.3312 101.597 50.1385L101.544 50.075C101.406 50.156 101.233 50.2129 101.135 50.3312C100.972 50.526 100.796 50.6004 100.57 50.5128C100.309 50.41 100.091 50.248 100.034 49.9393C100.012 49.8299 99.9892 49.7226 99.9574 49.5781L99.4786 49.9787C99.574 50.3027 99.5697 50.6157 99.3452 50.9441C99.0677 50.48 98.627 50.1692 98.5783 49.5934L99.3769 49.276C99.1672 49.1337 98.9427 49.1469 98.6334 49.2848C98.5889 49.2191 98.5444 49.1512 98.4957 49.0856C98.4702 49.0615 98.4427 49.0396 98.4109 49.0199L97.2966 49.7182C97.2776 49.5606 97.2648 49.4446 97.2458 49.2738L96.5912 49.23L96.3942 48.9192C96.5679 48.8119 96.8433 48.8097 96.7501 48.4551L96.4662 48.6412L96.3137 48.1574L95.3286 48.0479C95.3286 48.002 95.3243 47.956 95.3137 47.91C95.2968 47.8706 95.2735 47.8334 95.2459 47.7984C95.1358 48.0676 95.0383 48.3128 94.8985 48.6587C94.8032 48.4485 94.7735 48.3216 94.7015 48.2362C94.5956 48.0983 94.4685 47.9888 94.3181 47.9078C94.0617 47.7962 93.8372 47.6692 93.6783 47.3781L94.2651 47.2467C94.2651 47.227 94.2651 47.2052 94.2651 47.1855L93.5385 47.0672C93.297 47.2227 92.9813 47.4109 92.6805 47.6233C92.1636 47.991 91.5874 48.1268 90.9688 48.1333C90.1108 48.1443 89.2994 47.9473 88.5347 47.5445C88.1661 47.354 87.7932 47.1679 87.4182 46.9884C86.9522 46.7586 86.4607 46.6447 85.9438 46.6491C85.6748 46.6491 85.4057 46.6185 85.1345 46.5988C84.2639 46.5309 83.4292 46.7323 82.5987 46.9622C81.7429 47.2161 80.868 47.3737 79.9803 47.4394C79.5524 47.4722 79.1351 47.5598 78.7283 47.7043C78.0674 47.9429 77.3916 48.1092 76.6967 48.2056C76.1607 48.269 75.6417 48.431 75.1142 48.5471C74.6672 48.6434 74.2181 48.7353 73.733 48.8382C73.7987 48.9214 73.8728 48.9958 73.9533 49.0637C74.591 49.4949 75.2286 49.9305 75.8832 50.3355C76.1353 50.4778 76.4001 50.5829 76.6798 50.6529C78.0102 51.0317 79.3427 51.3994 80.6752 51.7694C81.4632 51.9839 82.2471 51.9642 83.0246 51.7125C83.9524 51.4279 84.8697 51.1105 85.7849 50.7865C86.645 50.4822 87.4818 50.5829 88.2932 50.9375C88.9351 51.2177 89.5452 51.5767 90.1828 51.8723C90.6595 52.0912 91.1531 52.2685 91.6446 52.4502C92.6021 52.8004 93.5893 53.0741 94.5151 53.4987C95.2184 53.8205 95.8434 54.3262 96.5064 54.7509C97.0191 55.0814 97.5233 55.4251 98.0466 55.7316C98.2542 55.852 98.5084 55.8848 98.788 55.9768C98.9172 56.2657 99.3282 56.419 99.6651 56.2176L98.8918 55.5893L99.1439 54.9764C99.2859 54.9063 99.4829 54.8669 99.5655 54.7465C99.6375 54.6414 99.5803 54.4422 99.5803 54.3196C100.129 54.0613 100.716 53.9694 101.303 53.7767L101.364 54.0942C101.625 53.9935 101.519 53.7767 101.595 53.6476C101.116 53.2426 100.684 52.8398 100.411 52.2969C100.697 52.251 100.932 52.1853 101.165 52.1853C101.341 52.2006 101.506 52.2532 101.656 52.3451C101.792 52.4305 101.917 52.529 102.034 52.6406C102.294 52.5487 102.082 52.3801 102.089 52.2291C102.36 52.0058 102.735 51.8482 102.688 51.3337L103.307 51.6205C103.686 51.6205 103.915 51.8591 104.099 52.1919C104.23 51.9357 104.338 51.7278 104.446 51.5198L105.023 51.6928C105.099 51.5789 105.158 51.4826 105.222 51.3885C104.794 51.6555 104.824 51.1739 104.665 51.0185C104.3 51.3206 103.976 51.6599 103.468 51.5286C103.425 51.5154 103.362 51.5877 103.307 51.6227C103.353 51.5351 103.391 51.4454 103.423 51.3534C103.552 50.8828 103.851 50.6376 104.317 50.607C104.362 50.6004 104.406 50.5895 104.449 50.5719V49.9043L104.83 50.167L105.023 49.9918C105.048 50.0072 105.073 50.0247 105.095 50.0466C105.345 50.3815 105.402 50.3881 105.652 50.0882C105.819 49.8868 105.997 49.7073 106.3 49.6569C106.275 50.0597 106.249 50.4406 106.224 50.8215C106.565 51.0995 106.823 50.6135 107.158 50.7755C107.171 50.804 107.175 50.8346 107.175 50.8653C107.169 50.8981 107.156 50.931 107.141 50.9616L107.688 51.5395C108.031 51.3184 107.897 50.9594 107.88 50.6705L108.611 50.7208L108.616 50.6529L109.152 51.0514L109.363 50.7865C108.893 50.515 108.637 50.1429 108.779 49.5431L109.681 50.0991C109.734 49.8539 109.774 49.6569 109.834 49.3855L110.147 49.7445L110.889 49.5475C110.795 49.8123 110.726 50.0115 110.626 50.2961C110.831 50.2173 110.946 50.1823 111.058 50.1363C111.289 50.0422 111.49 49.9612 111.687 50.2304C111.751 50.318 111.944 50.3005 112.109 50.3399C112.198 49.9393 112.319 49.5869 112.691 49.368C112.744 49.5956 112.793 49.8058 112.844 50.0028C113.102 50.0422 113.308 50.0137 113.494 49.8583C113.579 49.7795 113.679 49.7335 113.793 49.7248C114.007 49.7401 114.098 49.6328 114.196 49.4577C114.388 49.0943 114.717 49.0155 115.134 49.0484C115.015 49.287 114.916 49.4949 114.818 49.6919L115.782 50.248C116.282 49.7664 116.964 49.7445 117.371 50.3881L116.74 50.6114C116.888 51.0623 116.96 51.1083 117.659 51.2746C117.7 51.4344 117.742 51.5855 117.782 51.7519C118.026 51.5921 118.231 51.4104 118.473 51.3162C118.714 51.2221 118.973 51.2856 119.231 51.4476L118.613 52.0102C119.045 52.0102 119.172 52.3166 119.324 52.5552C119.415 52.6844 119.468 52.8289 119.481 52.9865C119.496 53.1463 119.468 53.2973 119.401 53.4418L119.06 53.2995L119.265 53.652L119.043 53.7986C119.096 53.9584 119.146 54.1073 119.212 54.2977L119.534 54.3459C119.551 54.3897 119.562 54.4335 119.566 54.4794C119.564 54.7662 119.454 54.9917 119.229 55.1602C118.977 55.3529 119.011 55.6243 119.113 55.8345C119.197 56.014 119.119 56.095 119.062 56.2132L119.331 56.373C119.43 56.1782 119.524 55.9943 119.619 55.8082C120.146 56.1256 120.259 56.4693 120.079 57.0275C120.013 57.2333 120.026 57.4675 120.002 57.7258L119.748 57.8178C119.701 58.0301 119.659 58.2337 119.602 58.5073L120.098 58.851C120.072 58.9079 120.026 59.0108 119.979 59.1137C120.199 59.3326 120.392 59.5844 120.638 59.7485C120.86 59.8996 121.138 59.9609 121.436 60.0791C121.305 60.1951 121.214 60.2761 121.104 60.3746L121.292 60.7424C121.148 60.8628 120.898 60.692 120.854 61.0029C120.996 61.0116 121.131 61.016 121.267 61.0335C121.642 61.0751 121.926 61.2677 122.08 61.6289C122.157 61.8019 122.229 61.9464 122.08 62.1675C121.96 62.347 121.985 62.6294 121.936 62.9271L121.295 62.3119L121.191 62.3513C121.203 62.5768 121.214 62.8001 121.229 63.0672C121.714 62.9512 121.883 63.3145 122.087 63.5707C122.29 63.829 122.288 64.1486 122.14 64.501C121.911 64.3368 121.775 64.015 121.405 64.0741L121.123 64.42L121.955 65.1665L121.174 65.4795L121.203 65.578C121.288 65.5627 121.371 65.5408 121.451 65.5167C122.119 65.2475 122.625 65.5321 122.803 66.3179L122.172 66.1975C122.18 66.3267 122.186 66.4274 122.193 66.5303C121.9 66.7098 121.845 66.8324 121.962 67.1892C122.013 67.349 122.057 67.4606 121.949 67.6248C121.841 67.7912 121.864 67.9926 121.979 68.1808C122.057 68.3253 122.11 68.4786 122.133 68.6427C122.199 69.0258 122.104 69.1287 121.714 69.1309C121.648 69.1418 121.585 69.1615 121.523 69.1856L122.201 69.8073C122.112 69.9759 121.9 70.0459 122.042 70.2298C122.119 70.3371 122.205 70.4378 122.301 70.5582C122.261 70.6676 122.201 70.8165 122.146 70.9675C122.131 71.0223 122.123 71.077 122.117 71.1317C122.324 71.2806 122.663 70.8887 122.782 71.3572L123.604 71.4579L123.055 72.0511L123.578 72.8458C123.813 72.5086 124.091 72.1912 124.548 72.2109C124.828 72.2219 125.057 72.362 125.273 72.6247C124.913 72.7166 124.616 72.8458 124.404 73.1019C124.428 73.1391 124.453 73.1807 124.476 73.2157L124.974 72.872L125.373 73.7849L125.046 73.9753L125.8 74.2314C125.828 74.3168 125.866 74.4306 125.915 74.5795C126.322 74.3124 126.705 74.2708 127.118 74.5664L126.72 74.8707C126.694 75.0786 127.057 75.0086 126.928 75.2559L126.944 75.2406C126.538 75.477 126.245 75.8032 126.129 76.2717C126.451 76.4752 126.451 76.4752 126.665 76.3308L126.646 76.3439C126.97 76.3636 127.311 76.2344 127.58 76.4468L126.491 77.8106L127.063 78.209L126.476 79.3714L126.262 78.8263C125.928 79.216 125.75 78.8175 125.512 78.7059L125.426 78.4323C125.349 78.4761 125.231 78.5111 125.216 78.5702C125.165 78.695 125.201 78.8285 125.379 78.8154ZM39.4605 2.2241C39.3652 2.0643 39.2296 2.04678 39.0538 2.07524C39.1216 2.46927 39.3123 2.2635 39.4669 2.21315C39.4309 2.53057 39.647 2.42111 39.8165 2.443V1.97454C39.683 2.0643 39.5728 2.14529 39.4605 2.2241ZM64.3461 16.4465C64.058 16.3962 64.0728 16.6216 64.0199 16.8033C64.3546 16.8405 64.3546 16.8405 64.4499 16.5581C64.5156 16.5209 64.6173 16.5012 64.6384 16.4465C64.666 16.3786 64.649 16.2254 64.6109 16.2079C64.5262 16.1729 64.4181 16.1991 64.3186 16.2013C64.327 16.2801 64.3376 16.3655 64.3461 16.4465ZM53.7072 16.8011C53.5059 16.7595 53.2983 16.6632 53.1055 16.6873C52.7857 16.7289 52.4912 16.7136 52.2031 16.5669C51.8493 17.4403 51.5612 17.6352 50.9765 17.425C51.0062 17.3462 51.0358 17.2674 51.0676 17.1864L50.6248 17.2565C50.7117 16.915 50.7117 16.915 50.5803 16.6742C50.3219 16.8821 50.1397 17.1229 50.1206 17.46L49.8368 17.3922C49.8516 17.587 49.8643 17.7315 49.877 17.8803L49.6609 17.9394C49.6207 18.1605 49.7478 18.4057 49.5635 18.5743L48.8941 18.0598L48.3814 18.5086L48.2882 18.0774L47.8348 18.316C48.0636 18.6706 48.3221 18.9508 48.2945 19.4236C47.6802 19.0252 47.1845 19.1916 46.7608 19.6535C46.9069 19.9512 47.051 20.2402 47.1866 20.5313C47.2946 20.7633 47.3899 20.9998 47.4937 21.2318C47.57 21.4091 47.6145 21.6171 47.7353 21.7506C47.9111 21.9454 48.1441 22.0834 48.3729 22.2629C48.4746 22.1381 48.5678 22.0089 48.6547 21.8732C49.0508 21.1924 49.591 20.6758 50.2795 20.3233C50.4914 20.2117 50.6969 20.0847 50.9045 19.9665C51.254 19.7805 51.5252 19.509 51.718 19.1544C52.0336 18.548 52.4997 18.0861 52.989 17.6352C53.2538 17.3878 53.4615 17.0704 53.6924 16.7814C53.7517 16.6764 53.8089 16.5713 53.883 16.4399L53.5356 16.2955L53.7072 16.8011ZM106.523 61.5545L106.353 61.5874C106.368 61.467 106.378 61.3772 106.389 61.2896C105.851 61.2043 105.764 61.1495 105.815 60.9503C105.934 60.8693 106.046 60.7905 106.164 60.7117C105.781 60.3593 105.438 60.6723 105.093 60.6964C104.777 61.1255 104.336 61.1736 103.872 61.1189C103.58 61.9135 103.326 62.1302 102.819 62.0514C102.836 61.8719 103.027 61.7209 102.915 61.4954C102.597 61.6968 102.283 61.8063 101.919 61.7012L102.641 60.4228C102.258 60.1426 101.731 60.5016 101.415 60.0594C101.474 60.0222 101.525 59.985 101.58 59.9543C101.845 59.8076 102.076 59.6172 102.034 59.2735C101.995 58.9561 101.722 58.7131 101.508 58.6321C101.161 58.503 100.731 58.4592 100.392 58.8269L100.614 59.3085L100.921 59.0962C101.273 59.4136 101.322 59.7923 101.214 60.2236C101.182 60.3812 101.159 60.541 101.146 60.7008C101.099 61.0576 101 61.3816 100.659 61.537C100.515 61.0773 100.379 60.6482 100.246 60.2258L99.5994 60.4359C99.6566 60.1667 99.6968 59.9674 99.7371 59.7858C99.4638 59.6281 99.2096 59.534 99.0338 59.3567C98.86 59.1794 98.7562 58.9145 98.6291 58.7022L99.074 58.6299C98.8452 58.538 98.6101 58.4833 98.3686 58.4592C97.7542 58.376 97.1335 58.33 96.5276 58.2031C94.746 57.8309 93.1275 57.0494 91.6001 56.0446C91.4772 55.9658 91.3501 55.8914 91.1573 55.7754C91.3014 56.327 91.3967 56.7933 91.5492 57.2399C91.6615 57.5463 91.8056 57.8375 91.9772 58.1133C92.2547 58.5905 92.708 58.8379 93.1741 59.0524C93.5872 59.2319 93.9601 59.4771 94.2969 59.7814C94.7481 60.2039 95.3032 60.3965 95.8815 60.53C96.0827 60.5782 96.2882 60.6045 96.4937 60.6439C97.0233 60.7489 97.4915 60.9766 97.8538 61.3969C98.0127 61.5808 98.1821 61.7581 98.3262 61.9529C98.7817 62.5812 99.3727 63.0015 100.099 63.2138C100.807 63.4196 101.474 63.7195 102.103 64.1135C102.561 64.3938 103.055 64.5623 103.584 64.617C103.629 64.6214 103.671 64.6214 103.716 64.617L103.938 64.3281C104.116 64.5514 104.254 64.7987 104.457 64.9563C104.775 65.2103 105.139 65.4029 105.493 65.6306C105.62 65.4226 105.669 65.1446 105.934 65.033C106.01 65.2562 106.076 65.4489 106.152 65.6744L106.675 65.1928C106.724 65.5824 106.736 65.9064 106.972 66.2369C106.997 65.7356 107.156 65.3132 106.902 64.8929C106.84 64.7943 106.893 64.6214 106.893 64.431C107.029 64.5273 107.116 64.5973 107.209 64.6521C107.584 64.8666 107.688 64.8491 107.999 64.5404C108.122 64.4178 108.253 64.3018 108.31 64.2515L108.255 63.4568L108.38 63.5707C108.179 63.7064 107.984 63.8487 107.781 63.9778C107.484 64.1617 106.976 64.1135 106.806 63.8793C106.654 63.6692 106.523 63.4437 106.389 63.2357L107.205 62.8308L106.878 62.5462C106.912 62.2288 106.938 61.9901 106.957 61.78L106.523 61.5589C106.722 61.6224 106.931 61.7406 107.058 61.4254L106.523 61.5545ZM79.3872 29.0293C78.7283 29.119 78.1013 29.2022 77.47 29.2942C77.2666 29.3226 77.0505 29.3358 76.8662 29.4211C75.9362 29.8414 74.949 29.9925 73.9597 30.1523C72.5657 30.3799 71.1781 30.3996 69.8054 30.0166C69.1317 29.8283 68.4644 29.6269 67.7611 29.4211C67.5534 29.5306 67.3924 29.8305 67.0471 29.7845C67.0683 29.5175 67.2187 29.2613 67.0196 28.9833C66.5535 29.2219 66.0769 29.3752 65.6087 28.9505C65.8078 28.7294 65.8396 28.493 65.7316 28.2478C65.471 28.2872 65.202 28.4076 65.0071 28.3288C64.8249 28.2565 64.7232 27.9698 64.5707 27.7552L64.3037 27.8691L64.1999 27.6305C63.664 27.5889 63.1767 27.7968 62.6789 27.961C62.2446 28.1033 61.8675 28.3178 61.5667 28.6812C61.2637 29.0446 60.8803 29.3029 60.4693 29.5306C60.0901 29.7385 59.7384 29.9903 59.4186 30.2836C58.7279 30.9272 58.6305 31.8488 59.0775 32.6216L60.8994 32.9324C60.9629 32.9433 61.0265 32.9499 61.09 32.9499C62.2382 32.9652 63.3038 33.3221 64.3503 33.7599C64.7761 33.9394 65.0791 34.2634 65.2931 34.6924C65.8396 35.776 65.8417 36.8552 65.3587 37.9673C65.185 38.3591 65.0748 38.7685 65.0282 39.1975C64.9054 40.4519 65.0748 41.6931 65.3206 42.9189C65.3693 43.1576 65.5007 43.3743 65.5896 43.6019C65.7867 44.1054 66.2082 44.3834 66.6023 44.6855C67.5153 45.3838 68.3352 46.242 69.4982 46.5134C69.5151 46.5178 69.5279 46.5244 69.5427 46.5331C69.9431 46.7717 70.3689 46.7958 70.8265 46.763C71.6018 46.7082 72.3708 46.6798 73.1271 46.4652C74.0741 46.196 75.0316 45.9574 75.9955 45.7494C76.7878 45.5787 77.5907 45.467 78.3915 45.3357C78.6351 45.2963 78.8406 45.2065 78.9677 44.9854C78.5186 44.7096 78.0652 44.4666 77.65 44.1711C76.6861 43.4837 76.4849 42.6563 76.9806 41.553C77.0505 41.3954 77.1246 41.2356 77.2157 41.0429L76.6438 41.0823C76.595 41.3275 76.5505 41.5486 76.5082 41.7653C76.112 41.8463 76.04 41.9076 75.9701 42.2622C75.915 42.5468 75.862 42.8292 75.6036 43.0284C75.3684 42.4264 75.3684 42.4264 75.0104 42.4483C74.9871 42.2491 74.9638 42.0521 74.9405 41.8507L74.2965 41.9361L74.5359 41.38C74.1991 41.4085 73.9004 41.4807 73.6122 41.4479C73.3051 41.4107 73.0826 41.1764 72.9216 40.9203C73.0127 40.1629 73.0127 40.1629 72.2374 39.793C71.8539 40.0666 71.6781 40.1191 71.2819 40.0753C71.2989 39.9112 71.4895 39.7076 71.2163 39.6091C71.0362 39.7798 70.8858 39.9812 70.6888 40.0863C70.5172 40.1782 70.2418 40.2548 70.102 40.1739C69.8075 40.0031 69.5639 39.7339 69.3224 39.4843C69.2461 39.4033 69.2419 39.2566 69.1953 39.11C69.5702 39.1669 69.8965 39.2041 70.2206 39.2654C70.3646 39.2917 70.4896 39.272 70.532 39.1275C70.5595 39.0377 70.5151 38.9217 70.4896 38.821C70.479 38.7816 70.424 38.7553 70.3922 38.7247L70.8201 37.7943L70.0659 36.9647C70.3244 36.9121 70.5256 36.8771 70.7269 36.8224C70.7735 36.8092 70.8032 36.7173 70.8434 36.6494C69.9727 36.5028 69.7863 36.3671 69.7206 35.8811C70.4536 35.7826 71.1612 35.868 71.8327 36.3671C71.6548 35.9511 71.5065 35.6315 71.3836 35.2988C71.3349 35.1674 71.2883 34.9901 71.3328 34.8741C71.4112 34.6858 71.5637 34.5326 71.7035 34.3334C71.8857 34.6399 72.1314 34.8719 72.445 35.0273C72.4026 34.5063 72.5149 34.0269 72.7839 33.5847L73.0085 33.7095L73.5974 32.9346C73.5529 32.5778 73.6271 32.2144 73.9703 31.9364L74.377 32.9236C74.6122 32.6916 74.7414 32.372 75.093 32.3567C75.1015 32.499 75.11 32.6237 75.1185 32.7704C75.4341 32.7989 75.7307 32.7704 75.9426 32.5712C76.0972 32.4245 76.1946 32.499 76.3112 32.5712C76.3917 32.6325 76.4637 32.7004 76.5294 32.7748C76.5781 32.5778 76.612 32.4377 76.6459 32.2976C76.6649 32.1969 76.7137 32.1137 76.7942 32.0524C76.8768 31.9911 76.9658 31.967 77.0653 31.9802C77.4424 31.9977 77.8195 32.0305 78.169 32.0546C78.6436 31.8948 78.3449 31.3563 78.6139 31.0892L78.8385 31.2731C78.9147 31.0783 78.991 30.9228 79.0419 30.7565C79.0991 30.5529 79.0758 30.2968 79.1901 30.1457C79.4677 29.7889 79.4338 29.4146 79.3914 29.0293H79.3872ZM26.3981 60.7643C26.3346 61.0729 26.5041 61.0904 26.6905 61.1277C27.7645 61.3422 28.8386 61.5764 29.9105 61.7844C31.2536 62.0449 32.5989 62.2682 33.9737 62.1718C34.6453 62.1237 35.302 62.0252 35.8846 61.6465C37.4226 60.6526 38.9288 59.6106 40.1448 58.1943C41.2231 56.9378 42.3692 55.7535 43.636 54.6983C43.6932 54.6349 43.7441 54.567 43.7886 54.4948C43.6127 54.4948 43.5026 54.486 43.3924 54.4948C42.6658 54.5495 41.9413 54.6261 41.2125 54.6655C40.0664 54.729 39.0051 55.0792 38.0327 55.7119C36.9396 56.4036 35.8571 57.1282 34.5775 57.4347C33.728 57.6383 32.8997 57.7521 32.0544 57.4172C31.7536 57.2968 31.4274 57.2464 31.0714 57.1545C31.1244 57.6164 31.6498 57.369 31.7049 57.7105C31.4761 57.8638 31.26 58.0279 31.0248 58.1637C30.7897 58.2972 30.5482 58.3826 30.3173 58.4854C30.58 59.6041 30.5757 59.6435 30.2071 60.009C30.0207 59.7704 30.0207 59.2932 29.5229 59.4464C30.0292 60.0747 30.0652 60.2411 29.7961 60.773C29.5737 60.3155 28.9678 60.1732 28.9721 59.5559L28.9996 60.1469L28.3852 60.3834C28.3535 60.2345 28.3598 60.0528 28.2772 59.9477C28.1776 59.823 28.0018 59.7682 27.8599 59.6829C27.6205 59.9368 27.6247 59.9346 27.7455 60.2148C27.8069 60.3549 27.8493 60.5038 27.9065 60.6679C27.5993 60.6088 27.3472 60.5826 27.1099 60.5103C26.8049 60.425 26.7138 60.8912 26.3981 60.7643ZM83.0775 28.4229C82.9801 28.8476 82.8869 29.2482 82.7725 29.7451C83.0881 29.5021 83.3402 29.3576 83.4737 29.0512C83.5605 28.8542 83.7046 28.6703 83.9291 28.655C83.98 28.9724 84.0245 29.2591 84.0668 29.5109C84.338 29.6707 84.5096 29.6138 84.7193 29.4562C84.9269 29.2985 85.1939 29.2154 85.446 29.1344C85.6303 29.0753 85.8294 29.0774 86.0412 29.049C86.0921 29.119 86.162 29.2132 86.2785 29.3708L86.6408 28.8345C87.4077 29.2 87.8208 29.2613 88.0368 29.0577L88.2105 29.6554C88.2593 29.5196 88.2826 29.4868 88.2783 29.4605C88.1915 28.957 88.2466 28.5149 88.6893 28.1865C88.7529 28.1383 88.7656 27.9391 88.7296 27.8428C88.6469 27.602 88.4859 27.4575 88.2444 27.4116C87.9309 27.3634 87.6852 27.1927 87.4415 27.0066C87.3526 26.9453 87.2594 26.8906 87.1661 26.8424C86.9501 27.197 86.7043 27.4356 86.2933 27.4203C86.3272 27.2518 86.359 27.1029 86.4014 26.8906C86.1789 26.9409 86.0201 26.9803 85.8506 27.0132C85.6811 27.046 85.5074 27.1204 85.3464 27.0985C85.143 27.0723 84.9884 27.092 84.821 27.2277C84.7236 27.3087 84.4969 27.3875 84.4482 27.3415C84.2511 27.1467 84.0859 27.3109 83.9185 27.3481C83.2385 27.4991 82.5627 27.6808 81.8827 27.8253C81.1794 27.9807 80.5332 28.2719 79.9422 28.6944C80.0375 28.9592 80.1286 29.2132 80.2155 29.4583L80.8892 29.2854C80.8129 29.524 80.7514 29.6991 80.6794 29.9159C80.9591 29.8195 80.9591 29.8195 81.2069 30.0012C81.601 30.2902 81.7238 30.2727 82.0628 29.8874C81.7429 29.2285 81.834 28.7075 82.3445 28.3791C82.4208 28.331 82.5839 28.2872 82.5924 28.3047C82.7153 28.5455 82.9144 28.3441 83.0775 28.4229ZM83.4059 43.4334C83.4419 43.0875 83.5139 42.8161 83.4843 42.5599C83.4525 42.306 83.319 42.0433 83.2258 41.7653C83.0457 41.8266 82.9568 41.9251 82.9589 42.1221C82.9589 42.3498 82.9483 42.5818 82.7343 42.7679C82.5437 42.4702 82.4123 42.109 81.9823 42.0893C81.8361 42.3958 81.709 42.7241 81.3192 42.7986C81.3192 42.6037 81.3256 42.4395 81.3192 42.2776C81.3107 42.1156 81.2811 41.9339 81.2599 41.7456C81.1158 41.7806 80.9802 41.8638 80.9188 41.8244C80.5248 41.5705 80.0947 41.5398 79.6541 41.553C79.6371 41.553 79.6181 41.5092 79.6054 41.4895C79.6774 41.3625 79.7494 41.2356 79.8214 41.1108L79.7431 41.0517L79.4634 41.3625L79.3045 41.2027C79.0461 41.299 78.8109 41.3757 78.5821 41.4764C78.4826 41.5201 78.4 41.588 78.3343 41.6777C78.2432 41.8135 78.1669 41.9558 78.1034 42.1068C77.8831 42.6015 77.9148 42.8204 78.3512 43.1116C78.794 43.4005 79.2537 43.6567 79.7304 43.8778C80.171 44.0835 80.601 44.2806 80.7726 44.8234C81.762 44.4622 82.6284 43.9281 83.4038 43.4356L83.4059 43.4334ZM38.5433 23.7777C38.3653 23.6639 38.1852 23.4931 38.1386 23.526C37.9077 23.6836 37.7298 23.5457 37.5285 23.4953C37.3484 23.4515 37.234 23.5982 37.3188 23.7996C37.484 24.1892 37.448 24.5592 37.2531 24.9313C37.3103 24.9423 37.3696 24.951 37.4268 24.9576L41.4731 25.0167C41.6002 25.0167 41.7273 25.0211 41.8565 25.0299C42.5874 25.089 43.2356 25.3779 43.8436 25.7895C44.4961 26.2295 45.155 26.6585 45.8519 27.1182C45.5723 26.4681 45.335 25.8639 45.0512 25.2816C44.8563 24.8854 44.5237 24.603 44.1741 24.3381C44.0555 24.5242 43.958 24.673 43.8203 24.8854C43.5492 23.9594 42.9687 23.6135 42.151 23.6332C41.9921 23.6376 41.8332 23.6442 41.6743 23.6398C41.5049 23.6376 41.3333 23.6267 41.1638 23.6048C40.7528 23.5478 40.3418 23.4822 39.9266 23.4187C39.9626 23.6923 39.9923 23.909 40.0304 24.2002L38.6153 23.4493L38.5433 23.7777ZM21.6104 63.6144C22.1972 63.737 22.784 63.737 23.373 63.6188C24.2246 63.4328 25.0677 63.2007 25.9088 62.9621C26.8176 62.706 27.7349 62.5396 28.6818 62.6622C28.7899 62.6688 28.8979 62.6688 29.006 62.6622C27.9954 62.4345 26.9828 62.2485 25.966 62.0887C25.7478 62.0558 25.5147 62.1149 25.2266 62.1346C24.9449 61.7844 24.4619 62.0405 24.0551 61.9332C24.0149 61.9223 23.9471 62.0361 23.8899 62.0908C23.7119 62.2506 23.5297 62.4083 23.3539 62.5724C23.2098 62.7016 23.07 62.8351 22.9154 62.9774L22.318 62.6534V63.4634L21.7672 63.0847C21.7036 63.2926 21.6634 63.4306 21.6104 63.6144ZM87.0327 45.4342C87.7212 45.7604 88.4224 46.0778 89.1067 46.4171C89.7062 46.7126 90.3227 46.8877 90.9921 46.8637C91.2103 46.8571 91.3988 46.8374 91.4942 46.5922C91.5895 46.3448 91.562 46.1281 91.3607 45.9727L90.7887 46.3054C90.7124 45.802 90.6425 45.3444 90.5705 44.8585L90.1511 45.1102C90.1341 44.9176 90.1214 44.7621 90.1023 44.5345C89.9498 44.5914 89.8036 44.6067 89.7083 44.6855C89.3715 44.9614 89.0177 45.0183 88.6491 44.7906C88.5198 44.6965 88.3864 44.6921 88.2529 44.7819C87.8504 45.0095 87.4352 45.2197 87.0327 45.4342ZM15.8482 66.4318C16.0304 66.4712 16.1363 66.4996 16.2422 66.5106C17.2082 66.6551 18.134 66.4975 19.0322 66.11C19.9284 65.7225 20.852 65.3482 21.7587 64.9651C21.8159 64.9323 21.8667 64.8907 21.9133 64.8425L19.2462 64.3303C19.5534 64.7681 19.653 65.1971 19.3119 65.6437L18.6848 64.8075C18.5641 65.0439 18.5005 65.3438 18.3861 65.3657C18.0344 65.4358 18.1044 65.6831 18.0789 65.9086C18.0556 66.0115 18.0217 66.1122 17.9772 66.2085C17.5938 65.8604 17.2824 65.4576 16.6829 65.6831C16.7252 65.5802 16.7613 65.473 16.7888 65.3635C16.8163 65.1796 16.9519 64.9651 16.721 64.8338C16.4477 64.6805 16.4223 65.0527 16.2443 65.114C16.2232 65.1205 16.2126 65.1687 16.2041 65.1993C16.0897 65.5912 15.9774 65.9786 15.8482 66.4318ZM72.9576 28.1055C72.7267 28.0048 72.6229 27.718 72.3708 27.8844C72.3518 27.8953 72.2713 27.8384 72.2374 27.799C72.0721 27.6086 71.8751 27.6392 71.6654 27.6896C71.3052 27.7793 70.943 27.8581 70.5638 27.9457L70.4324 28.6024C72.0319 28.9264 73.5847 28.9198 75.0719 28.1953C75.1079 27.7925 75.1397 27.4225 75.1735 27.0285C74.8367 27.0744 75.0676 27.3678 74.9808 27.521C74.8727 27.7115 74.86 27.9588 74.6291 28.0858C74.4533 27.7509 74.2838 27.4291 74.0868 27.0526L73.769 27.4597L73.5805 27.2036L72.9576 27.5867V28.1055ZM81.2302 26.6104C81.1095 26.2929 80.7705 26.1616 80.5248 25.9339C80.4422 25.8551 80.2833 25.8639 80.1519 25.8311C80.1392 26.1178 80.1307 26.3323 80.1201 26.5863L79.7537 26.3148L78.7855 26.6323C78.8681 26.9628 78.9296 27.3262 78.6711 27.6655L78.025 26.8709C77.5886 27.1992 77.22 27.5976 76.9192 28.0617C77.2263 28.0398 77.4784 28.0157 77.7263 28.0026C78.3851 27.9676 78.9995 27.7771 79.5715 27.4356C80.0947 27.1314 80.6519 26.8971 81.2323 26.6104H81.2302ZM87.2424 43.8887L86.6662 43.3918L87.2212 43.2189C87.0369 42.6322 86.9204 42.5993 86.5306 42.9846L86.3442 42.7416L84.1092 44.5389C85.2383 44.39 86.3039 44.5476 87.2445 43.8887H87.2424ZM46.4705 25.2247C46.5701 24.7475 46.6654 24.3118 46.5828 23.8521L46.1231 23.9682C46.1485 23.6551 46.1718 23.3837 46.193 23.1188C45.3054 22.9218 45.2842 22.9021 45.227 22.3154C45.0363 22.3942 44.8012 22.4292 44.6741 22.5671C44.5215 22.7313 44.2038 22.4949 44.1529 22.8298C44.2038 22.8627 44.2419 22.8889 44.2822 22.9152C44.3097 22.9305 44.3372 22.959 44.3648 22.959C45.0067 22.959 45.3838 23.2392 45.602 23.9112C45.7651 24.3819 46.157 24.7628 46.4748 25.2269L46.4705 25.2247ZM35.2681 49.5847C36.1536 49.9612 37.0413 49.889 37.9395 49.8189C37.6726 48.9958 37.6323 48.7922 37.1006 48.7638C36.857 49.3067 36.3951 49.3198 35.8973 49.241C35.8634 49.1162 35.8274 48.9914 35.7681 48.7725L35.2681 49.5847ZM59.8041 14.4588C60.0202 14.4917 60.141 14.553 60.2024 14.5135C60.5435 14.2881 60.8739 14.0385 61.2044 13.7933C61.2426 13.7605 61.2659 13.7189 61.2743 13.6686C61.3273 13.3205 61.3739 12.9724 61.429 12.5653L59.9651 12.2216C59.9503 12.2522 59.9376 12.2851 59.9249 12.3179C60.2871 12.4317 60.5816 12.6244 60.7214 13.0315L60.463 13.1454C60.5096 13.2001 60.5901 13.2526 60.5964 13.3139C60.643 13.8481 60.1982 14.0757 59.8041 14.4588ZM36.7553 24.9883C36.7235 24.6708 36.6938 24.3906 36.6621 24.082L35.7999 24.4279C35.677 24.2549 35.9884 23.9813 35.6198 23.8762C35.5817 24.0294 35.5435 24.1739 35.4969 24.3578L35.1283 24.0886L34.4377 24.4519C34.7957 24.719 36.1473 25.0277 36.7553 24.9883ZM68.7398 28.0967L68.3182 27.8756C68.3267 28.3156 68.6063 28.3178 68.8076 28.3769C69.0533 28.4382 69.3033 28.482 69.5533 28.5083C69.7778 28.5411 70.0024 28.5586 70.299 28.5893C70.2375 28.4645 70.1697 28.3463 70.0914 28.2347C69.9452 28.0639 69.7503 27.926 69.6401 27.7355C69.5321 27.5429 69.5067 27.3043 69.4325 27.0416C69.1868 27.4159 68.9643 27.7552 68.7398 28.0967ZM83.4186 25.5552C83.2576 25.4983 83.1559 25.4392 83.0013 25.6165C82.7915 25.8551 82.55 26.1069 82.1984 26.1397C81.9674 26.1616 81.9823 26.3236 81.9992 26.5381C82.4377 26.4922 82.8657 26.3915 83.2788 26.2317C83.3741 26.1725 83.4292 26.0872 83.4461 25.9733C83.4673 25.8398 83.4313 25.6953 83.4186 25.5574V25.5552ZM41.7061 21.7331C41.3523 21.8863 41.3841 22.0943 41.5366 22.346H42.1743C42.276 22.1819 42.384 22.0089 42.5281 21.7747L41.9137 21.6959C41.882 21.8382 41.8608 21.9214 41.8269 22.0658C41.7739 21.9192 41.7443 21.8338 41.7061 21.7331ZM62.9945 12.8455C62.3399 12.2829 62.0243 12.1888 61.3993 12.3704C61.5476 12.7448 61.8209 12.4908 62.0285 12.4821C62.0518 12.6178 62.0709 12.7207 62.0921 12.8433L62.9945 12.8455ZM97.2034 33.2279C97.1674 33.4074 97.1674 33.5059 97.1314 33.5913C96.9683 33.9766 96.964 33.9744 97.3051 34.2612L97.6568 33.9788L97.2034 33.2279ZM103.749 46.2135C103.881 46.0252 103.773 45.9464 103.711 45.8326C103.61 45.6443 103.506 45.4824 103.277 45.5677C103.067 45.6465 103.097 45.8457 103.118 46.0252C103.135 46.0778 103.158 46.1238 103.188 46.1675L103.749 46.2135ZM97.3348 22.044C97.8241 21.7419 97.6419 21.3106 97.7415 20.9078L96.9492 21.4004L97.3814 21.4201C97.3665 21.6105 97.3559 21.801 97.3348 22.044ZM43.7716 44.2718L44.1042 44.4973C44.2695 44.263 44.4156 44.0595 44.5639 43.8537C44.0089 43.7245 44.0089 43.7245 43.7716 44.2718ZM103.135 27.4488L103.08 27.4116L102.241 27.7509L102.415 28.4317C102.692 28.3529 102.563 28.0595 102.694 27.9194C102.839 27.7618 102.985 27.6064 103.131 27.4488H103.135ZM98.6376 69.5621L99.1185 70.1182L99.485 69.7745C99.2371 69.514 99.0147 69.3192 98.6355 69.5621H98.6376ZM25.5846 50.4778C25.5274 50.6179 25.4681 50.7055 25.4618 50.7952C25.4512 50.9222 25.4978 51.0557 25.4872 51.1827C25.4427 51.6599 25.519 51.7234 25.9554 51.5702L25.5846 50.4778ZM31.2875 36.4678C31.2685 36.3211 31.2536 36.2094 31.2388 36.0978C31.1858 35.66 31.1181 35.6315 30.7028 35.8723C30.7664 35.9971 30.8829 36.0737 30.8702 36.2686C30.8469 36.4809 31.0227 36.6013 31.2833 36.4678H31.2875ZM98.9257 22.5847C99.0994 22.7051 99.3155 22.7904 99.3155 22.8736C99.3155 23.0553 99.3579 23.1275 99.5104 23.0772C99.6926 23.0159 99.6926 22.8386 99.5867 22.7291C99.4892 22.6328 99.5358 22.5847 99.5591 22.4949C99.5803 22.4073 99.5634 22.3154 99.5634 22.1534L98.9257 22.5847ZM122.405 76.2957C122.602 76.3461 122.788 76.1622 122.78 76.0943C122.729 75.8076 123.01 75.7879 123.123 75.6084C122.866 75.512 122.718 75.6981 122.561 75.731C122.5 75.9324 122.451 76.1031 122.398 76.2957H122.405ZM42.6658 38.4204C42.2421 38.3898 42.223 38.427 42.3501 38.9655H42.6658V38.4204ZM94.4325 30.0406C94.0617 30.2639 94.2016 30.6186 94.2016 30.925C94.2016 31.1899 94.3477 31.0936 94.4325 31.0564V30.0406ZM27.076 25.6318L26.8451 25.3319C26.8155 25.4808 26.7964 25.5684 26.7795 25.6494L27.5018 25.9033C27.4235 25.7107 27.379 25.5859 27.3197 25.4326L27.076 25.6318ZM32.9378 34.9157C33.1158 35.104 33.2704 35.1828 33.4632 35.0339C33.5818 34.9464 33.7089 34.8741 33.5818 34.6837L32.9378 34.9157ZM15.183 65.8889C15.1343 66.0793 15.0707 66.1954 15.1004 66.2391C15.2275 66.4143 15.4076 66.4537 15.7041 66.388L15.183 65.8889ZM16.7252 21.8163L16.6617 21.9323L17.204 22.322C17.1786 22.1074 17.1659 22.0046 17.1511 21.8929L16.7252 21.8163ZM32.5628 5.90174C32.5819 5.74194 32.601 5.59089 32.62 5.42452C32.3997 5.42452 32.2747 5.48144 32.2684 5.68721C32.2641 5.84701 32.3362 5.9302 32.5628 5.90174ZM5.62451 69.8095C5.74526 69.5074 5.57367 69.4045 5.42961 69.2841C5.3364 69.2031 5.25378 69.1375 5.16904 69.2995L5.62451 69.8095ZM93.2694 30.1173L93.2016 29.9947C93.0915 30.0385 92.9389 30.0516 92.8839 30.1348C92.797 30.2639 92.8394 30.4106 93.0555 30.4522L93.2694 30.1173ZM84.3083 42.2929C84.2808 42.3936 84.2575 42.468 84.2427 42.5468C84.23 42.6234 84.2257 42.711 84.213 42.8598L84.7342 42.422L84.3083 42.2929ZM61.4946 24.117V24.5242L61.984 24.649L62.0158 24.5789L61.4946 24.117ZM99.3367 67.997C99.5401 68.2881 99.7773 68.4063 99.8494 68.2443C99.8218 68.1655 99.7901 68.0736 99.7562 67.9751L99.3367 67.997ZM92.2843 46.2354C92.314 46.266 92.3415 46.2967 92.3712 46.3295C92.4517 46.2332 92.5809 46.15 92.6 46.0428C92.6254 45.9158 92.5364 45.7932 92.3394 45.8238L92.2843 46.2354ZM23.0997 46.4652C23.2056 46.6995 23.2692 46.8352 23.3306 46.9731H23.4344C23.4619 46.8352 23.5107 46.6951 23.5022 46.5616C23.4958 46.5287 23.2967 46.5112 23.0954 46.4652H23.0997ZM33.8932 48.2121C33.853 47.9407 33.8424 47.7305 33.5797 47.597C33.5839 47.8663 33.4611 48.1333 33.8911 48.2143L33.8932 48.2121ZM34.5478 35.4586C34.7025 35.6775 34.8296 35.8264 35.0753 35.6403C34.9906 35.2616 34.7682 35.4345 34.5457 35.4586H34.5478ZM21.1168 49.6438C20.8245 49.4117 20.6613 49.4139 20.4749 49.6197L20.8096 49.878L21.1168 49.6438ZM20.4834 63.4393C20.6719 63.424 20.8478 63.6166 21.0575 63.4634C20.7418 63.1722 20.6804 63.1657 20.4834 63.4393ZM104.97 59.7858C104.832 60.2695 104.836 60.2739 105.292 60.3024C105.182 60.1207 105.093 59.9784 104.97 59.7858ZM100.218 26.1331L100.095 26.4112C100.256 26.4637 100.379 26.6257 100.604 26.4965L100.218 26.1331ZM29.3852 9.31888C29.3534 9.12624 29.3237 8.95112 29.2877 8.72564C29.078 9.10216 29.078 9.10216 29.383 9.31888H29.3852ZM26.6778 11.3416L26.1418 11.5255L26.6079 11.7597C26.6333 11.6021 26.6523 11.497 26.6778 11.3416ZM18.2738 25.7479L18.206 25.6384L17.7463 25.7719L18.1446 26.0675C18.1954 25.9449 18.2357 25.8464 18.2738 25.7479ZM7.81076 61.5939C7.79805 61.4691 7.78958 61.3794 7.77687 61.2459L7.29174 61.6005L7.31928 61.6705L7.81076 61.5939ZM17.9201 52.5749L18.4793 52.6516C18.4793 52.5903 18.5132 52.4983 18.4878 52.4764C18.3416 52.3495 18.1849 52.3385 17.9201 52.5749ZM43.35 22.5321C43.4263 22.3745 43.4305 22.2607 43.2717 22.2059C43.1361 22.1622 43.028 22.2016 42.9963 22.3658C42.9899 22.3898 43.0069 22.4227 43.0196 22.4708L43.35 22.5321ZM29.3301 51.0908L28.9593 51.2155L29.2559 51.5811C29.2877 51.3666 29.3068 51.2527 29.3301 51.0908ZM74.9723 39.8827L75.0528 39.8127C75.0125 39.7251 74.9935 39.5894 74.9299 39.5609C74.8071 39.5106 74.6927 39.5609 74.6863 39.7536L74.9723 39.8827ZM17.5175 25.7019C17.2909 25.4808 17.2909 25.4808 16.9583 25.8529L17.5175 25.7019ZM108.715 65.4927C108.649 65.7356 108.715 65.8495 108.902 65.8254C108.963 65.8167 109.012 65.7006 109.088 65.6087L108.715 65.4927ZM121.479 70.8712C121.199 70.9019 121.201 71.042 121.307 71.3222C121.386 71.1076 121.432 70.9872 121.479 70.8668V70.8712ZM52.0717 3.74769L52.1798 3.60321L51.8768 3.41495C51.8451 3.46092 51.8196 3.51127 51.8006 3.56381C51.8874 3.63167 51.9785 3.69297 52.0717 3.74769ZM26.8409 10.976L27.1544 10.5929L26.6947 10.6805C26.6968 10.7221 26.7053 10.7659 26.718 10.8053C26.7561 10.8644 26.7964 10.9213 26.8409 10.976ZM100.546 55.3222C100.803 55.482 100.803 55.482 100.972 55.1865L100.546 55.3222ZM23.3666 26.1857C23.4619 25.9099 23.3518 25.8595 23.1188 25.9405L23.3666 26.1857ZM31.7811 34.3334L31.5036 33.9044C31.4803 34.1911 31.4846 34.3334 31.7811 34.3334ZM14.253 54.9676L13.7996 54.88L13.9649 55.2347L14.253 54.9676ZM73.7923 33.3461C73.7669 33.727 73.8898 33.7533 74.1588 33.6307L73.7923 33.3461ZM84.1939 41.7369C84.3041 42.0017 84.3041 42.0017 84.5265 41.8178L84.1939 41.7369ZM32.1201 6.85836L32.173 6.94374L32.423 6.83647L32.2811 6.56503L32.1201 6.85836ZM116.037 51.6402L115.96 51.5527L115.689 51.8307L115.791 51.9314C115.871 51.8307 115.954 51.7343 116.037 51.6402ZM122.318 77.3049L122.455 77.2611C122.455 77.132 122.519 76.9722 122.218 76.9284C122.258 77.0816 122.288 77.1954 122.318 77.3049ZM78.5758 10.9607C78.7135 10.7111 78.7559 10.5842 78.4635 10.4353C78.5038 10.6345 78.5271 10.7462 78.5758 10.9607ZM61.2595 9.8158L60.929 9.52465C60.8909 9.76764 60.8909 9.76764 61.2553 9.81142L61.2595 9.8158ZM35.2385 47.7984C35.1304 47.5313 35.1304 47.5269 35.0012 47.5488C34.944 47.5685 34.8889 47.5948 34.836 47.6276L35.2385 47.7984ZM121.295 65.9064C121.28 65.867 121.265 65.8276 121.25 65.7904C121.136 65.7838 121.004 65.7444 120.979 66.0224L121.295 65.9064ZM35.3211 35.1083L35.6727 35.0667L35.4927 34.7865C35.4397 34.8916 35.4037 34.9573 35.3211 35.1083ZM34.908 4.66491L35.0054 4.70213C35.0351 4.61675 35.0626 4.52919 35.0923 4.44601L34.997 4.41098C34.9673 4.49417 34.9376 4.57954 34.908 4.66491ZM96.195 33.2564C95.9641 33.2783 95.8878 33.3549 96.0785 33.5235C96.123 33.414 96.159 33.333 96.195 33.252V33.2564ZM77.1437 32.3392C77.1204 32.3698 77.0971 32.3983 77.0717 32.4289L77.3259 32.661L77.3725 32.6084L77.1437 32.3392ZM102.008 27.5363C102.125 27.4378 102.192 27.4072 102.209 27.359C102.216 27.2955 102.209 27.2342 102.19 27.173L102.114 27.1686C102.084 27.2561 102.059 27.3481 102.008 27.532V27.5363ZM75.2985 26.7089L75.2286 26.8118C75.2879 26.8555 75.3515 26.8971 75.4172 26.9322C75.4278 26.9365 75.4701 26.8665 75.4956 26.8293L75.2985 26.7089ZM20.1868 50.1385C20.1762 50.4494 20.1762 50.4494 20.3986 50.4231L20.1868 50.1385ZM42.9115 39.8608L42.9941 39.8105L42.9158 39.585L42.67 39.7163L42.9115 39.8608ZM73.9533 39.9484C73.9618 39.9068 73.9681 39.863 73.9766 39.8236L73.7372 39.7536L73.7139 39.9331L73.9533 39.9484ZM103.125 47.2818C102.942 47.1723 102.942 47.1723 102.819 47.3518L103.125 47.2818ZM21.6803 44.8607V44.7534C21.6231 44.7337 21.5659 44.7271 21.5087 44.7337C21.4515 44.7512 21.407 44.8125 21.2715 44.9198L21.6803 44.8607ZM113.181 51.8307C113.124 51.7803 113.075 51.7212 113.064 51.73C113.018 51.754 112.986 51.7913 112.967 51.8416C112.961 51.8701 113.013 51.9117 113.041 51.9467L113.181 51.8307ZM28.0569 51.4629L28.0844 51.533L28.3132 51.4476L28.2836 51.3666L28.0569 51.4629ZM110.154 51.001L110.401 51.1192C110.359 50.8762 110.359 50.8762 110.149 51.0032L110.154 51.001ZM114.765 50.6376L114.797 50.5435L114.566 50.4603C114.558 50.491 114.547 50.5194 114.537 50.5501L114.765 50.6376ZM101.648 44.1996L101.529 44.158C101.512 44.239 101.493 44.3134 101.483 44.39C101.508 44.4031 101.534 44.4141 101.559 44.4185C101.593 44.3462 101.62 44.274 101.648 44.1996ZM31.5884 24.6905C31.4994 24.5001 31.3935 24.4169 31.2642 24.6424L31.5884 24.6905ZM120.61 63.7414L120.716 63.7108L120.629 63.4809L120.547 63.5116C120.568 63.5882 120.589 63.6648 120.61 63.7414ZM73.7224 40.7255C73.4915 40.6226 73.4915 40.6226 73.3093 40.87L73.7224 40.7255ZM101.563 49.9853L101.665 49.8539C101.587 49.8102 101.51 49.762 101.434 49.7226C101.428 49.7226 101.379 49.7817 101.383 49.7861C101.44 49.8561 101.502 49.9196 101.563 49.9853ZM46.2163 20.0213L46.1443 20.0497L46.2545 20.2752L46.2905 20.2621L46.2163 20.0213ZM59.9524 13.1038C59.9206 13.1454 59.8762 13.1782 59.8762 13.2089C59.8762 13.2417 59.9397 13.2964 59.9524 13.2899C59.9969 13.2614 60.035 13.2286 60.0689 13.1913L59.9524 13.1038ZM34.8232 36.1L34.8423 36.0409L34.6114 35.9336L34.5733 36.0562L34.8232 36.1ZM108.711 63.9975C108.711 64.0347 108.711 64.072 108.711 64.1092C108.787 64.1026 108.863 64.1004 108.94 64.0851C108.95 64.0851 108.952 64.0282 108.959 63.9975H108.711Z" fill="black"/>
</svg>
